{
.appVersion = "1342";
copyright = "Copyright 2020 FKxGF Schoolbook Project Authors (https://github.com/floriankarsten/fk-gf-schoolbook)";
customParameters = (
{
name = vendorID;
value = FK;
},
{
name = licenseURL;
value = "https://scripts.sil.org/OFL";
},
{
name = license;
value = "This Font Software is licensed under the SIL Open Font License, Version 1.1. This license is available with a FAQ at: https://scripts.sil.org/OFL";
},
{
name = Axes;
value = (
{
Hidden = 1;
Name = Weight;
Tag = wght;
},
{
Name = Extravaganza;
Tag = extr;
}
);
},
{
name = "Use Typo Metrics";
value = 1;
}
);
date = "2020-08-19 14:36:15 +0000";
designer = "Florian Karsten";
designerURL = "https://fonts.floriankarsten.com";
familyName = "FKxGF Schoolbook";
featurePrefixes = (
{
automatic = 1;
code = "languagesystem DFLT dflt;\012";
name = Languagesystems;
}
);
features = (
{
automatic = 1;
code = "lookup ccmp_Other_1 {\012	@CombiningTopAccents = [dotaccentcomb];\012	sub [i j]' @CombiningTopAccents by [idotless jdotless];\012} ccmp_Other_1;\012";
name = ccmp;
}
);
fontMaster = (
{
alignmentZones = (
"{1520, 16}",
"{1440, 16}",
"{1100, 16}",
"{0, -16}",
"{-380, -20}"
);
ascender = 1520;
capHeight = 1440;
custom = "W100 E0";
customParameters = (
{
name = typoAscender;
value = 1800;
},
{
name = hheaAscender;
value = 1800;
},
{
name = typoDescender;
value = -600;
},
{
name = hheaDescender;
value = -600;
},
{
name = typoLineGap;
value = 0;
},
{
name = hheaLineGap;
value = 0;
},
{
name = winAscent;
value = 1800;
},
{
name = winDescent;
value = 600;
}
);
descender = -400;
horizontalStems = (
40
);
iconName = Light_Condensed;
id = "CA54B7DC-FBBB-40FE-ACF3-AABDD76D6A7B";
verticalStems = (
50,
48
);
widthValue = 0;
xHeight = 1100;
},
{
alignmentZones = (
"{1480, 16}",
"{1440, 16}",
"{1080, 16}",
"{0, -16}",
"{-380, -20}"
);
ascender = 1480;
capHeight = 1440;
custom = "W100 E100";
customParameters = (
{
name = typoAscender;
value = 1800;
},
{
name = hheaAscender;
value = 1800;
},
{

glyphs = (
{
glyphname = A;
lastChange = "2020-08-19 21:14:04 +0000";
layers = (
{
hints = (
{
origin = "{0, 0}";
scale = "{-1.1, 1}";
type = Corner;
name = _corner.Serif;
options = 1;
},
{
origin = "{0, 3}";
scale = "{1.1, 1}";
type = Corner;
name = _corner.Serif;
},
{
origin = "{0, 4}";
scale = "{-0.64, 1}";
type = Corner;
name = _corner.Serif;
options = 1;
},
{
origin = "{0, 7}";
scale = "{0.64, 1}";
type = Corner;
name = _corner.Serif;
}
);
layerId = "CA54B7DC-FBBB-40FE-ACF3-AABDD76D6A7B";
paths = (
{
closed = 1;
nodes = (
"259 0 LINE",
"818 1393 LINE",
"805 1393 LINE",
"1364 0 LINE",
"1416 0 LINE",
"836 1440 LINE",
"792 1440 LINE",
"212 0 LINE"
);
},
{
closed = 1;
nodes = (
"1182 530 LINE",
"446 530 LINE",
"446 490 LINE",
"1182 490 LINE"
);
}
);
width = 1628;
},
{
hints = (
{
origin = "{0, 7}";
scale = "{0.64, 1}";
type = Corner;
name = _corner.Serif;
},
{
origin = "{0, 0}";
scale = "{-1.2, 1}";
type = Corner;
name = _corner.Serif;
options = 1;
},
{
origin = "{0, 3}";
scale = "{1.2, 1}";
type = Corner;
name = _corner.Serif;
},
{
origin = "{0, 4}";
scale = "{-0.64, 1}";
type = Corner;
name = _corner.Serif;
options = 1;
}
);
layerId = "1E61A082-F045-49A7-AB52-DD1B03FD9B54";
paths = (
{
closed = 1;
nodes = (
"241 0 LINE",
"800 1393 LINE",
"787 1393 LINE",
"1346 0 LINE",
"1398 0 LINE",
"818 1440 LINE",
"776 1440 LINE",
"196 0 LINE"
);
},
{
closed = 1;
nodes = (
"1164 530 LINE",
"428 530 LINE",
"428 490 LINE",
"1164 490 LINE"
);
}
);
width = 1592;
},
{
hints = (
{
origin = "{0, 7}";
scale = "{0.5, 1}";
type = Corner;
name = _corner.Serif;
},
{
origin = "{0, 0}";
scale = "{-1.5, 1}";
type = Corner;
name = _corner.Serif;
options = 1;
},
{
origin = "{0, 3}";
scale = "{1.5, 1}";
type = Corner;
name = _corner.Serif;
},
{
origin = "{0, 4}";
scale = "{-0.5, 1}";
type = Corner;
name = _corner.Serif;
options = 1;
}
);
layerId = "642E5713-E15A-4A7E-A28E-9A6B75A6585C";
paths = (
{
closed = 1;
nodes = (
"321 0 LINE",
"832 1273 LINE",
"731 1274 LINE",
"1227 0 LINE",
"1540 0 LINE",
"960 1440 LINE",
"718 1440 LINE",
"138 0 LINE"
);
},
{
closed = 1;
nodes = (
"1112 584 LINE",
"446 584 LINE",
"446 430 LINE",
"1112 430 LINE"
);
}
);
width = 1676;
},
{
hints = (
{
origin = "{0, 0}";
scale = "{-1.4, 1}";
type = Corner;
name = _corner.Serif;
options = 1;
},
{
origin = "{0, 3}";
scale = "{1.4, 1}";
type = Corner;
name = _corner.Serif;
},
{
origin = "{0, 4}";
scale = "{-0.5, 1}";
type = Corner;
name = _corner.Serif;
options = 1;
},
{
origin = "{0, 7}";
scale = "{0.5, 1}";
type = Corner;
name = _corner.Serif;
}
);
layerId = "AF891779-7DE6-4679-9CA2-17B922C1DF84";
paths = (
{
closed = 1;
nodes = (
"341 0 LINE",
"851 1273 LINE",
"740 1274 LINE",
"1236 0 LINE",
"1549 0 LINE",
"969 1440 LINE",
"714 1440 LINE",
"134 0 LINE"
);
},
{
closed = 1;
nodes = (
"1089 606 LINE",
"473 606 LINE",
"473 428 LINE",
"1089 428 LINE"
);
}
);
width = 1683;
}
);
leftKerningGroup = A;
rightKerningGroup = A;
unicode = 0041;
},
{
glyphname = B;
lastChange = "2020-08-19 21:34:34 +0000";
layers = (
{
hints = (
{
origin = "{2, 1}";
scale = "{-0.96, 1}";
type = Corner;
name = _corner.Serif;
},
{
origin = "{2, 2}";
type = Corner;
name = _corner.Serif;
options = 1;
}
);
layerId = "CA54B7DC-FBBB-40FE-ACF3-AABDD76D6A7B";
paths = (
{
closed = 1;
nodes = (
"402 1400 LINE",
"898 1400 LINE SMOOTH",
"1146 1400 OFFCURVE",
"1302 1290 OFFCURVE",
"1302 1076 CURVE SMOOTH",
"1302 862 OFFCURVE",
"1146 752 OFFCURVE",
"898 752 CURVE SMOOTH",
"402 752 LINE",
"402 720 LINE",
"910 720 LINE SMOOTH",
"1174 720 OFFCURVE",
"1350 842 OFFCURVE",
"1350 1076 CURVE SMOOTH",
"1350 1316 OFFCURVE",
"1174 1440 OFFCURVE",
"910 1440 CURVE SMOOTH",
"402 1440 LINE"
);
},
{
closed = 1;
nodes = (
"402 712 LINE",
"922 712 LINE SMOOTH",
"1178 712 OFFCURVE",
"1338 598 OFFCURVE",
"1338 376 CURVE SMOOTH",
"1338 154 OFFCURVE",
"1178 40 OFFCURVE",
"922 40 CURVE SMOOTH",
"402 40 LINE",
"402 0 LINE",
"934 0 LINE SMOOTH",
"1206 0 OFFCURVE",
"1386 128 OFFCURVE",
"1386 376 CURVE SMOOTH",
"1386 618 OFFCURVE",
"1206 746 OFFCURVE",
"934 746 CURVE SMOOTH",
"402 746 LINE"
);
},
{
closed = 1;
nodes = (
"402 1440 LINE",
"354 1440 LINE",
"354 0 LINE",
"402 0 LINE"
);
}
);
width = 1529;
},
{
hints = (
{
origin = "{2, 1}";
scale = "{-0.96, 1}";
type = Corner;
name = _corner.Serif;
},
{
origin = "{2, 2}";
type = Corner;
name = _corner.Serif;
options = 1;
}
);
layerId = "1E61A082-F045-49A7-AB52-DD1B03FD9B54";
paths = (
{
closed = 1;
nodes = (
"366 1400 LINE",
"862 1400 LINE SMOOTH",
"1110 1400 OFFCURVE",
"1266 1290 OFFCURVE",
"1266 1076 CURVE SMOOTH",
"1266 862 OFFCURVE",
"1110 752 OFFCURVE",
"862 752 CURVE SMOOTH",
"366 752 LINE",
"366 720 LINE",
"874 720 LINE SMOOTH",
"1138 720 OFFCURVE",
"1314 842 OFFCURVE",
"1314 1076 CURVE SMOOTH",
"1314 1316 OFFCURVE",
"1138 1440 OFFCURVE",
"874 1440 CURVE SMOOTH",
"366 1440 LINE"
);
},
{
closed = 1;
nodes = (
"366 712 LINE",
"886 712 LINE SMOOTH",
"1142 712 OFFCURVE",
"1302 598 OFFCURVE",
"1302 376 CURVE SMOOTH",
"1302 154 OFFCURVE",
"1142 40 OFFCURVE",
"886 40 CURVE SMOOTH",
"366 40 LINE",
"366 0 LINE",
"898 0 LINE SMOOTH",
"1170 0 OFFCURVE",
"1350 128 OFFCURVE",
"1350 376 CURVE SMOOTH",
"1350 618 OFFCURVE",
"1170 746 OFFCURVE",
"898 746 CURVE SMOOTH",
"366 746 LINE"
);
},
{
closed = 1;
nodes = (
"366 1440 LINE",
"318 1440 LINE",
"318 0 LINE",
"366 0 LINE"
);
}
);
width = 1440;
},
{
hints = (
{
origin = "{2, 1}";
scale = "{-0.96, 0.98}";
type = Corner;
name = _corner.Serif;
},
{
origin = "{2, 2}";
type = Corner;
name = _corner.Serif;
options = 1;
}
);
layerId = "642E5713-E15A-4A7E-A28E-9A6B75A6585C";
paths = (
{
closed = 1;
nodes = (
"558 1284 LINE",
"854 1284 LINE SMOOTH",
"1022 1284 OFFCURVE",
"1126 1201 OFFCURVE",
"1126 1044 CURVE SMOOTH",
"1126 887 OFFCURVE",
"1022 804 OFFCURVE",
"854 804 CURVE SMOOTH",
"558 804 LINE",
"558 718 LINE",
"920 718 LINE SMOOTH",
"1223 718 OFFCURVE",
"1424 836 OFFCURVE",
"1424 1078 CURVE SMOOTH",
"1424 1320 OFFCURVE",
"1223 1440 OFFCURVE",
"920 1440 CURVE SMOOTH",
"558 1440 LINE"
);
},
{
closed = 1;
nodes = (
"558 648 LINE",
"878 648 LINE SMOOTH",
"1051 648 OFFCURVE",
"1160 568 OFFCURVE",
"1160 403 CURVE SMOOTH",
"1160 238 OFFCURVE",
"1051 158 OFFCURVE",
"878 158 CURVE SMOOTH",
"558 158 LINE",
"558 0 LINE",
"954 0 LINE SMOOTH",
"1257 0 OFFCURVE",
"1458 120 OFFCURVE",
"1458 374 CURVE SMOOTH",
"1458 628 OFFCURVE",
"1257 748 OFFCURVE",
"954 748 CURVE SMOOTH",
"558 748 LINE"
);
},
{
closed = 1;
nodes = (
"558 1440 LINE",
"268 1440 LINE",
"268 0 LINE",
"558 0 LINE"
);
}
);
width = 1520;
},
{
hints = (
{
origin = "{2, 1}";
scale = "{-0.96, 0.98}";
type = Corner;
name = _corner.Serif;
},
{
origin = "{2, 2}";
type = Corner;
name = _corner.Serif;
options = 1;
}
);
layerId = "AF891779-7DE6-4679-9CA2-17B922C1DF84";
paths = (
{
closed = 1;
nodes = (
"578 1260 LINE",
"886 1260 LINE SMOOTH",
"1046 1260 OFFCURVE",
"1146 1184 OFFCURVE",
"1146 1038 CURVE SMOOTH",
"1146 892 OFFCURVE",
"1046 816 OFFCURVE",
"886 816 CURVE SMOOTH",
"578 816 LINE",
"578 704 LINE",
"940 704 LINE SMOOTH",
"1243 704 OFFCURVE",
"1444 828 OFFCURVE",
"1444 1072 CURVE SMOOTH",
"1444 1316 OFFCURVE",
"1243 1440 OFFCURVE",
"940 1440 CURVE SMOOTH",
"578 1440 LINE"
);
},
{
closed = 1;
nodes = (
"578 636 LINE",
"914 636 LINE SMOOTH",
"1079 636 OFFCURVE",
"1180 561 OFFCURVE",
"1180 410 CURVE SMOOTH",
"1180 259 OFFCURVE",
"1079 184 OFFCURVE",
"914 184 CURVE SMOOTH",
"578 184 LINE",
"578 0 LINE",
"974 0 LINE SMOOTH",
"1277 0 OFFCURVE",
"1478 128 OFFCURVE",
"1478 384 CURVE SMOOTH",
"1478 640 OFFCURVE",
"1277 768 OFFCURVE",
"974 768 CURVE SMOOTH",
"578 768 LINE"
);
},
{
closed = 1;
nodes = (
"578 1440 LINE",
"288 1440 LINE",
"288 0 LINE",
"578 0 LINE"
);
}
);
width = 1586;
}
);
leftKerningGroup = I;
leftMetricsKey = I;
rightKerningGroup = B;
unicode = 0042;
},
{
glyphname = C;
lastChange = "2020-08-20 00:29:57 +0000";
layers = (
{
layerId = "CA54B7DC-FBBB-40FE-ACF3-AABDD76D6A7B";
paths = (
{
closed = 1;
nodes = (
"1415 960 LINE",
"1403 1256 OFFCURVE",
"1194 1460 OFFCURVE",
"835 1460 CURVE SMOOTH",
"432 1460 OFFCURVE",
"139 1188 OFFCURVE",
"139 720 CURVE SMOOTH",
"139 252 OFFCURVE",
"432 -20 OFFCURVE",
"835 -20 CURVE SMOOTH",
"1227 -20 OFFCURVE",
"1431 231 OFFCURVE",
"1443 515 CURVE",
"1399 518 LINE",
"1383 252 OFFCURVE",
"1197 24 OFFCURVE",
"835 24 CURVE SMOOTH",
"458 24 OFFCURVE",
"187 296 OFFCURVE",
"187 720 CURVE SMOOTH",
"187 1144 OFFCURVE",
"458 1416 OFFCURVE",
"835 1416 CURVE SMOOTH",
"1195 1416 OFFCURVE",
"1358 1196 OFFCURVE",
"1377 960 CURVE"
);
},
{
closed = 1;
nodes = (
"1389 1440 LINE",
"1389 1014 LINE",
"1415 960 LINE",
"1433 960 LINE",
"1433 1440 LINE"
);
}
);
width = 1579;
},
{
layerId = "1E61A082-F045-49A7-AB52-DD1B03FD9B54";
paths = (
{
closed = 1;
nodes = (
"1332 910 LINE",
"1320 1236 OFFCURVE",
"1112 1460 OFFCURVE",
"754 1460 CURVE SMOOTH",
"376 1460 OFFCURVE",
"86 1188 OFFCURVE",
"86 720 CURVE SMOOTH",
"86 252 OFFCURVE",
"376 -20 OFFCURVE",
"754 -20 CURVE SMOOTH",
"1145 -20 OFFCURVE",
"1352 255 OFFCURVE",
"1360 566 CURVE",
"1316 568 LINE",
"1304 275 OFFCURVE",
"1115 24 OFFCURVE",
"754 24 CURVE SMOOTH",
"402 24 OFFCURVE",
"134 296 OFFCURVE",
"134 720 CURVE SMOOTH",
"134 1144 OFFCURVE",
"402 1416 OFFCURVE",
"754 1416 CURVE SMOOTH",
"1112 1416 OFFCURVE",
"1274 1172 OFFCURVE",
"1294 910 CURVE"
);
},
{
closed = 1;
nodes = (
"1306 1440 LINE",
"1306 964 LINE",
"1332 910 LINE",
"1350 910 LINE",
"1350 1440 LINE"
);
}
);
width = 1457;
},
{
layerId = "642E5713-E15A-4A7E-A28E-9A6B75A6585C";
paths = (
{
closed = 1;
nodes = (
"1444 870 LINE",
"1424 1241 OFFCURVE",
"1214 1460 OFFCURVE",
"824 1460 CURVE SMOOTH",
"397 1460 OFFCURVE",
"66 1188 OFFCURVE",
"66 720 CURVE SMOOTH",
"66 252 OFFCURVE",
"397 -20 OFFCURVE",
"824 -20 CURVE SMOOTH",
"1255 -20 OFFCURVE",
"1472 252 OFFCURVE",
"1488 604 CURVE",
"1318 612 LINE",
"1301 371 OFFCURVE",
"1171 168 OFFCURVE",
"876 168 CURVE SMOOTH",
"582 168 OFFCURVE",
"376 384 OFFCURVE",
"376 720 CURVE SMOOTH",
"376 1071 OFFCURVE",
"582 1296 OFFCURVE",
"876 1296 CURVE SMOOTH",
"1174 1296 OFFCURVE",
"1299 1090 OFFCURVE",
"1316 870 CURVE"
);
},
{
closed = 1;
nodes = (
"1320 1440 LINE",
"1320 1064 LINE",
"1444 870 LINE",
"1482 870 LINE",
"1482 1440 LINE"
);
}
);
width = 1568;
},
{
layerId = "AF891779-7DE6-4679-9CA2-17B922C1DF84";
paths = (
{
closed = 1;
nodes = (
"1464 930 LINE",
"1437 1244 OFFCURVE",
"1225 1460 OFFCURVE",
"844 1460 CURVE SMOOTH",
"424 1460 OFFCURVE",
"98 1188 OFFCURVE",
"98 720 CURVE SMOOTH",
"98 252 OFFCURVE",
"426 -20 OFFCURVE",
"848 -20 CURVE SMOOTH",
"1267 -20 OFFCURVE",
"1463 190 OFFCURVE",
"1510 471 CURVE",
"1314 508 LINE",
"1279 346 OFFCURVE",
"1172 194 OFFCURVE",
"902 194 CURVE SMOOTH",
"613 194 OFFCURVE",
"408 399 OFFCURVE",
"408 720 CURVE SMOOTH",
"408 1057 OFFCURVE",
"609 1272 OFFCURVE",
"892 1272 CURVE SMOOTH",
"1171 1272 OFFCURVE",
"1292 1106 OFFCURVE",
"1306 930 CURVE"
);
},
{
closed = 1;
nodes = (
"1308 1440 LINE",
"1308 1140 LINE",
"1464 930 LINE",
"1494 930 LINE",
"1494 1440 LINE"
);
}
);
width = 1600;
}
);
leftKerningGroup = O;
leftMetricsKey = O;
rightKerningGroup = C;
unicode = 0043;
},
{
glyphname = D;
lastChange = "2020-08-20 00:29:57 +0000";
layers = (
{
hints = (
{
origin = "{1, 1}";
scale = "{-0.96, 1}";
type = Corner;
name = _corner.Serif;
},
{
origin = "{1, 2}";
type = Corner;
name = _corner.Serif;
options = 1;
}
);
layerId = "CA54B7DC-FBBB-40FE-ACF3-AABDD76D6A7B";
paths = (
{
closed = 1;
nodes = (
"402 1400 LINE",
"730 1400 LINE SMOOTH",
"1158 1400 OFFCURVE",
"1438 1136 OFFCURVE",
"1438 720 CURVE SMOOTH",
"1438 304 OFFCURVE",
"1158 40 OFFCURVE",
"730 40 CURVE SMOOTH",
"402 40 LINE",
"402 0 LINE",
"730 0 LINE SMOOTH",
"1186 0 OFFCURVE",
"1486 264 OFFCURVE",
"1486 720 CURVE SMOOTH",
"1486 1176 OFFCURVE",
"1186 1440 OFFCURVE",
"730 1440 CURVE SMOOTH",
"402 1440 LINE"
);
},
{
closed = 1;
nodes = (
"402 1440 LINE",
"354 1440 LINE",
"354 0 LINE",
"402 0 LINE"
);
}
);
width = 1625;
},
{
hints = (
{
origin = "{1, 1}";
scale = "{-0.96, 1}";
type = Corner;
name = _corner.Serif;
},
{
origin = "{1, 2}";
type = Corner;
name = _corner.Serif;
options = 1;
}
);
layerId = "1E61A082-F045-49A7-AB52-DD1B03FD9B54";
paths = (
{
closed = 1;
nodes = (
"366 1400 LINE",
"694 1400 LINE SMOOTH",
"1122 1400 OFFCURVE",
"1402 1136 OFFCURVE",
"1402 720 CURVE SMOOTH",
"1402 304 OFFCURVE",
"1122 40 OFFCURVE",
"694 40 CURVE SMOOTH",
"366 40 LINE",
"366 0 LINE",
"694 0 LINE SMOOTH",
"1150 0 OFFCURVE",
"1450 264 OFFCURVE",
"1450 720 CURVE SMOOTH",
"1450 1176 OFFCURVE",
"1150 1440 OFFCURVE",
"694 1440 CURVE SMOOTH",
"366 1440 LINE"
);
},
{
closed = 1;
nodes = (
"366 1440 LINE",
"318 1440 LINE",
"318 0 LINE",
"366 0 LINE"
);
}
);
width = 1536;
},
{
hints = (
{
origin = "{1, 1}";
scale = "{-0.96, 0.98}";
type = Corner;
name = _corner.Serif;
},
{
origin = "{1, 2}";
type = Corner;
name = _corner.Serif;
options = 1;
}
);
layerId = "642E5713-E15A-4A7E-A28E-9A6B75A6585C";
paths = (
{
closed = 1;
nodes = (
"558 1284 LINE",
"732 1284 LINE SMOOTH",
"1039 1284 OFFCURVE",
"1240 1065 OFFCURVE",
"1240 721 CURVE SMOOTH",
"1240 377 OFFCURVE",
"1039 158 OFFCURVE",
"732 158 CURVE SMOOTH",
"558 158 LINE",
"558 0 LINE",
"772 0 LINE SMOOTH",
"1240 0 OFFCURVE",
"1550 264 OFFCURVE",
"1550 720 CURVE SMOOTH",
"1550 1176 OFFCURVE",
"1240 1440 OFFCURVE",
"772 1440 CURVE SMOOTH",
"558 1440 LINE"
);
},
{
closed = 1;
nodes = (
"558 1440 LINE",
"268 1440 LINE",
"268 0 LINE",
"558 0 LINE"
);
}
);
width = 1616;
},
{
hints = (
{
origin = "{1, 1}";
scale = "{-0.96, 0.98}";
type = Corner;
name = _corner.Serif;
},
{
origin = "{1, 2}";
type = Corner;
name = _corner.Serif;
options = 1;
}
);
layerId = "AF891779-7DE6-4679-9CA2-17B922C1DF84";
paths = (
{
closed = 1;
nodes = (
"578 1260 LINE",
"750 1260 LINE SMOOTH",
"1058 1260 OFFCURVE",
"1260 1050 OFFCURVE",
"1260 721 CURVE SMOOTH",
"1260 392 OFFCURVE",
"1058 184 OFFCURVE",
"750 184 CURVE SMOOTH",
"578 184 LINE",
"578 0 LINE",
"792 0 LINE SMOOTH",
"1260 0 OFFCURVE",
"1570 264 OFFCURVE",
"1570 720 CURVE SMOOTH",
"1570 1176 OFFCURVE",
"1260 1440 OFFCURVE",
"792 1440 CURVE SMOOTH",
"578 1440 LINE"
);
},
{
closed = 1;
nodes = (
"578 1440 LINE",
"288 1440 LINE",
"288 0 LINE",
"578 0 LINE"
);
}
);
width = 1668;
}
);
leftKerningGroup = I;
leftMetricsKey = I;
rightKerningGroup = O;
rightMetricsKey = O;
unicode = 0044;
},
{
glyphname = E;
lastChange = "2020-08-20 00:38:02 +0000";
layers = (
{
hints = (
{
origin = "{7, 1}";
scale = "{-0.96, 1}";
type = Corner;
name = _corner.Serif;
},
{
origin = "{7, 2}";
type = Corner;
name = _corner.Serif;
options = 1;
}
);
layerId = "CA54B7DC-FBBB-40FE-ACF3-AABDD76D6A7B";
paths = (
{
closed = 1;
nodes = (
"1310 40 LINE",
"402 40 LINE",
"402 0 LINE",
"1310 0 LINE"
);
},
{
closed = 1;
nodes = (
"1294 1440 LINE",
"402 1440 LINE",
"402 1400 LINE",
"1294 1400 LINE"
);
},
{
closed = 1;
nodes = (
"1310 40 LINE",
"1310 460 LINE",
"1266 460 LINE",
"1266 180 LINE SMOOTH",
"1266 68 OFFCURVE",
"1258 40 OFFCURVE",
"1146 40 CURVE"
);
},
{
closed = 1;
nodes = (
"1242 1400 OFFCURVE",
"1250 1372 OFFCURVE",
"1250 1260 CURVE SMOOTH",
"1250 1000 LINE",
"1294 1000 LINE",
"1294 1400 LINE",
"1130 1400 LINE"
);
},
{
closed = 1;
nodes = (
"956 768 LINE",
"402 768 LINE",
"402 728 LINE",
"956 728 LINE"
);
},
{
closed = 1;
nodes = (
"904 728 OFFCURVE",
"912 700 OFFCURVE",
"912 588 CURVE SMOOTH",
"912 350 LINE",
"956 350 LINE",
"956 728 LINE",
"792 728 LINE"
);
},
{
closed = 1;
nodes = (
"956 768 LINE",
"956 1100 LINE",
"912 1100 LINE",
"912 908 LINE SMOOTH",
"912 796 OFFCURVE",
"904 768 OFFCURVE",
"792 768 CURVE"
);
},
{
closed = 1;
nodes = (
"402 1440 LINE",
"354 1440 LINE",
"354 0 LINE",
"402 0 LINE"
);
}
);
width = 1452;
},
{
hints = (
{
origin = "{7, 1}";
scale = "{-0.96, 1}";
type = Corner;
name = _corner.Serif;
},
{
origin = "{7, 2}";
type = Corner;
name = _corner.Serif;
options = 1;
}
);
layerId = "1E61A082-F045-49A7-AB52-DD1B03FD9B54";
paths = (
{
closed = 1;
nodes = (
"1274 40 LINE",
"366 40 LINE",
"366 0 LINE",
"1274 0 LINE"
);
},
{
closed = 1;
nodes = (
"1256 1440 LINE",
"366 1440 LINE",
"366 1400 LINE",
"1256 1400 LINE"
);
},
{
closed = 1;
nodes = (
"1274 40 LINE",
"1274 560 LINE",
"1230 560 LINE",
"1230 180 LINE SMOOTH",
"1230 68 OFFCURVE",
"1222 40 OFFCURVE",
"1110 40 CURVE"
);
},
{
closed = 1;
nodes = (
"1204 1400 OFFCURVE",
"1212 1372 OFFCURVE",
"1212 1260 CURVE SMOOTH",
"1212 900 LINE",
"1256 900 LINE",
"1256 1400 LINE",
"1092 1400 LINE"
);
},
{
closed = 1;
nodes = (
"920 780 LINE",
"366 780 LINE",
"366 740 LINE",
"920 740 LINE"
);
},
{
closed = 1;
nodes = (
"868 740 OFFCURVE",
"876 712 OFFCURVE",
"876 600 CURVE SMOOTH",
"876 290 LINE",
"920 290 LINE",
"920 740 LINE",
"756 740 LINE"
);
},
{
closed = 1;
nodes = (
"920 780 LINE",
"920 1160 LINE",
"876 1160 LINE",
"876 920 LINE SMOOTH",
"876 808 OFFCURVE",
"868 780 OFFCURVE",
"756 780 CURVE"
);
},
{
closed = 1;
nodes = (
"366 1440 LINE",
"318 1440 LINE",
"318 0 LINE",
"366 0 LINE"
);
}
);
width = 1366;
},
{
hints = (
{
origin = "{7, 1}";
scale = "{-0.96, 0.98}";
type = Corner;
name = _corner.Serif;
},
{
origin = "{7, 2}";
type = Corner;
name = _corner.Serif;
options = 1;
}
);
layerId = "642E5713-E15A-4A7E-A28E-9A6B75A6585C";
paths = (
{
closed = 1;
nodes = (
"1334 158 LINE",
"558 158 LINE",
"558 0 LINE",
"1334 0 LINE"
);
},
{
closed = 1;
nodes = (
"1316 1440 LINE",
"558 1440 LINE",
"558 1284 LINE",
"1316 1284 LINE"
);
},
{
closed = 1;
nodes = (
"1334 158 LINE",
"1334 558 LINE",
"1166 558 LINE",
"1166 338 LINE SMOOTH",
"1166 206 OFFCURVE",
"1138 158 OFFCURVE",
"1006 158 CURVE"
);
},
{
closed = 1;
nodes = (
"1120 1284 OFFCURVE",
"1148 1236 OFFCURVE",
"1148 1104 CURVE SMOOTH",
"1148 902 LINE",
"1316 902 LINE",
"1316 1284 LINE",
"988 1284 LINE"
);
},
{
closed = 1;
nodes = (
"996 836 LINE",
"558 836 LINE",
"558 682 LINE",
"996 682 LINE"
);
},
{
closed = 1;
nodes = (
"808 682 OFFCURVE",
"836 634 OFFCURVE",
"836 502 CURVE SMOOTH",
"836 320 LINE",
"996 320 LINE",
"996 682 LINE",
"676 682 LINE"
);
},
{
closed = 1;
nodes = (
"996 836 LINE",
"996 1128 LINE",
"836 1128 LINE",
"836 1016 LINE SMOOTH",
"836 884 OFFCURVE",
"808 836 OFFCURVE",
"676 836 CURVE"
);
},
{
closed = 1;
nodes = (
"558 1440 LINE",
"268 1440 LINE",
"268 0 LINE",
"558 0 LINE"
);
}
);
width = 1444;
},
{
hints = (
{
origin = "{7, 1}";
scale = "{-0.96, 0.98}";
type = Corner;
name = _corner.Serif;
},
{
origin = "{7, 2}";
type = Corner;
name = _corner.Serif;
options = 1;
}
);
layerId = "AF891779-7DE6-4679-9CA2-17B922C1DF84";
paths = (
{
closed = 1;
nodes = (
"1354 184 LINE",
"578 184 LINE",
"578 0 LINE",
"1354 0 LINE"
);
},
{
closed = 1;
nodes = (
"1336 1440 LINE",
"578 1440 LINE",
"578 1260 LINE",
"1336 1260 LINE"
);
},
{
closed = 1;
nodes = (
"1354 184 LINE",
"1354 480 LINE",
"1164 480 LINE",
"1164 364 LINE SMOOTH",
"1164 232 OFFCURVE",
"1136 184 OFFCURVE",
"1004 184 CURVE"
);
},
{
closed = 1;
nodes = (
"1118 1260 OFFCURVE",
"1146 1212 OFFCURVE",
"1146 1080 CURVE SMOOTH",
"1146 996 LINE",
"1336 996 LINE",
"1336 1260 LINE",
"986 1260 LINE"
);
},
{
closed = 1;
nodes = (
"1004 848 LINE",
"578 848 LINE",
"578 670 LINE",
"1004 670 LINE"
);
},
{
closed = 1;
nodes = (
"788 670 OFFCURVE",
"816 622 OFFCURVE",
"816 490 CURVE SMOOTH",
"816 378 LINE",
"1004 378 LINE",
"1004 670 LINE",
"656 670 LINE"
);
},
{
closed = 1;
nodes = (
"1004 848 LINE",
"1004 1072 LINE",
"816 1072 LINE",
"816 1028 LINE SMOOTH",
"816 896 OFFCURVE",
"788 848 OFFCURVE",
"656 848 CURVE"
);
},
{
closed = 1;
nodes = (
"578 1440 LINE",
"288 1440 LINE",
"288 0 LINE",
"578 0 LINE"
);
}
);
width = 1494;
}
);
leftKerningGroup = I;
leftMetricsKey = I;
rightKerningGroup = E;
unicode = 0045;
},
{
glyphname = F;
lastChange = "2020-08-20 00:38:53 +0000";
layers = (
{
hints = (
{
origin = "{5, 3}";
scale = "{-0.96, 1}";
type = Corner;
name = _corner.Serif;
},
{
origin = "{5, 0}";
type = Corner;
name = _corner.Serif;
options = 1;
},
{
origin = "{5, 1}";
scale = "{-1.2, 1}";
type = Corner;
name = _corner.Serif;
}
);
layerId = "CA54B7DC-FBBB-40FE-ACF3-AABDD76D6A7B";
paths = (
{
closed = 1;
nodes = (
"1272 1440 LINE",
"402 1440 LINE",
"402 1400 LINE",
"1272 1400 LINE"
);
},
{
closed = 1;
nodes = (
"1220 1400 OFFCURVE",
"1228 1372 OFFCURVE",
"1228 1260 CURVE SMOOTH",
"1228 1000 LINE",
"1272 1000 LINE",
"1272 1400 LINE",
"1108 1400 LINE"
);
},
{
closed = 1;
nodes = (
"958 754 LINE",
"402 754 LINE",
"402 714 LINE",
"958 714 LINE"
);
},
{
closed = 1;
nodes = (
"906 714 OFFCURVE",
"914 686 OFFCURVE",
"914 574 CURVE SMOOTH",
"914 380 LINE",
"958 380 LINE",
"958 714 LINE",
"794 714 LINE"
);
},
{
closed = 1;
nodes = (
"958 754 LINE",
"958 1060 LINE",
"914 1060 LINE",
"914 894 LINE SMOOTH",
"914 782 OFFCURVE",
"906 754 OFFCURVE",
"794 754 CURVE"
);
},
{
closed = 1;
nodes = (
"354 0 LINE",
"402 0 LINE",
"402 1440 LINE",
"354 1440 LINE"
);
}
);
width = 1379;
},
{
hints = (
{
origin = "{5, 3}";
scale = "{-0.96, 1}";
type = Corner;
name = _corner.Serif;
},
{
origin = "{5, 0}";
type = Corner;
name = _corner.Serif;
options = 1;
},
{
origin = "{5, 1}";
scale = "{-1.4, 1}";
type = Corner;
name = _corner.Serif;
}
);
layerId = "1E61A082-F045-49A7-AB52-DD1B03FD9B54";
paths = (
{
closed = 1;
nodes = (
"1236 1440 LINE",
"366 1440 LINE",
"366 1400 LINE",
"1236 1400 LINE"
);
},
{
closed = 1;
nodes = (
"1184 1400 OFFCURVE",
"1192 1372 OFFCURVE",
"1192 1260 CURVE SMOOTH",
"1192 900 LINE",
"1236 900 LINE",
"1236 1400 LINE",
"1072 1400 LINE"
);
},
{
closed = 1;
nodes = (
"926 760 LINE",
"366 760 LINE",
"366 720 LINE",
"926 720 LINE"
);
},
{
closed = 1;
nodes = (
"874 720 OFFCURVE",
"882 692 OFFCURVE",
"882 580 CURVE SMOOTH",
"882 300 LINE",
"926 300 LINE",
"926 720 LINE",
"762 720 LINE"
);
},
{
closed = 1;
nodes = (
"926 760 LINE",
"926 1160 LINE",
"882 1160 LINE",
"882 900 LINE SMOOTH",
"882 788 OFFCURVE",
"874 760 OFFCURVE",
"762 760 CURVE"
);
},
{
closed = 1;
nodes = (
"318 0 LINE",
"366 0 LINE",
"366 1440 LINE",
"318 1440 LINE"
);
}
);
width = 1307;
},
{
hints = (
{
origin = "{5, 3}";
scale = "{-0.96, 0.98}";
type = Corner;
name = _corner.Serif;
},
{
origin = "{5, 0}";
type = Corner;
name = _corner.Serif;
options = 1;
},
{
origin = "{5, 1}";
scale = "{-1.4, 1}";
type = Corner;
name = _corner.Serif;
}
);
layerId = "642E5713-E15A-4A7E-A28E-9A6B75A6585C";
paths = (
{
closed = 1;
nodes = (
"1306 1440 LINE",
"558 1440 LINE",
"558 1284 LINE",
"1306 1284 LINE"
);
},
{
closed = 1;
nodes = (
"1110 1284 OFFCURVE",
"1138 1236 OFFCURVE",
"1138 1104 CURVE SMOOTH",
"1138 902 LINE",
"1306 902 LINE",
"1306 1284 LINE",
"978 1284 LINE"
);
},
{
closed = 1;
nodes = (
"986 826 LINE",
"558 826 LINE",
"558 672 LINE",
"986 672 LINE"
);
},
{
closed = 1;
nodes = (
"798 672 OFFCURVE",
"826 624 OFFCURVE",
"826 492 CURVE SMOOTH",
"826 324 LINE",
"986 324 LINE",
"986 672 LINE",
"666 672 LINE"
);
},
{
closed = 1;
nodes = (
"986 826 LINE",
"986 1130 LINE",
"826 1130 LINE",
"826 1006 LINE SMOOTH",
"826 874 OFFCURVE",
"798 826 OFFCURVE",
"666 826 CURVE"
);
},
{
closed = 1;
nodes = (
"268 0 LINE",
"558 0 LINE",
"558 1440 LINE",
"268 1440 LINE"
);
}
);
width = 1372;
},
{
hints = (
{
origin = "{5, 3}";
scale = "{-0.96, 0.98}";
type = Corner;
name = _corner.Serif;
},
{
origin = "{5, 0}";
type = Corner;
name = _corner.Serif;
options = 1;
},
{
origin = "{5, 1}";
scale = "{-1.2, 1}";
type = Corner;
name = _corner.Serif;
}
);
layerId = "AF891779-7DE6-4679-9CA2-17B922C1DF84";
paths = (
{
closed = 1;
nodes = (
"1326 1440 LINE",
"578 1440 LINE",
"578 1260 LINE",
"1326 1260 LINE"
);
},
{
closed = 1;
nodes = (
"1108 1260 OFFCURVE",
"1136 1212 OFFCURVE",
"1136 1080 CURVE SMOOTH",
"1136 982 LINE",
"1326 982 LINE",
"1326 1260 LINE",
"976 1260 LINE"
);
},
{
closed = 1;
nodes = (
"990 838 LINE",
"578 838 LINE",
"578 660 LINE",
"990 660 LINE"
);
},
{
closed = 1;
nodes = (
"774 660 OFFCURVE",
"802 612 OFFCURVE",
"802 480 CURVE SMOOTH",
"802 360 LINE",
"990 360 LINE",
"990 660 LINE",
"642 660 LINE"
);
},
{
closed = 1;
nodes = (
"990 838 LINE",
"990 1092 LINE",
"802 1092 LINE",
"802 1018 LINE SMOOTH",
"802 886 OFFCURVE",
"774 838 OFFCURVE",
"642 838 CURVE"
);
},
{
closed = 1;
nodes = (
"288 0 LINE",
"578 0 LINE",
"578 1440 LINE",
"288 1440 LINE"
);
}
);
width = 1410;
}
);
leftKerningGroup = I;
leftMetricsKey = I;
rightKerningGroup = F;
unicode = 0046;
},
{
glyphname = G;
lastChange = "2020-08-20 00:29:57 +0000";
layers = (
{
layerId = "CA54B7DC-FBBB-40FE-ACF3-AABDD76D6A7B";
paths = (
{
closed = 1;
nodes = (
"1349 990 LINE",
"1332 1277 OFFCURVE",
"1143 1460 OFFCURVE",
"809 1460 CURVE SMOOTH",
"427 1460 OFFCURVE",
"139 1188 OFFCURVE",
"139 720 CURVE SMOOTH",
"139 252 OFFCURVE",
"433 -20 OFFCURVE",
"823 -20 CURVE SMOOTH",
"1213 -20 OFFCURVE",
"1403 258 OFFCURVE",
"1403 632 CURVE",
"1363 632 LINE",
"1363 302 OFFCURVE",
"1187 24 OFFCURVE",
"823 24 CURVE SMOOTH",
"459 24 OFFCURVE",
"187 296 OFFCURVE",
"187 720 CURVE SMOOTH",
"187 1144 OFFCURVE",
"455 1416 OFFCURVE",
"809 1416 CURVE SMOOTH",
"1140 1416 OFFCURVE",
"1291 1223 OFFCURVE",
"1311 990 CURVE"
);
},
{
closed = 1;
nodes = (
"1323 1440 LINE",
"1323 1044 LINE",
"1349 990 LINE",
"1367 990 LINE",
"1367 1440 LINE"
);
},
{
closed = 1;
nodes = (
"803 632 LINE",
"1607 632 LINE",
"1607 672 LINE",
"803 672 LINE"
);
},
{
closed = 1;
nodes = (
"1363 632 LINE",
"1363 0 LINE",
"1407 0 LINE",
"1407 632 LINE"
);
}
);
width = 1685;
},
{
layerId = "1E61A082-F045-49A7-AB52-DD1B03FD9B54";
paths = (
{
closed = 1;
nodes = (
"1304 940 LINE",
"1286 1262 OFFCURVE",
"1096 1460 OFFCURVE",
"758 1460 CURVE SMOOTH",
"376 1460 OFFCURVE",
"86 1188 OFFCURVE",
"86 720 CURVE SMOOTH",
"86 252 OFFCURVE",
"380 -20 OFFCURVE",
"770 -20 CURVE SMOOTH",
"1160 -20 OFFCURVE",
"1350 258 OFFCURVE",
"1350 632 CURVE",
"1310 632 LINE",
"1310 302 OFFCURVE",
"1134 24 OFFCURVE",
"770 24 CURVE SMOOTH",
"406 24 OFFCURVE",
"134 296 OFFCURVE",
"134 720 CURVE SMOOTH",
"134 1144 OFFCURVE",
"404 1416 OFFCURVE",
"758 1416 CURVE SMOOTH",
"1095 1416 OFFCURVE",
"1246 1205 OFFCURVE",
"1266 940 CURVE"
);
},
{
closed = 1;
nodes = (
"1278 1440 LINE",
"1278 994 LINE",
"1304 940 LINE",
"1322 940 LINE",
"1322 1440 LINE"
);
},
{
closed = 1;
nodes = (
"706 632 LINE",
"1554 632 LINE",
"1554 672 LINE",
"706 672 LINE"
);
},
{
closed = 1;
nodes = (
"1310 632 LINE",
"1310 0 LINE",
"1354 0 LINE",
"1354 632 LINE"
);
}
);
width = 1615;
},
{
layerId = "642E5713-E15A-4A7E-A28E-9A6B75A6585C";
paths = (
{
closed = 1;
nodes = (
"1394 890 LINE",
"1377 1252 OFFCURVE",
"1182 1460 OFFCURVE",
"800 1460 CURVE SMOOTH",
"386 1460 OFFCURVE",
"66 1188 OFFCURVE",
"66 720 CURVE SMOOTH",
"66 252 OFFCURVE",
"386 -20 OFFCURVE",
"800 -20 CURVE SMOOTH",
"1208 -20 OFFCURVE",
"1386 243 OFFCURVE",
"1397 552 CURVE",
"1288 552 LINE",
"1271 358 OFFCURVE",
"1160 170 OFFCURVE",
"862 170 CURVE SMOOTH",
"575 170 OFFCURVE",
"376 384 OFFCURVE",
"376 720 CURVE SMOOTH",
"376 1072 OFFCURVE",
"571 1296 OFFCURVE",
"848 1296 CURVE SMOOTH",
"1130 1296 OFFCURVE",
"1257 1107 OFFCURVE",
"1274 890 CURVE"
);
},
{
closed = 1;
nodes = (
"1278 1440 LINE",
"1278 1064 LINE",
"1394 890 LINE",
"1440 890 LINE",
"1440 1440 LINE"
);
},
{
closed = 1;
nodes = (
"833 552 LINE",
"1630 552 LINE",
"1630 712 LINE",
"833 712 LINE"
);
},
{
closed = 1;
nodes = (
"1294 552 LINE",
"1294 0 LINE",
"1464 0 LINE",
"1464 552 LINE"
);
}
);
width = 1666;
},
{
layerId = "AF891779-7DE6-4679-9CA2-17B922C1DF84";
paths = (
{
closed = 1;
nodes = (
"1432 950 LINE",
"1403 1252 OFFCURVE",
"1225 1460 OFFCURVE",
"834 1460 CURVE SMOOTH",
"419 1460 OFFCURVE",
"98 1188 OFFCURVE",
"98 720 CURVE SMOOTH",
"98 252 OFFCURVE",
"420 -20 OFFCURVE",
"836 -20 CURVE SMOOTH",
"1242 -20 OFFCURVE",
"1427 239 OFFCURVE",
"1438 544 CURVE",
"1292 544 LINE",
"1275 366 OFFCURVE",
"1169 194 OFFCURVE",
"884 194 CURVE SMOOTH",
"603 194 OFFCURVE",
"408 399 OFFCURVE",
"408 720 CURVE SMOOTH",
"408 1057 OFFCURVE",
"603 1272 OFFCURVE",
"880 1272 CURVE SMOOTH",
"1148 1272 OFFCURVE",
"1268 1122 OFFCURVE",
"1284 950 CURVE"
);
},
{
closed = 1;
nodes = (
"1286 1440 LINE",
"1286 1140 LINE",
"1432 950 LINE",
"1472 950 LINE",
"1472 1440 LINE"
);
},
{
closed = 1;
nodes = (
"865 544 LINE",
"1662 544 LINE",
"1662 724 LINE",
"865 724 LINE"
);
},
{
closed = 1;
nodes = (
"1298 544 LINE",
"1298 0 LINE",
"1488 0 LINE",
"1488 544 LINE"
);
}
);
width = 1716;
}
);
leftKerningGroup = O;
leftMetricsKey = O;
rightKerningGroup = G;
unicode = 0047;
},
{
glyphname = H;
lastChange = "2020-08-19 21:21:52 +0000";
layers = (
{
hints = (
{
origin = "{1, 0}";
scale = "{0.96, 1}";
type = Corner;
name = _corner.Serif;
},
{
origin = "{1, 1}";
scale = "{-0.96, 1}";
type = Corner;
name = _corner.Serif;
},
{
origin = "{1, 2}";
type = Corner;
name = _corner.Serif;
options = 1;
},
{
origin = "{1, 3}";
scale = "{-1, 1}";
type = Corner;
name = _corner.Serif;
},
{
origin = "{2, 0}";
scale = "{0.96, 1}";
type = Corner;
name = _corner.Serif;
},
{
origin = "{2, 1}";
scale = "{-0.96, 1}";
type = Corner;
name = _corner.Serif;
},
{
origin = "{2, 2}";
type = Corner;
name = _corner.Serif;
options = 1;
},
{
origin = "{2, 3}";
scale = "{-1, 1}";
type = Corner;
name = _corner.Serif;
}
);
layerId = "CA54B7DC-FBBB-40FE-ACF3-AABDD76D6A7B";
paths = (
{
closed = 1;
nodes = (
"1306 750 LINE",
"402 750 LINE",
"402 710 LINE",
"1306 710 LINE"
);
},
{
closed = 1;
nodes = (
"402 1440 LINE",
"354 1440 LINE",
"354 0 LINE",
"402 0 LINE"
);
},
{
closed = 1;
nodes = (
"1354 1440 LINE",
"1306 1440 LINE",
"1306 0 LINE",
"1354 0 LINE"
);
}
);
width = 1708;
},
{
hints = (
{
origin = "{1, 0}";
scale = "{1.06, 1}";
type = Corner;
name = _corner.Serif;
},
{
origin = "{1, 1}";
scale = "{-0.96, 1}";
type = Corner;
name = _corner.Serif;
},
{
origin = "{1, 2}";
type = Corner;
name = _corner.Serif;
options = 1;
},
{
origin = "{1, 3}";
scale = "{-1.1, 1}";
type = Corner;
name = _corner.Serif;
},
{
origin = "{2, 0}";
scale = "{0.96, 1}";
type = Corner;
name = _corner.Serif;
},
{
origin = "{2, 1}";
scale = "{-1.06, 1}";
type = Corner;
name = _corner.Serif;
},
{
origin = "{2, 2}";
scale = "{1.1, 1}";
type = Corner;
name = _corner.Serif;
options = 1;
},
{
origin = "{2, 3}";
scale = "{-1, 1}";
type = Corner;
name = _corner.Serif;
}
);
layerId = "1E61A082-F045-49A7-AB52-DD1B03FD9B54";
paths = (
{
closed = 1;
nodes = (
"1270 750 LINE",
"366 750 LINE",
"366 710 LINE",
"1270 710 LINE"
);
},
{
closed = 1;
nodes = (
"366 1440 LINE",
"318 1440 LINE",
"318 0 LINE",
"366 0 LINE"
);
},
{
closed = 1;
nodes = (
"1318 1440 LINE",
"1270 1440 LINE",
"1270 0 LINE",
"1318 0 LINE"
);
}
);
width = 1636;
},
{
hints = (
{
origin = "{1, 0}";
scale = "{1.06, 0.98}";
type = Corner;
name = _corner.Serif;
options = 1;
},
{
origin = "{1, 1}";
scale = "{-0.96, 0.98}";
type = Corner;
name = _corner.Serif;
},
{
origin = "{1, 2}";
type = Corner;
name = _corner.Serif;
options = 1;
},
{
origin = "{1, 3}";
scale = "{-1.1, 1}";
type = Corner;
name = _corner.Serif;
},
{
origin = "{2, 0}";
scale = "{0.96, 0.98}";
type = Corner;
name = _corner.Serif;
options = 1;
},
{
origin = "{2, 1}";
scale = "{-1.06, 0.98}";
type = Corner;
name = _corner.Serif;
},
{
origin = "{2, 2}";
scale = "{1.1, 1}";
type = Corner;
name = _corner.Serif;
options = 1;
},
{
origin = "{2, 3}";
scale = "{-1, 1}";
type = Corner;
name = _corner.Serif;
}
);
layerId = "642E5713-E15A-4A7E-A28E-9A6B75A6585C";
paths = (
{
closed = 1;
nodes = (
"1164 810 LINE",
"558 810 LINE",
"558 652 LINE",
"1164 652 LINE"
);
},
{
closed = 1;
nodes = (
"558 1440 LINE",
"268 1440 LINE",
"268 0 LINE",
"558 0 LINE"
);
},
{
closed = 1;
nodes = (
"1454 1440 LINE",
"1164 1440 LINE",
"1164 0 LINE",
"1454 0 LINE"
);
}
);
width = 1722;
},
{
hints = (
{
origin = "{1, 0}";
scale = "{0.96, 0.98}";
type = Corner;
name = _corner.Serif;
options = 1;
},
{
origin = "{1, 1}";
scale = "{-0.96, 0.98}";
type = Corner;
name = _corner.Serif;
},
{
origin = "{1, 2}";
type = Corner;
name = _corner.Serif;
options = 1;
},
{
origin = "{1, 3}";
scale = "{-1, 1}";
type = Corner;
name = _corner.Serif;
},
{
origin = "{2, 0}";
scale = "{0.96, 0.98}";
type = Corner;
name = _corner.Serif;
options = 1;
},
{
origin = "{2, 1}";
scale = "{-0.96, 0.98}";
type = Corner;
name = _corner.Serif;
},
{
origin = "{2, 2}";
type = Corner;
name = _corner.Serif;
options = 1;
},
{
origin = "{2, 3}";
scale = "{-1, 1}";
type = Corner;
name = _corner.Serif;
}
);
layerId = "AF891779-7DE6-4679-9CA2-17B922C1DF84";
paths = (
{
closed = 1;
nodes = (
"1184 822 LINE",
"578 822 LINE",
"578 638 LINE",
"1184 638 LINE"
);
},
{
closed = 1;
nodes = (
"578 1440 LINE",
"288 1440 LINE",
"288 0 LINE",
"578 0 LINE"
);
},
{
closed = 1;
nodes = (
"1474 1440 LINE",
"1184 1440 LINE",
"1184 0 LINE",
"1474 0 LINE"
);
}
);
width = 1762;
}
);
leftKerningGroup = I;
leftMetricsKey = I;
rightKerningGroup = I;
rightMetricsKey = I;
unicode = 0048;
},
{
glyphname = I;
lastChange = "2020-08-19 21:21:48 +0000";
layers = (
{
hints = (
{
origin = "{0, 3}";
scale = "{0.96, 1}";
type = Corner;
name = _corner.Serif;
},
{
origin = "{0, 0}";
scale = "{-0.96, 1}";
type = Corner;
name = _corner.Serif;
},
{
origin = "{0, 1}";
type = Corner;
name = _corner.Serif;
options = 1;
},
{
origin = "{0, 2}";
scale = "{-1, 1}";
type = Corner;
name = _corner.Serif;
}
);
layerId = "CA54B7DC-FBBB-40FE-ACF3-AABDD76D6A7B";
paths = (
{
closed = 1;
nodes = (
"354 1440 LINE",
"354 0 LINE",
"402 0 LINE",
"402 1440 LINE"
);
}
);
width = 756;
},
{
hints = (
{
origin = "{0, 0}";
scale = "{-0.96, 1}";
type = Corner;
name = _corner.Serif;
},
{
origin = "{0, 1}";
type = Corner;
name = _corner.Serif;
options = 1;
},
{
origin = "{0, 2}";
scale = "{-1, 1}";
type = Corner;
name = _corner.Serif;
},
{
origin = "{0, 3}";
scale = "{0.96, 1}";
type = Corner;
name = _corner.Serif;
}
);
layerId = "1E61A082-F045-49A7-AB52-DD1B03FD9B54";
paths = (
{
closed = 1;
nodes = (
"318 1440 LINE",
"318 0 LINE",
"366 0 LINE",
"366 1440 LINE"
);
}
);
width = 684;
},
{
hints = (
{
origin = "{0, 3}";
scale = "{0.96, 0.98}";
type = Corner;
name = _corner.Serif;
options = 1;
},
{
origin = "{0, 0}";
scale = "{-0.96, 0.98}";
type = Corner;
name = _corner.Serif;
},
{
origin = "{0, 1}";
type = Corner;
name = _corner.Serif;
options = 1;
},
{
origin = "{0, 2}";
scale = "{-1, 1}";
type = Corner;
name = _corner.Serif;
}
);
layerId = "642E5713-E15A-4A7E-A28E-9A6B75A6585C";
paths = (
{
closed = 1;
nodes = (
"268 1440 LINE",
"268 0 LINE",
"558 0 LINE",
"558 1440 LINE"
);
}
);
width = 826;
},
{
hints = (
{
origin = "{0, 0}";
scale = "{-0.96, 0.98}";
type = Corner;
name = _corner.Serif;
},
{
origin = "{0, 1}";
type = Corner;
name = _corner.Serif;
options = 1;
},
{
origin = "{0, 2}";
scale = "{-1, 1}";
type = Corner;
name = _corner.Serif;
},
{
origin = "{0, 3}";
scale = "{0.96, 0.98}";
type = Corner;
name = _corner.Serif;
options = 1;
}
);
layerId = "AF891779-7DE6-4679-9CA2-17B922C1DF84";
paths = (
{
closed = 1;
nodes = (
"288 1440 LINE",
"288 0 LINE",
"578 0 LINE",
"578 1440 LINE"
);
}
);
width = 866;
}
);
leftKerningGroup = I;
rightKerningGroup = I;
unicode = 0049;
},
{
glyphname = J;
lastChange = "2020-08-19 21:32:26 +0000";
layers = (
{
hints = (
{
origin = "{0, 17}";
scale = "{0.96, 1}";
type = Corner;
name = _corner.Serif;
},
{
origin = "{0, 0}";
scale = "{-1.16, 1}";
type = Corner;
name = _corner.Serif;
options = 1;
}
);
layerId = "CA54B7DC-FBBB-40FE-ACF3-AABDD76D6A7B";
paths = (
{
closed = 1;
nodes = (
"793 1440 LINE",
"793 396 LINE SMOOTH",
"793 150 OFFCURVE",
"667 24 OFFCURVE",
"463 24 CURVE SMOOTH",
"259 24 OFFCURVE",
"133 150 OFFCURVE",
"133 396 CURVE SMOOTH",
"133 460 LINE",
"87 460 LINE",
"87 392 LINE SMOOTH",
"87 114 OFFCURVE",
"236 -16 OFFCURVE",
"464 -16 CURVE SMOOTH",
"692 -16 OFFCURVE",
"841 114 OFFCURVE",
"841 400 CURVE SMOOTH",
"841 1440 LINE"
);
}
);
width = 1187;
},
{
hints = (
{
origin = "{0, 17}";
scale = "{0.96, 1}";
type = Corner;
name = _corner.Serif;
},
{
origin = "{0, 0}";
scale = "{-1.36, 1}";
type = Corner;
name = _corner.Serif;
options = 1;
}
);
layerId = "1E61A082-F045-49A7-AB52-DD1B03FD9B54";
paths = (
{
closed = 1;
nodes = (
"748 1440 LINE",
"748 396 LINE SMOOTH",
"748 150 OFFCURVE",
"622 24 OFFCURVE",
"418 24 CURVE SMOOTH",
"214 24 OFFCURVE",
"88 150 OFFCURVE",
"88 396 CURVE SMOOTH",
"88 560 LINE",
"44 560 LINE",
"44 392 LINE SMOOTH",
"44 114 OFFCURVE",
"192 -16 OFFCURVE",
"420 -16 CURVE SMOOTH",
"648 -16 OFFCURVE",
"796 114 OFFCURVE",
"796 400 CURVE SMOOTH",
"796 1440 LINE"
);
}
);
width = 1105;
},
{
hints = (
{
origin = "{0, 17}";
scale = "{0.96, 0.98}";
type = Corner;
name = _corner.Serif;
},
{
origin = "{0, 0}";
scale = "{-1.36, 0.98}";
type = Corner;
name = _corner.Serif;
options = 1;
}
);
layerId = "642E5713-E15A-4A7E-A28E-9A6B75A6585C";
paths = (
{
closed = 1;
nodes = (
"636 1440 LINE",
"636 436 LINE SMOOTH",
"636 278 OFFCURVE",
"573 184 OFFCURVE",
"424 184 CURVE SMOOTH",
"275 184 OFFCURVE",
"204 278 OFFCURVE",
"204 430 CURVE SMOOTH",
"204 558 LINE",
"36 558 LINE",
"36 424 LINE SMOOTH",
"36 135 OFFCURVE",
"190 -20 OFFCURVE",
"477 -20 CURVE SMOOTH",
"768 -20 OFFCURVE",
"926 138 OFFCURVE",
"926 424 CURVE SMOOTH",
"926 1440 LINE"
);
}
);
width = 1150;
},
{
hints = (
{
origin = "{0, 0}";
scale = "{-1.16, 0.98}";
type = Corner;
name = _corner.Serif;
options = 1;
},
{
origin = "{0, 17}";
scale = "{0.96, 0.98}";
type = Corner;
name = _corner.Serif;
}
);
layerId = "AF891779-7DE6-4679-9CA2-17B922C1DF84";
paths = (
{
closed = 1;
nodes = (
"701 1440 LINE",
"701 437 LINE SMOOTH",
"701 287 OFFCURVE",
"641 198 OFFCURVE",
"498 198 CURVE SMOOTH",
"354 198 OFFCURVE",
"285 287 OFFCURVE",
"285 431 CURVE SMOOTH",
"285 480 LINE",
"91 480 LINE",
"91 424 LINE SMOOTH",
"91 135 OFFCURVE",
"247 -20 OFFCURVE",
"537 -20 CURVE SMOOTH",
"831 -20 OFFCURVE",
"991 138 OFFCURVE",
"991 424 CURVE SMOOTH",
"991 1440 LINE"
);
}
);
width = 1238;
}
);
leftKerningGroup = J;
rightKerningGroup = U;
rightMetricsKey = U;
unicode = 004A;
},
{
glyphname = K;
lastChange = "2020-08-19 21:17:47 +0000";
layers = (
{
hints = (
{
origin = "{0, 0}";
scale = "{-0.96, 1}";
type = Corner;
name = _corner.Serif;
},
{
origin = "{0, 1}";
type = Corner;
name = _corner.Serif;
options = 1;
},
{
origin = "{0, 2}";
scale = "{-1, 1}";
type = Corner;
name = _corner.Serif;
},
{
origin = "{0, 3}";
scale = "{0.96, 1}";
type = Corner;
name = _corner.Serif;
},
{
origin = "{1, 0}";
scale = "{-1.16, 1}";
type = Corner;
name = _corner.Serif;
options = 1;
},
{
origin = "{1, 3}";
scale = "{0.46, 1}";
type = Corner;
name = _corner.Serif;
},
{
origin = "{2, 2}";
scale = "{1.2, 1}";
type = Corner;
name = _corner.Serif;
},
{
origin = "{2, 3}";
scale = "{-0.5, 1}";
type = Corner;
name = _corner.Serif;
options = 1;
}
);
layerId = "CA54B7DC-FBBB-40FE-ACF3-AABDD76D6A7B";
paths = (
{
closed = 1;
nodes = (
"354 1440 LINE",
"354 0 LINE",
"402 0 LINE",
"402 1440 LINE"
);
},
{
closed = 1;
nodes = (
"1305 1440 LINE",
"368 586 LINE",
"393 552 LINE",
"1370 1440 LINE"
);
},
{
closed = 1;
nodes = (
"661 816 LINE",
"628 784 LINE",
"1355 0 LINE",
"1420 0 LINE"
);
}
);
width = 1643;
},
{
hints = (
{
origin = "{0, 0}";
scale = "{-0.96, 1}";
type = Corner;
name = _corner.Serif;
},
{
origin = "{0, 1}";
type = Corner;
name = _corner.Serif;
options = 1;
},
{
origin = "{0, 2}";
scale = "{-1, 1}";
type = Corner;
name = _corner.Serif;
},
{
origin = "{0, 3}";
scale = "{0.96, 1}";
type = Corner;
name = _corner.Serif;
},
{
origin = "{1, 0}";
scale = "{-1.16, 1}";
type = Corner;
name = _corner.Serif;
options = 1;
},
{
origin = "{1, 3}";
scale = "{0.46, 1}";
type = Corner;
name = _corner.Serif;
},
{
origin = "{2, 2}";
scale = "{1.2, 1}";
type = Corner;
name = _corner.Serif;
},
{
origin = "{2, 3}";
scale = "{-0.5, 1}";
type = Corner;
name = _corner.Serif;
options = 1;
}
);
layerId = "1E61A082-F045-49A7-AB52-DD1B03FD9B54";
paths = (
{
closed = 1;
nodes = (
"318 1440 LINE",
"318 0 LINE",
"366 0 LINE",
"366 1440 LINE"
);
},
{
closed = 1;
nodes = (
"1271 1440 LINE",
"332 585 LINE",
"357 554 LINE",
"1334 1440 LINE"
);
},
{
closed = 1;
nodes = (
"625 816 LINE",
"592 784 LINE",
"1319 0 LINE",
"1384 0 LINE"
);
}
);
width = 1565;
},
{
hints = (
{
origin = "{0, 0}";
scale = "{-0.96, 0.98}";
type = Corner;
name = _corner.Serif;
},
{
origin = "{0, 1}";
type = Corner;
name = _corner.Serif;
options = 1;
},
{
origin = "{0, 2}";
scale = "{-1, 1}";
type = Corner;
name = _corner.Serif;
},
{
origin = "{0, 3}";
scale = "{0.96, 0.98}";
type = Corner;
name = _corner.Serif;
options = 1;
},
{
origin = "{1, 0}";
scale = "{-2.1, 0.98}";
type = Corner;
name = _corner.Serif;
options = 1;
},
{
origin = "{1, 3}";
scale = "{0.02, 0.98}";
type = Corner;
name = _corner.Serif;
},
{
origin = "{2, 2}";
scale = "{1.56, 1}";
type = Corner;
name = _corner.Serif;
},
{
origin = "{2, 3}";
scale = "{-0.02, 1}";
type = Corner;
name = _corner.Serif;
options = 1;
}
);
layerId = "642E5713-E15A-4A7E-A28E-9A6B75A6585C";
rightMetricsKey = "=X-10";
paths = (
{
closed = 1;
nodes = (
"268 1440 LINE",
"268 0 LINE",
"558 0 LINE",
"558 1440 LINE"
);
},
{
closed = 1;
nodes = (
"1276 1440 LINE",
"397 591 LINE",
"501 464 LINE",
"1518 1440 LINE"
);
},
{
closed = 1;
nodes = (
"832 892 LINE",
"629 714 LINE",
"1166 0 LINE",
"1536 0 LINE"
);
}
);
width = 1580;
},
{
hints = (
{
origin = "{0, 0}";
scale = "{-0.96, 0.98}";
type = Corner;
name = _corner.Serif;
},
{
origin = "{0, 1}";
type = Corner;
name = _corner.Serif;
options = 1;
},
{
origin = "{0, 2}";
scale = "{-1, 1}";
type = Corner;
name = _corner.Serif;
},
{
origin = "{0, 3}";
scale = "{0.96, 0.98}";
type = Corner;
name = _corner.Serif;
options = 1;
},
{
origin = "{1, 0}";
scale = "{-2.1, 0.98}";
type = Corner;
name = _corner.Serif;
options = 1;
},
{
origin = "{1, 3}";
scale = "{0.02, 0.98}";
type = Corner;
name = _corner.Serif;
},
{
origin = "{2, 2}";
scale = "{1.56, 1}";
type = Corner;
name = _corner.Serif;
},
{
origin = "{2, 3}";
scale = "{-0.02, 1}";
type = Corner;
name = _corner.Serif;
options = 1;
}
);
layerId = "AF891779-7DE6-4679-9CA2-17B922C1DF84";
rightMetricsKey = "=X-10";
paths = (
{
closed = 1;
nodes = (
"288 1440 LINE",
"288 0 LINE",
"578 0 LINE",
"578 1440 LINE"
);
},
{
closed = 1;
nodes = (
"1271 1440 LINE",
"407 592 LINE",
"531 458 LINE",
"1540 1440 LINE"
);
},
{
closed = 1;
nodes = (
"852 892 LINE",
"649 714 LINE",
"1186 0 LINE",
"1556 0 LINE"
);
}
);
width = 1626;
}
);
leftKerningGroup = I;
leftMetricsKey = I;
rightKerningGroup = K;
rightMetricsKey = X;
unicode = 004B;
},
{
glyphname = L;
lastChange = "2020-08-20 00:38:38 +0000";
layers = (
{
hints = (
{
origin = "{2, 1}";
scale = "{-0.96, 1}";
type = Corner;
name = _corner.Serif;
},
{
origin = "{2, 2}";
type = Corner;
name = _corner.Serif;
options = 1;
},
{
origin = "{2, 0}";
scale = "{1.16, 1}";
type = Corner;
name = _corner.Serif;
}
);
layerId = "CA54B7DC-FBBB-40FE-ACF3-AABDD76D6A7B";
paths = (
{
closed = 1;
nodes = (
"1264 40 LINE",
"402 40 LINE",
"402 0 LINE",
"1264 0 LINE"
);
},
{
closed = 1;
nodes = (
"1264 40 LINE",
"1264 460 LINE",
"1220 460 LINE",
"1220 180 LINE SMOOTH",
"1220 68 OFFCURVE",
"1212 40 OFFCURVE",
"1100 40 CURVE"
);
},
{
closed = 1;
nodes = (
"402 1440 LINE",
"354 1440 LINE",
"354 0 LINE",
"402 0 LINE"
);
}
);
width = 1372;
},
{
hints = (
{
origin = "{2, 1}";
scale = "{-0.96, 1}";
type = Corner;
name = _corner.Serif;
},
{
origin = "{2, 2}";
type = Corner;
name = _corner.Serif;
options = 1;
},
{
origin = "{2, 0}";
scale = "{1.36, 1}";
type = Corner;
name = _corner.Serif;
}
);
layerId = "1E61A082-F045-49A7-AB52-DD1B03FD9B54";
paths = (
{
closed = 1;
nodes = (
"1228 40 LINE",
"366 40 LINE",
"366 0 LINE",
"1228 0 LINE"
);
},
{
closed = 1;
nodes = (
"1228 40 LINE",
"1228 560 LINE",
"1184 560 LINE",
"1184 180 LINE SMOOTH",
"1184 68 OFFCURVE",
"1176 40 OFFCURVE",
"1064 40 CURVE"
);
},
{
closed = 1;
nodes = (
"366 1440 LINE",
"318 1440 LINE",
"318 0 LINE",
"366 0 LINE"
);
}
);
width = 1299;
},
{
hints = (
{
origin = "{2, 1}";
scale = "{-0.96, 0.98}";
type = Corner;
name = _corner.Serif;
},
{
origin = "{2, 2}";
type = Corner;
name = _corner.Serif;
options = 1;
},
{
origin = "{2, 0}";
scale = "{1.36, 0.98}";
type = Corner;
name = _corner.Serif;
}
);
layerId = "642E5713-E15A-4A7E-A28E-9A6B75A6585C";
paths = (
{
closed = 1;
nodes = (
"1294 158 LINE",
"558 158 LINE",
"558 0 LINE",
"1294 0 LINE"
);
},
{
closed = 1;
nodes = (
"1294 158 LINE",
"1294 558 LINE",
"1126 558 LINE",
"1126 338 LINE SMOOTH",
"1126 206 OFFCURVE",
"1098 158 OFFCURVE",
"966 158 CURVE"
);
},
{
closed = 1;
nodes = (
"558 1440 LINE",
"268 1440 LINE",
"268 0 LINE",
"558 0 LINE"
);
}
);
width = 1360;
},
{
hints = (
{
origin = "{2, 1}";
scale = "{-0.96, 0.98}";
type = Corner;
name = _corner.Serif;
},
{
origin = "{2, 2}";
type = Corner;
name = _corner.Serif;
options = 1;
},
{
origin = "{2, 0}";
scale = "{1.16, 0.98}";
type = Corner;
name = _corner.Serif;
}
);
layerId = "AF891779-7DE6-4679-9CA2-17B922C1DF84";
paths = (
{
closed = 1;
nodes = (
"1314 184 LINE",
"578 184 LINE",
"578 0 LINE",
"1314 0 LINE"
);
},
{
closed = 1;
nodes = (
"1314 184 LINE",
"1314 464 LINE",
"1124 464 LINE",
"1124 364 LINE SMOOTH",
"1124 232 OFFCURVE",
"1096 184 OFFCURVE",
"964 184 CURVE"
);
},
{
closed = 1;
nodes = (
"578 1440 LINE",
"288 1440 LINE",
"288 0 LINE",
"578 0 LINE"
);
}
);
width = 1398;
}
);
leftKerningGroup = I;
leftMetricsKey = I;
rightKerningGroup = L;
unicode = 004C;
},
{
glyphname = M;
lastChange = "2020-08-20 00:36:59 +0000";
layers = (
{
hints = (
{
origin = "{0, 2}";
scale = "{-0.96, 1}";
type = Corner;
name = _corner.Serif;
},
{
origin = "{0, 3}";
type = Corner;
name = _corner.Serif;
options = 1;
},
{
origin = "{0, 4}";
scale = "{-1, 1}";
type = Corner;
name = _corner.Serif;
},
{
origin = "{1, 2}";
type = Corner;
name = _corner.Serif;
},
{
origin = "{1, 3}";
scale = "{-1, 1}";
type = Corner;
name = _corner.Serif;
options = 1;
},
{
origin = "{1, 0}";
scale = "{0.96, 1}";
type = Corner;
name = _corner.Serif;
}
);
layerId = "CA54B7DC-FBBB-40FE-ACF3-AABDD76D6A7B";
paths = (
{
closed = 1;
nodes = (
"400 1356 LINE",
"400 1440 LINE",
"354 1440 LINE",
"354 0 LINE",
"400 0 LINE"
);
},
{
closed = 1;
nodes = (
"1648 1440 LINE",
"1600 1440 LINE",
"1600 0 LINE",
"1648 0 LINE"
);
},
{
closed = 1;
nodes = (
"980 0 LINE",
"1020 0 LINE",
"1600 1357 LINE",
"1600 1440 LINE",
"1586 1440 LINE",
"992 52 LINE",
"1010 52 LINE",
"416 1440 LINE",
"400 1440 LINE",
"400 1356 LINE"
);
}
);
width = 2002;
},
{
hints = (
{
origin = "{0, 2}";
scale = "{-0.96, 1}";
type = Corner;
name = _corner.Serif;
},
{
origin = "{0, 3}";
type = Corner;
name = _corner.Serif;
options = 1;
},
{
origin = "{0, 4}";
scale = "{-1, 1}";
type = Corner;
name = _corner.Serif;
},
{
origin = "{1, 0}";
scale = "{0.96, 1}";
type = Corner;
name = _corner.Serif;
},
{
origin = "{1, 2}";
type = Corner;
name = _corner.Serif;
},
{
origin = "{1, 3}";
scale = "{-1, 1}";
type = Corner;
name = _corner.Serif;
options = 1;
}
);
layerId = "1E61A082-F045-49A7-AB52-DD1B03FD9B54";
paths = (
{
closed = 1;
nodes = (
"362 1356 LINE",
"362 1440 LINE",
"318 1440 LINE",
"318 0 LINE",
"362 0 LINE"
);
},
{
closed = 1;
nodes = (
"1608 1440 LINE",
"1560 1440 LINE",
"1560 0 LINE",
"1608 0 LINE"
);
},
{
closed = 1;
nodes = (
"942 0 LINE",
"980 0 LINE",
"1560 1357 LINE",
"1562 1440 LINE",
"1548 1440 LINE",
"954 52 LINE",
"972 52 LINE",
"378 1440 LINE",
"362 1440 LINE",
"362 1356 LINE"
);
}
);
width = 1926;
},
{
hints = (
{
origin = "{0, 2}";
scale = "{-0.96, 0.98}";
type = Corner;
name = _corner.Serif;
},
{
origin = "{0, 3}";
type = Corner;
name = _corner.Serif;
options = 1;
},
{
origin = "{0, 4}";
scale = "{-1, 1}";
type = Corner;
name = _corner.Serif;
},
{
origin = "{1, 0}";
scale = "{0.96, 0.98}";
type = Corner;
name = _corner.Serif;
},
{
origin = "{1, 2}";
type = Corner;
name = _corner.Serif;
},
{
origin = "{1, 3}";
scale = "{-1, 1}";
type = Corner;
name = _corner.Serif;
options = 1;
}
);
layerId = "642E5713-E15A-4A7E-A28E-9A6B75A6585C";
paths = (
{
closed = 1;
nodes = (
"436 1056 LINE",
"436 1440 LINE",
"268 1440 LINE",
"268 0 LINE",
"436 0 LINE"
);
},
{
closed = 1;
nodes = (
"1836 1440 LINE",
"1548 1440 LINE",
"1548 0 LINE",
"1836 0 LINE"
);
},
{
closed = 1;
nodes = (
"904 0 LINE",
"1094 0 LINE",
"1548 1067 LINE",
"1548 1440 LINE",
"1531 1440 LINE",
"1035 276 LINE",
"1094 276 LINE",
"581 1440 LINE",
"436 1440 LINE",
"436 1056 LINE"
);
}
);
width = 2104;
},
{
hints = (
{
origin = "{0, 2}";
scale = "{-0.96, 0.98}";
type = Corner;
name = _corner.Serif;
},
{
origin = "{0, 3}";
type = Corner;
name = _corner.Serif;
options = 1;
},
{
origin = "{0, 4}";
scale = "{-1, 1}";
type = Corner;
name = _corner.Serif;
},
{
origin = "{1, 0}";
scale = "{0.96, 0.98}";
type = Corner;
name = _corner.Serif;
},
{
origin = "{1, 2}";
type = Corner;
name = _corner.Serif;
},
{
origin = "{1, 3}";
scale = "{-1, 1}";
type = Corner;
name = _corner.Serif;
options = 1;
}
);
layerId = "AF891779-7DE6-4679-9CA2-17B922C1DF84";
paths = (
{
closed = 1;
nodes = (
"482 1056 LINE",
"482 1440 LINE",
"288 1440 LINE",
"288 0 LINE",
"482 0 LINE"
);
},
{
closed = 1;
nodes = (
"1878 1440 LINE",
"1588 1440 LINE",
"1588 0 LINE",
"1878 0 LINE"
);
},
{
closed = 1;
nodes = (
"922 0 LINE",
"1148 0 LINE",
"1588 1056 LINE",
"1588 1440 LINE",
"1542 1440 LINE",
"1079 328 LINE",
"1097 328 LINE",
"634 1440 LINE",
"482 1440 LINE",
"482 1056 LINE"
);
}
);
width = 2166;
}
);
leftKerningGroup = I;
leftMetricsKey = I;
rightKerningGroup = I;
rightMetricsKey = I;
unicode = 004D;
},
{
glyphname = N;
lastChange = "2020-08-20 00:32:05 +0000";
layers = (
{
hints = (
{
origin = "{0, 2}";
scale = "{-0.96, 1}";
type = Corner;
name = _corner.Serif;
},
{
origin = "{0, 3}";
type = Corner;
name = _corner.Serif;
options = 1;
},
{
origin = "{0, 4}";
scale = "{-1, 1}";
type = Corner;
name = _corner.Serif;
},
{
origin = "{2, 0}";
scale = "{0.96, 1}";
type = Corner;
name = _corner.Serif;
},
{
origin = "{2, 1}";
scale = "{-0.96, 1}";
type = Corner;
name = _corner.Serif;
options = 1;
}
);
layerId = "CA54B7DC-FBBB-40FE-ACF3-AABDD76D6A7B";
paths = (
{
closed = 1;
nodes = (
"400 1361 LINE",
"404 1440 LINE",
"354 1440 LINE",
"354 0 LINE",
"400 0 LINE"
);
},
{
closed = 1;
nodes = (
"404 1440 LINE",
"400 1361 LINE",
"1324 0 LINE",
"1328 79 LINE"
);
},
{
closed = 1;
nodes = (
"1374 1440 LINE",
"1328 1440 LINE",
"1328 79 LINE",
"1324 0 LINE",
"1374 0 LINE"
);
}
);
width = 1720;
},
{
hints = (
{
origin = "{0, 2}";
scale = "{-0.96, 1}";
type = Corner;
name = _corner.Serif;
},
{
origin = "{0, 3}";
type = Corner;
name = _corner.Serif;
options = 1;
},
{
origin = "{0, 4}";
scale = "{-1, 1}";
type = Corner;
name = _corner.Serif;
},
{
origin = "{2, 0}";
scale = "{0.96, 1}";
type = Corner;
name = _corner.Serif;
},
{
origin = "{2, 1}";
scale = "{-0.96, 1}";
type = Corner;
name = _corner.Serif;
options = 1;
}
);
layerId = "1E61A082-F045-49A7-AB52-DD1B03FD9B54";
paths = (
{
closed = 1;
nodes = (
"362 1361 LINE",
"366 1440 LINE",
"318 1440 LINE",
"318 0 LINE",
"362 0 LINE"
);
},
{
closed = 1;
nodes = (
"366 1440 LINE",
"362 1361 LINE",
"1290 0 LINE",
"1294 79 LINE"
);
},
{
closed = 1;
nodes = (
"1338 1440 LINE",
"1294 1440 LINE",
"1294 79 LINE",
"1290 0 LINE",
"1338 0 LINE"
);
}
);
width = 1647;
},
{
hints = (
{
origin = "{0, 3}";
type = Corner;
name = _corner.Serif;
},
{
origin = "{0, 4}";
scale = "{-1.1, 1}";
type = Corner;
name = _corner.Serif;
options = 1;
},
{
origin = "{0, 2}";
scale = "{-0.96, 0.98}";
type = Corner;
name = _corner.Serif;
},
{
origin = "{2, 0}";
scale = "{0.96, 0.98}";
type = Corner;
name = _corner.Serif;
},
{
origin = "{2, 1}";
scale = "{-1.06, 0.98}";
type = Corner;
name = _corner.Serif;
options = 1;
}
);
layerId = "642E5713-E15A-4A7E-A28E-9A6B75A6585C";
rightMetricsKey = "=I-32";
paths = (
{
closed = 1;
nodes = (
"436 1034 LINE",
"483 1440 LINE",
"268 1440 LINE",
"268 0 LINE",
"436 0 LINE"
);
},
{
closed = 1;
nodes = (
"483 1440 LINE",
"436 1034 LINE",
"1246 0 LINE",
"1247 466 LINE"
);
},
{
closed = 1;
nodes = (
"1415 1440 LINE",
"1247 1440 LINE",
"1247 466 LINE",
"1246 0 LINE",
"1415 0 LINE"
);
}
);
width = 1643;
},
{
hints = (
{
origin = "{0, 2}";
scale = "{-0.96, 0.98}";
type = Corner;
name = _corner.Serif;
},
{
origin = "{0, 3}";
type = Corner;
name = _corner.Serif;
options = 1;
},
{
origin = "{0, 4}";
scale = "{-1, 1}";
type = Corner;
name = _corner.Serif;
},
{
origin = "{2, 0}";
scale = "{0.96, 0.98}";
type = Corner;
name = _corner.Serif;
},
{
origin = "{2, 1}";
scale = "{-0.96, 0.98}";
type = Corner;
name = _corner.Serif;
options = 1;
}
);
layerId = "AF891779-7DE6-4679-9CA2-17B922C1DF84";
rightMetricsKey = "=I-32";
paths = (
{
closed = 1;
nodes = (
"482 1036 LINE",
"536 1440 LINE",
"288 1440 LINE",
"288 0 LINE",
"482 0 LINE"
);
},
{
closed = 1;
nodes = (
"536 1440 LINE",
"482 1036 LINE",
"1250 0 LINE",
"1252 474 LINE"
);
},
{
closed = 1;
nodes = (
"1446 1440 LINE",
"1252 1440 LINE",
"1252 474 LINE",
"1250 0 LINE",
"1446 0 LINE"
);
}
);
width = 1695;
}
);
leftKerningGroup = I;
leftMetricsKey = I;
rightKerningGroup = N;
rightMetricsKey = I;
unicode = 004E;
},
{
glyphname = O;
lastChange = "2020-08-20 00:29:39 +0000";
layers = (
{
layerId = "CA54B7DC-FBBB-40FE-ACF3-AABDD76D6A7B";
paths = (
{
closed = 1;
nodes = (
"1255 -20 OFFCURVE",
"1559 252 OFFCURVE",
"1559 720 CURVE SMOOTH",
"1559 1188 OFFCURVE",
"1255 1460 OFFCURVE",
"849 1460 CURVE SMOOTH",
"443 1460 OFFCURVE",
"139 1188 OFFCURVE",
"139 720 CURVE SMOOTH",
"139 252 OFFCURVE",
"443 -20 OFFCURVE",
"849 -20 CURVE SMOOTH"
);
},
{
closed = 1;
nodes = (
"455 20 OFFCURVE",
"187 296 OFFCURVE",
"187 720 CURVE SMOOTH",
"187 1144 OFFCURVE",
"455 1420 OFFCURVE",
"849 1420 CURVE SMOOTH",
"1243 1420 OFFCURVE",
"1511 1144 OFFCURVE",
"1511 720 CURVE SMOOTH",
"1511 296 OFFCURVE",
"1243 20 OFFCURVE",
"849 20 CURVE SMOOTH"
);
}
);
width = 1698;
},
{
layerId = "1E61A082-F045-49A7-AB52-DD1B03FD9B54";
paths = (
{
closed = 1;
nodes = (
"1202 -20 OFFCURVE",
"1506 252 OFFCURVE",
"1506 720 CURVE SMOOTH",
"1506 1188 OFFCURVE",
"1202 1460 OFFCURVE",
"796 1460 CURVE SMOOTH",
"390 1460 OFFCURVE",
"86 1188 OFFCURVE",
"86 720 CURVE SMOOTH",
"86 252 OFFCURVE",
"390 -20 OFFCURVE",
"796 -20 CURVE SMOOTH"
);
},
{
closed = 1;
nodes = (
"402 20 OFFCURVE",
"134 296 OFFCURVE",
"134 720 CURVE SMOOTH",
"134 1144 OFFCURVE",
"402 1420 OFFCURVE",
"796 1420 CURVE SMOOTH",
"1190 1420 OFFCURVE",
"1458 1144 OFFCURVE",
"1458 720 CURVE SMOOTH",
"1458 296 OFFCURVE",
"1190 20 OFFCURVE",
"796 20 CURVE SMOOTH"
);
}
);
width = 1592;
},
{
layerId = "642E5713-E15A-4A7E-A28E-9A6B75A6585C";
paths = (
{
closed = 1;
nodes = (
"1309 -20 OFFCURVE",
"1642 252 OFFCURVE",
"1642 720 CURVE SMOOTH",
"1642 1188 OFFCURVE",
"1309 1460 OFFCURVE",
"854 1460 CURVE SMOOTH",
"399 1460 OFFCURVE",
"66 1188 OFFCURVE",
"66 720 CURVE SMOOTH",
"66 252 OFFCURVE",
"399 -20 OFFCURVE",
"854 -20 CURVE SMOOTH"
);
},
{
closed = 1;
nodes = (
"562 138 OFFCURVE",
"376 367 OFFCURVE",
"376 720 CURVE SMOOTH",
"376 1073 OFFCURVE",
"562 1302 OFFCURVE",
"854 1302 CURVE SMOOTH",
"1146 1302 OFFCURVE",
"1332 1073 OFFCURVE",
"1332 720 CURVE SMOOTH",
"1332 367 OFFCURVE",
"1146 138 OFFCURVE",
"854 138 CURVE SMOOTH"
);
}
);
width = 1708;
},
{
layerId = "AF891779-7DE6-4679-9CA2-17B922C1DF84";
paths = (
{
closed = 1;
nodes = (
"1347 -20 OFFCURVE",
"1682 252 OFFCURVE",
"1682 720 CURVE SMOOTH",
"1682 1188 OFFCURVE",
"1347 1460 OFFCURVE",
"890 1460 CURVE SMOOTH",
"433 1460 OFFCURVE",
"98 1188 OFFCURVE",
"98 720 CURVE SMOOTH",
"98 252 OFFCURVE",
"433 -20 OFFCURVE",
"890 -20 CURVE SMOOTH"
);
},
{
closed = 1;
nodes = (
"597 162 OFFCURVE",
"408 382 OFFCURVE",
"408 720 CURVE SMOOTH",
"408 1058 OFFCURVE",
"597 1278 OFFCURVE",
"890 1278 CURVE SMOOTH",
"1183 1278 OFFCURVE",
"1372 1058 OFFCURVE",
"1372 720 CURVE SMOOTH",
"1372 382 OFFCURVE",
"1183 162 OFFCURVE",
"890 162 CURVE SMOOTH"
);
}
);
width = 1780;
}
);
leftKerningGroup = O;
rightKerningGroup = O;
unicode = 004F;
},
{
glyphname = P;
lastChange = "2020-08-19 21:20:16 +0000";
layers = (
{
hints = (
{
origin = "{1, 0}";
type = Corner;
name = _corner.Serif;
options = 1;
},
{
origin = "{1, 1}";
scale = "{-1.2, 1}";
type = Corner;
name = _corner.Serif;
},
{
origin = "{1, 3}";
scale = "{-0.96, 1}";
type = Corner;
name = _corner.Serif;
}
);
layerId = "CA54B7DC-FBBB-40FE-ACF3-AABDD76D6A7B";
paths = (
{
closed = 1;
nodes = (
"402 1400 LINE",
"872 1400 LINE SMOOTH",
"1132 1400 OFFCURVE",
"1296 1284 OFFCURVE",
"1296 1056 CURVE SMOOTH",
"1296 828 OFFCURVE",
"1132 712 OFFCURVE",
"872 712 CURVE SMOOTH",
"402 712 LINE",
"402 672 LINE",
"884 672 LINE SMOOTH",
"1160 672 OFFCURVE",
"1344 802 OFFCURVE",
"1344 1056 CURVE SMOOTH",
"1344 1310 OFFCURVE",
"1160 1440 OFFCURVE",
"884 1440 CURVE SMOOTH",
"402 1440 LINE"
);
},
{
closed = 1;
nodes = (
"354 0 LINE",
"402 0 LINE",
"402 1440 LINE",
"354 1440 LINE"
);
}
);
width = 1412;
},
{
hints = (
{
origin = "{1, 0}";
type = Corner;
name = _corner.Serif;
options = 1;
},
{
origin = "{1, 1}";
scale = "{-1.4, 1}";
type = Corner;
name = _corner.Serif;
},
{
origin = "{1, 3}";
scale = "{-0.96, 1}";
type = Corner;
name = _corner.Serif;
}
);
layerId = "1E61A082-F045-49A7-AB52-DD1B03FD9B54";
paths = (
{
closed = 1;
nodes = (
"366 1400 LINE",
"836 1400 LINE SMOOTH",
"1096 1400 OFFCURVE",
"1260 1284 OFFCURVE",
"1260 1056 CURVE SMOOTH",
"1260 828 OFFCURVE",
"1096 712 OFFCURVE",
"836 712 CURVE SMOOTH",
"366 712 LINE",
"366 672 LINE",
"848 672 LINE SMOOTH",
"1124 672 OFFCURVE",
"1308 802 OFFCURVE",
"1308 1056 CURVE SMOOTH",
"1308 1310 OFFCURVE",
"1124 1440 OFFCURVE",
"848 1440 CURVE SMOOTH",
"366 1440 LINE"
);
},
{
closed = 1;
nodes = (
"318 0 LINE",
"366 0 LINE",
"366 1440 LINE",
"318 1440 LINE"
);
}
);
width = 1361;
},
{
hints = (
{
origin = "{1, 0}";
type = Corner;
name = _corner.Serif;
options = 1;
},
{
origin = "{1, 1}";
scale = "{-1.4, 1}";
type = Corner;
name = _corner.Serif;
},
{
origin = "{1, 3}";
scale = "{-0.96, 0.98}";
type = Corner;
name = _corner.Serif;
}
);
layerId = "642E5713-E15A-4A7E-A28E-9A6B75A6585C";
paths = (
{
closed = 1;
nodes = (
"558 1284 LINE",
"848 1284 LINE SMOOTH",
"1022 1284 OFFCURVE",
"1130 1199 OFFCURVE",
"1130 1032 CURVE SMOOTH",
"1130 865 OFFCURVE",
"1022 780 OFFCURVE",
"848 780 CURVE SMOOTH",
"558 780 LINE",
"558 624 LINE",
"924 624 LINE SMOOTH",
"1227 624 OFFCURVE",
"1428 762 OFFCURVE",
"1428 1032 CURVE SMOOTH",
"1428 1302 OFFCURVE",
"1227 1440 OFFCURVE",
"924 1440 CURVE SMOOTH",
"558 1440 LINE"
);
},
{
closed = 1;
nodes = (
"268 0 LINE",
"558 0 LINE",
"558 1440 LINE",
"268 1440 LINE"
);
}
);
width = 1469;
},
{
hints = (
{
origin = "{1, 0}";
type = Corner;
name = _corner.Serif;
options = 1;
},
{
origin = "{1, 1}";
scale = "{-1.2, 1}";
type = Corner;
name = _corner.Serif;
},
{
origin = "{1, 3}";
scale = "{-0.96, 0.98}";
type = Corner;
name = _corner.Serif;
}
);
layerId = "AF891779-7DE6-4679-9CA2-17B922C1DF84";
paths = (
{
closed = 1;
nodes = (
"578 1260 LINE",
"882 1260 LINE SMOOTH",
"1047 1260 OFFCURVE",
"1150 1180 OFFCURVE",
"1150 1026 CURVE SMOOTH",
"1150 872 OFFCURVE",
"1047 792 OFFCURVE",
"882 792 CURVE SMOOTH",
"578 792 LINE",
"578 612 LINE",
"938 612 LINE SMOOTH",
"1244 612 OFFCURVE",
"1448 752 OFFCURVE",
"1448 1026 CURVE SMOOTH",
"1448 1300 OFFCURVE",
"1244 1440 OFFCURVE",
"938 1440 CURVE SMOOTH",
"578 1440 LINE"
);
},
{
closed = 1;
nodes = (
"288 0 LINE",
"578 0 LINE",
"578 1440 LINE",
"288 1440 LINE"
);
}
);
width = 1497;
}
);
leftKerningGroup = I;
leftMetricsKey = I;
rightKerningGroup = P;
unicode = 0050;
},
{
glyphname = Q;
lastChange = "2020-08-20 00:41:31 +0000";
layers = (
{
layerId = "CA54B7DC-FBBB-40FE-ACF3-AABDD76D6A7B";
paths = (
{
closed = 1;
nodes = (
"1095 0 LINE",
"1095 196 LINE SMOOTH",
"1095 345 OFFCURVE",
"1017 420 OFFCURVE",
"903 420 CURVE SMOOTH",
"789 420 OFFCURVE",
"707 345 OFFCURVE",
"707 196 CURVE SMOOTH",
"707 0 LINE",
"751 0 LINE",
"751 196 LINE SMOOTH",
"751 319 OFFCURVE",
"805 380 OFFCURVE",
"901 380 CURVE SMOOTH",
"997 380 OFFCURVE",
"1051 319 OFFCURVE",
"1051 196 CURVE SMOOTH",
"1051 0 LINE"
);
},
{
closed = 1;
nodes = (
"1395 -116 LINE SMOOTH",
"1395 -239 OFFCURVE",
"1341 -300 OFFCURVE",
"1245 -300 CURVE SMOOTH",
"1149 -300 OFFCURVE",
"1095 -239 OFFCURVE",
"1095 -116 CURVE SMOOTH",
"1095 0 LINE",
"1051 0 LINE",
"1051 -116 LINE SMOOTH",
"1051 -265 OFFCURVE",
"1133 -340 OFFCURVE",
"1247 -340 CURVE SMOOTH",
"1361 -340 OFFCURVE",
"1439 -265 OFFCURVE",
"1439 -116 CURVE SMOOTH",
"1439 0 LINE",
"1395 0 LINE"
);
},
{
closed = 1;
nodes = (
"1255 -20 OFFCURVE",
"1559 252 OFFCURVE",
"1559 720 CURVE SMOOTH",
"1559 1188 OFFCURVE",
"1255 1460 OFFCURVE",
"849 1460 CURVE SMOOTH",
"443 1460 OFFCURVE",
"139 1188 OFFCURVE",
"139 720 CURVE SMOOTH",
"139 252 OFFCURVE",
"443 -20 OFFCURVE",
"849 -20 CURVE SMOOTH"
);
},
{
closed = 1;
nodes = (
"455 20 OFFCURVE",
"187 296 OFFCURVE",
"187 720 CURVE SMOOTH",
"187 1144 OFFCURVE",
"455 1420 OFFCURVE",
"849 1420 CURVE SMOOTH",
"1243 1420 OFFCURVE",
"1511 1144 OFFCURVE",
"1511 720 CURVE SMOOTH",
"1511 296 OFFCURVE",
"1243 20 OFFCURVE",
"849 20 CURVE SMOOTH"
);
}
);
width = 1698;
},
{
layerId = "1E61A082-F045-49A7-AB52-DD1B03FD9B54";
paths = (
{
closed = 1;
nodes = (
"1042 0 LINE",
"1042 196 LINE SMOOTH",
"1042 345 OFFCURVE",
"964 420 OFFCURVE",
"850 420 CURVE SMOOTH",
"736 420 OFFCURVE",
"654 345 OFFCURVE",
"654 196 CURVE SMOOTH",
"654 0 LINE",
"698 0 LINE",
"698 196 LINE SMOOTH",
"698 319 OFFCURVE",
"752 380 OFFCURVE",
"848 380 CURVE SMOOTH",
"944 380 OFFCURVE",
"998 319 OFFCURVE",
"998 196 CURVE SMOOTH",
"998 0 LINE"
);
},
{
closed = 1;
nodes = (
"1342 -116 LINE SMOOTH",
"1342 -239 OFFCURVE",
"1288 -300 OFFCURVE",
"1192 -300 CURVE SMOOTH",
"1096 -300 OFFCURVE",
"1042 -239 OFFCURVE",
"1042 -116 CURVE SMOOTH",
"1042 0 LINE",
"998 0 LINE",
"998 -116 LINE SMOOTH",
"998 -265 OFFCURVE",
"1080 -340 OFFCURVE",
"1194 -340 CURVE SMOOTH",
"1308 -340 OFFCURVE",
"1386 -265 OFFCURVE",
"1386 -116 CURVE SMOOTH",
"1386 0 LINE",
"1342 0 LINE"
);
},
{
closed = 1;
nodes = (
"1202 -20 OFFCURVE",
"1506 252 OFFCURVE",
"1506 720 CURVE SMOOTH",
"1506 1188 OFFCURVE",
"1202 1460 OFFCURVE",
"796 1460 CURVE SMOOTH",
"390 1460 OFFCURVE",
"86 1188 OFFCURVE",
"86 720 CURVE SMOOTH",
"86 252 OFFCURVE",
"390 -20 OFFCURVE",
"796 -20 CURVE SMOOTH"
);
},
{
closed = 1;
nodes = (
"402 20 OFFCURVE",
"134 296 OFFCURVE",
"134 720 CURVE SMOOTH",
"134 1144 OFFCURVE",
"402 1420 OFFCURVE",
"796 1420 CURVE SMOOTH",
"1190 1420 OFFCURVE",
"1458 1144 OFFCURVE",
"1458 720 CURVE SMOOTH",
"1458 296 OFFCURVE",
"1190 20 OFFCURVE",
"796 20 CURVE SMOOTH"
);
}
);
width = 1592;
},
{
layerId = "642E5713-E15A-4A7E-A28E-9A6B75A6585C";
paths = (
{
closed = 1;
nodes = (
"1152 0 LINE",
"1152 282 LINE SMOOTH",
"1152 466 OFFCURVE",
"1041 560 OFFCURVE",
"887 560 CURVE SMOOTH",
"733 560 OFFCURVE",
"622 466 OFFCURVE",
"622 282 CURVE SMOOTH",
"622 44 LINE",
"784 44 LINE",
"784 306 LINE SMOOTH",
"784 355 OFFCURVE",
"808 382 OFFCURVE",
"850 382 CURVE SMOOTH",
"892 382 OFFCURVE",
"916 355 OFFCURVE",
"916 306 CURVE SMOOTH",
"916 0 LINE"
);
},
{
closed = 1;
nodes = (
"1284 -80 LINE SMOOTH",
"1284 -129 OFFCURVE",
"1260 -156 OFFCURVE",
"1218 -156 CURVE SMOOTH",
"1176 -156 OFFCURVE",
"1152 -129 OFFCURVE",
"1152 -80 CURVE SMOOTH",
"1152 0 LINE",
"916 0 LINE",
"916 -52 LINE SMOOTH",
"916 -236 OFFCURVE",
"1025 -330 OFFCURVE",
"1179 -330 CURVE SMOOTH",
"1333 -330 OFFCURVE",
"1442 -236 OFFCURVE",
"1442 -52 CURVE SMOOTH",
"1442 0 LINE",
"1284 0 LINE"
);
},
{
closed = 1;
nodes = (
"1309 -20 OFFCURVE",
"1642 252 OFFCURVE",
"1642 720 CURVE SMOOTH",
"1642 1188 OFFCURVE",
"1309 1460 OFFCURVE",
"854 1460 CURVE SMOOTH",
"399 1460 OFFCURVE",
"66 1188 OFFCURVE",
"66 720 CURVE SMOOTH",
"66 252 OFFCURVE",
"399 -20 OFFCURVE",
"854 -20 CURVE SMOOTH"
);
},
{
closed = 1;
nodes = (
"562 138 OFFCURVE",
"376 367 OFFCURVE",
"376 720 CURVE SMOOTH",
"376 1073 OFFCURVE",
"562 1302 OFFCURVE",
"854 1302 CURVE SMOOTH",
"1146 1302 OFFCURVE",
"1332 1073 OFFCURVE",
"1332 720 CURVE SMOOTH",
"1332 367 OFFCURVE",
"1146 138 OFFCURVE",
"854 138 CURVE SMOOTH"
);
}
);
width = 1708;
},
{
layerId = "AF891779-7DE6-4679-9CA2-17B922C1DF84";
paths = (
{
closed = 1;
nodes = (
"1188 0 LINE",
"1188 272 LINE SMOOTH",
"1188 456 OFFCURVE",
"1075 550 OFFCURVE",
"917 550 CURVE SMOOTH",
"759 550 OFFCURVE",
"646 456 OFFCURVE",
"646 272 CURVE SMOOTH",
"646 44 LINE",
"832 44 LINE",
"832 294 LINE SMOOTH",
"832 339 OFFCURVE",
"854 364 OFFCURVE",
"892 364 CURVE SMOOTH",
"930 364 OFFCURVE",
"952 339 OFFCURVE",
"952 294 CURVE SMOOTH",
"952 0 LINE"
);
},
{
closed = 1;
nodes = (
"1308 -78 LINE SMOOTH",
"1308 -123 OFFCURVE",
"1286 -148 OFFCURVE",
"1248 -148 CURVE SMOOTH",
"1210 -148 OFFCURVE",
"1188 -123 OFFCURVE",
"1188 -78 CURVE SMOOTH",
"1188 0 LINE",
"952 0 LINE",
"952 -52 LINE SMOOTH",
"952 -236 OFFCURVE",
"1063 -330 OFFCURVE",
"1221 -330 CURVE SMOOTH",
"1379 -330 OFFCURVE",
"1490 -236 OFFCURVE",
"1490 -52 CURVE SMOOTH",
"1490 0 LINE",
"1308 0 LINE"
);
},
{
closed = 1;
nodes = (
"1347 -20 OFFCURVE",
"1682 252 OFFCURVE",
"1682 720 CURVE SMOOTH",
"1682 1188 OFFCURVE",
"1347 1460 OFFCURVE",
"890 1460 CURVE SMOOTH",
"433 1460 OFFCURVE",
"98 1188 OFFCURVE",
"98 720 CURVE SMOOTH",
"98 252 OFFCURVE",
"433 -20 OFFCURVE",
"890 -20 CURVE SMOOTH"
);
},
{
closed = 1;
nodes = (
"597 162 OFFCURVE",
"408 382 OFFCURVE",
"408 720 CURVE SMOOTH",
"408 1058 OFFCURVE",
"597 1278 OFFCURVE",
"890 1278 CURVE SMOOTH",
"1183 1278 OFFCURVE",
"1372 1058 OFFCURVE",
"1372 720 CURVE SMOOTH",
"1372 382 OFFCURVE",
"1183 162 OFFCURVE",
"890 162 CURVE SMOOTH"
);
}
);
width = 1780;
}
);
leftKerningGroup = O;
leftMetricsKey = O;
rightKerningGroup = O;
rightMetricsKey = O;
unicode = 0051;
},
{
glyphname = R;
lastChange = "2020-08-20 00:31:04 +0000";
layers = (
{
hints = (
{
origin = "{2, 0}";
type = Corner;
name = _corner.Serif;
options = 1;
},
{
origin = "{2, 1}";
scale = "{-1.2, 1}";
type = Corner;
name = _corner.Serif;
},
{
origin = "{2, 3}";
scale = "{-0.96, 1}";
type = Corner;
name = _corner.Serif;
}
);
layerId = "CA54B7DC-FBBB-40FE-ACF3-AABDD76D6A7B";
paths = (
{
closed = 1;
nodes = (
"402 1400 LINE",
"902 1400 LINE SMOOTH",
"1162 1400 OFFCURVE",
"1326 1290 OFFCURVE",
"1326 1072 CURVE SMOOTH",
"1326 854 OFFCURVE",
"1162 744 OFFCURVE",
"902 744 CURVE SMOOTH",
"402 744 LINE",
"402 704 LINE",
"868 704 LINE",
"891 704 LINE",
"914 704 LINE SMOOTH",
"1186 704 OFFCURVE",
"1374 828 OFFCURVE",
"1374 1072 CURVE SMOOTH",
"1374 1316 OFFCURVE",
"1186 1440 OFFCURVE",
"914 1440 CURVE SMOOTH",
"402 1440 LINE"
);
},
{
closed = 1;
nodes = (
"402 704 LINE",
"832 704 LINE SMOOTH",
"994 704 OFFCURVE",
"1084 608 OFFCURVE",
"1084 436 CURVE SMOOTH",
"1084 172 LINE SMOOTH",
"1084 55 OFFCURVE",
"1137 -20 OFFCURVE",
"1252 -20 CURVE SMOOTH",
"1367 -20 OFFCURVE",
"1420 55 OFFCURVE",
"1420 172 CURVE SMOOTH",
"1420 280 LINE",
"1376 280 LINE",
"1376 172 LINE SMOOTH",
"1376 87 OFFCURVE",
"1342 20 OFFCURVE",
"1254 20 CURVE SMOOTH",
"1166 20 OFFCURVE",
"1132 87 OFFCURVE",
"1132 172 CURVE SMOOTH",
"1132 428 LINE SMOOTH",
"1132 622 OFFCURVE",
"1042 730 OFFCURVE",
"850 730 CURVE SMOOTH",
"402 730 LINE"
);
},
{
closed = 1;
nodes = (
"354 0 LINE",
"402 0 LINE",
"402 1440 LINE",
"354 1440 LINE"
);
}
);
width = 1515;
},
{
hints = (
{
origin = "{2, 0}";
type = Corner;
name = _corner.Serif;
options = 1;
},
{
origin = "{2, 1}";
scale = "{-1.4, 1}";
type = Corner;
name = _corner.Serif;
},
{
origin = "{2, 3}";
scale = "{-0.96, 1}";
type = Corner;
name = _corner.Serif;
}
);
layerId = "1E61A082-F045-49A7-AB52-DD1B03FD9B54";
paths = (
{
closed = 1;
nodes = (
"366 1400 LINE",
"866 1400 LINE SMOOTH",
"1126 1400 OFFCURVE",
"1290 1290 OFFCURVE",
"1290 1072 CURVE SMOOTH",
"1290 854 OFFCURVE",
"1126 744 OFFCURVE",
"866 744 CURVE SMOOTH",
"366 744 LINE",
"366 704 LINE",
"832 704 LINE",
"854 704 LINE",
"878 704 LINE SMOOTH",
"1150 704 OFFCURVE",
"1338 828 OFFCURVE",
"1338 1072 CURVE SMOOTH",
"1338 1316 OFFCURVE",
"1150 1440 OFFCURVE",
"878 1440 CURVE SMOOTH",
"366 1440 LINE"
);
},
{
closed = 1;
nodes = (
"366 704 LINE",
"742 704 LINE SMOOTH",
"904 704 OFFCURVE",
"994 608 OFFCURVE",
"994 436 CURVE SMOOTH",
"994 180 LINE SMOOTH",
"994 58 OFFCURVE",
"1050 -20 OFFCURVE",
"1170 -20 CURVE SMOOTH",
"1290 -20 OFFCURVE",
"1346 58 OFFCURVE",
"1346 180 CURVE SMOOTH",
"1346 560 LINE",
"1302 560 LINE",
"1302 180 LINE SMOOTH",
"1302 90 OFFCURVE",
"1266 20 OFFCURVE",
"1172 20 CURVE SMOOTH",
"1078 20 OFFCURVE",
"1042 90 OFFCURVE",
"1042 180 CURVE SMOOTH",
"1042 428 LINE SMOOTH",
"1042 622 OFFCURVE",
"952 730 OFFCURVE",
"760 730 CURVE SMOOTH",
"366 730 LINE"
);
},
{
closed = 1;
nodes = (
"318 0 LINE",
"366 0 LINE",
"366 1440 LINE",
"318 1440 LINE"
);
}
);
width = 1413;
},
{
hints = (
{
origin = "{2, 0}";
type = Corner;
name = _corner.Serif;
options = 1;
},
{
origin = "{2, 1}";
scale = "{-1, 1}";
type = Corner;
name = _corner.Serif;
},
{
origin = "{2, 3}";
scale = "{-0.96, 0.98}";
type = Corner;
name = _corner.Serif;
}
);
layerId = "642E5713-E15A-4A7E-A28E-9A6B75A6585C";
paths = (
{
closed = 1;
nodes = (
"558 1284 LINE",
"890 1284 LINE SMOOTH",
"1058 1284 OFFCURVE",
"1162 1202 OFFCURVE",
"1162 1042 CURVE SMOOTH",
"1162 882 OFFCURVE",
"1058 800 OFFCURVE",
"890 800 CURVE SMOOTH",
"558 800 LINE",
"558 644 LINE",
"815 644 LINE",
"815 660 LINE",
"956 660 LINE SMOOTH",
"1259 660 OFFCURVE",
"1460 792 OFFCURVE",
"1460 1050 CURVE SMOOTH",
"1460 1308 OFFCURVE",
"1263 1440 OFFCURVE",
"966 1440 CURVE SMOOTH",
"558 1440 LINE"
);
},
{
closed = 1;
nodes = (
"558 644 LINE",
"666 644 LINE SMOOTH",
"789 644 OFFCURVE",
"858 576 OFFCURVE",
"858 456 CURVE SMOOTH",
"858 282 LINE SMOOTH",
"858 99 OFFCURVE",
"952 -20 OFFCURVE",
"1162 -20 CURVE SMOOTH",
"1359 -20 OFFCURVE",
"1448 91 OFFCURVE",
"1448 262 CURVE SMOOTH",
"1448 580 LINE",
"1280 580 LINE",
"1280 256 LINE SMOOTH",
"1280 203 OFFCURVE",
"1260 166 OFFCURVE",
"1208 166 CURVE SMOOTH",
"1156 166 OFFCURVE",
"1136 203 OFFCURVE",
"1136 256 CURVE SMOOTH",
"1136 380 LINE SMOOTH",
"1136 565 OFFCURVE",
"1043 668 OFFCURVE",
"824 668 CURVE SMOOTH",
"558 668 LINE"
);
},
{
closed = 1;
nodes = (
"268 0 LINE",
"558 0 LINE",
"558 1440 LINE",
"268 1440 LINE"
);
}
);
width = 1528;
},
{
hints = (
{
origin = "{2, 0}";
type = Corner;
name = _corner.Serif;
options = 1;
},
{
origin = "{2, 1}";
scale = "{-1.2, 1}";
type = Corner;
name = _corner.Serif;
},
{
origin = "{2, 3}";
scale = "{-0.96, 0.98}";
type = Corner;
name = _corner.Serif;
}
);
layerId = "AF891779-7DE6-4679-9CA2-17B922C1DF84";
paths = (
{
closed = 1;
nodes = (
"578 1260 LINE",
"924 1260 LINE SMOOTH",
"1083 1260 OFFCURVE",
"1182 1184 OFFCURVE",
"1182 1038 CURVE SMOOTH",
"1182 892 OFFCURVE",
"1083 816 OFFCURVE",
"924 816 CURVE SMOOTH",
"578 816 LINE",
"578 636 LINE",
"834 636 LINE",
"874 654 LINE",
"980 654 LINE SMOOTH",
"1280 654 OFFCURVE",
"1480 788 OFFCURVE",
"1480 1048 CURVE SMOOTH",
"1480 1307 OFFCURVE",
"1280 1440 OFFCURVE",
"980 1440 CURVE SMOOTH",
"578 1440 LINE"
);
},
{
closed = 1;
nodes = (
"578 636 LINE",
"726 636 LINE SMOOTH",
"841 636 OFFCURVE",
"906 572 OFFCURVE",
"906 460 CURVE SMOOTH",
"906 280 LINE SMOOTH",
"906 97 OFFCURVE",
"1010 -20 OFFCURVE",
"1224 -20 CURVE SMOOTH",
"1424 -20 OFFCURVE",
"1518 89 OFFCURVE",
"1518 260 CURVE SMOOTH",
"1518 324 LINE",
"1326 324 LINE",
"1326 236 LINE SMOOTH",
"1326 191 OFFCURVE",
"1308 160 OFFCURVE",
"1261 160 CURVE SMOOTH",
"1214 160 OFFCURVE",
"1196 191 OFFCURVE",
"1196 236 CURVE SMOOTH",
"1196 386 LINE SMOOTH",
"1196 580 OFFCURVE",
"1097 688 OFFCURVE",
"864 688 CURVE SMOOTH",
"578 688 LINE"
);
},
{
closed = 1;
nodes = (
"288 0 LINE",
"578 0 LINE",
"578 1440 LINE",
"288 1440 LINE"
);
}
);
width = 1590;
}
);
leftKerningGroup = I;
leftMetricsKey = I;
rightKerningGroup = R;
unicode = 0052;
},
{
glyphname = S;
lastChange = "2020-08-20 00:40:27 +0000";
layers = (
{
layerId = "CA54B7DC-FBBB-40FE-ACF3-AABDD76D6A7B";
paths = (
{
closed = 1;
nodes = (
"220 839 OFFCURVE",
"421 765 OFFCURVE",
"648 732 CURVE SMOOTH",
"856 702 LINE SMOOTH",
"1081 669 OFFCURVE",
"1264 598 OFFCURVE",
"1264 366 CURVE SMOOTH",
"1264 150 OFFCURVE",
"1100 24 OFFCURVE",
"836 24 CURVE SMOOTH",
"572 24 OFFCURVE",
"356 148 OFFCURVE",
"252 420 CURVE",
"212 420 LINE",
"306 114 OFFCURVE",
"552 -16 OFFCURVE",
"836 -16 CURVE SMOOTH",
"1120 -16 OFFCURVE",
"1312 114 OFFCURVE",
"1312 366 CURVE SMOOTH",
"1312 625 OFFCURVE",
"1117 709 OFFCURVE",
"864 746 CURVE SMOOTH",
"656 776 LINE SMOOTH",
"443 807 OFFCURVE",
"268 875 OFFCURVE",
"268 1094 CURVE SMOOTH",
"268 1302 OFFCURVE",
"430 1416 OFFCURVE",
"686 1416 CURVE SMOOTH",
"942 1416 OFFCURVE",
"1142 1304 OFFCURVE",
"1236 1040 CURVE",
"1276 1040 LINE",
"1196 1340 OFFCURVE",
"958 1456 OFFCURVE",
"686 1456 CURVE SMOOTH",
"414 1456 OFFCURVE",
"220 1338 OFFCURVE",
"220 1094 CURVE SMOOTH"
);
},
{
closed = 1;
nodes = (
"1236 1440 LINE",
"1236 1114 LINE",
"1276 1040 LINE",
"1280 1040 LINE",
"1280 1440 LINE"
);
},
{
closed = 1;
nodes = (
"252 0 LINE",
"252 342 LINE",
"212 420 LINE",
"208 420 LINE",
"208 0 LINE"
);
}
);
width = 1495;
},
{
layerId = "1E61A082-F045-49A7-AB52-DD1B03FD9B54";
paths = (
{
closed = 1;
nodes = (
"128 854 OFFCURVE",
"314 780 OFFCURVE",
"556 736 CURVE SMOOTH",
"764 698 LINE SMOOTH",
"989 657 OFFCURVE",
"1172 590 OFFCURVE",
"1172 360 CURVE SMOOTH",
"1172 144 OFFCURVE",
"1018 24 OFFCURVE",
"754 24 CURVE SMOOTH",
"490 24 OFFCURVE",
"264 180 OFFCURVE",
"160 520 CURVE",
"120 520 LINE",
"214 144 OFFCURVE",
"470 -16 OFFCURVE",
"754 -16 CURVE SMOOTH",
"1038 -16 OFFCURVE",
"1220 108 OFFCURVE",
"1220 360 CURVE SMOOTH",
"1220 614 OFFCURVE",
"1030 695 OFFCURVE",
"772 742 CURVE SMOOTH",
"564 780 LINE SMOOTH",
"341 821 OFFCURVE",
"176 886 OFFCURVE",
"176 1100 CURVE SMOOTH",
"176 1308 OFFCURVE",
"328 1416 OFFCURVE",
"584 1416 CURVE SMOOTH",
"840 1416 OFFCURVE",
"1050 1273 OFFCURVE",
"1144 940 CURVE",
"1184 940 LINE",
"1104 1311 OFFCURVE",
"856 1456 OFFCURVE",
"584 1456 CURVE SMOOTH",
"312 1456 OFFCURVE",
"128 1344 OFFCURVE",
"128 1100 CURVE SMOOTH"
);
},
{
closed = 1;
nodes = (
"1144 1440 LINE",
"1144 1014 LINE",
"1184 940 LINE",
"1188 940 LINE",
"1188 1440 LINE"
);
},
{
closed = 1;
nodes = (
"160 0 LINE",
"160 442 LINE",
"120 520 LINE",
"116 520 LINE",
"116 0 LINE"
);
}
);
width = 1327;
},
{
layerId = "642E5713-E15A-4A7E-A28E-9A6B75A6585C";
paths = (
{
closed = 1;
nodes = (
"110 762 OFFCURVE",
"329 648 OFFCURVE",
"629 600 CURVE SMOOTH",
"793 574 LINE SMOOTH",
"948 549 OFFCURVE",
"1074 500 OFFCURVE",
"1074 358 CURVE SMOOTH",
"1074 216 OFFCURVE",
"972 140 OFFCURVE",
"795 140 CURVE SMOOTH",
"563 140 OFFCURVE",
"368 274 OFFCURVE",
"282 530 CURVE",
"153 530 LINE",
"242 135 OFFCURVE",
"495 -20 OFFCURVE",
"805 -20 CURVE SMOOTH",
"1115 -20 OFFCURVE",
"1322 133 OFFCURVE",
"1322 427 CURVE SMOOTH",
"1322 713 OFFCURVE",
"1091 821 OFFCURVE",
"781 870 CURVE SMOOTH",
"617 896 LINE SMOOTH",
"468 920 OFFCURVE",
"356 973 OFFCURVE",
"356 1103 CURVE SMOOTH",
"356 1234 OFFCURVE",
"456 1300 OFFCURVE",
"629 1300 CURVE SMOOTH",
"840 1300 OFFCURVE",
"1025 1178 OFFCURVE",
"1105 940 CURVE",
"1234 940 LINE",
"1146 1314 OFFCURVE",
"907 1460 OFFCURVE",
"619 1460 CURVE SMOOTH",
"331 1460 OFFCURVE",
"110 1329 OFFCURVE",
"110 1048 CURVE SMOOTH"
);
},
{
closed = 1;
nodes = (
"1116 1440 LINE",
"1116 1014 LINE",
"1234 940 LINE",
"1278 940 LINE",
"1278 1440 LINE"
);
},
{
closed = 1;
nodes = (
"270 0 LINE",
"270 442 LINE",
"153 530 LINE",
"108 530 LINE",
"108 0 LINE"
);
}
);
width = 1416;
},
{
layerId = "AF891779-7DE6-4679-9CA2-17B922C1DF84";
paths = (
{
closed = 1;
nodes = (
"144 764 OFFCURVE",
"362 646 OFFCURVE",
"663 604 CURVE SMOOTH",
"827 581 LINE SMOOTH",
"974 560 OFFCURVE",
"1092 510 OFFCURVE",
"1092 378 CURVE SMOOTH",
"1092 247 OFFCURVE",
"990 162 OFFCURVE",
"809 162 CURVE SMOOTH",
"605 162 OFFCURVE",
"424 277 OFFCURVE",
"340 440 CURVE",
"173 440 LINE",
"282 107 OFFCURVE",
"537 -20 OFFCURVE",
"845 -20 CURVE SMOOTH",
"1153 -20 OFFCURVE",
"1356 134 OFFCURVE",
"1356 428 CURVE SMOOTH",
"1356 714 OFFCURVE",
"1126 821 OFFCURVE",
"815 865 CURVE SMOOTH",
"651 888 LINE SMOOTH",
"510 908 OFFCURVE",
"406 966 OFFCURVE",
"406 1086 CURVE SMOOTH",
"406 1206 OFFCURVE",
"512 1278 OFFCURVE",
"679 1278 CURVE SMOOTH",
"869 1278 OFFCURVE",
"1029 1189 OFFCURVE",
"1115 1030 CURVE",
"1292 1030 LINE",
"1179 1324 OFFCURVE",
"943 1460 OFFCURVE",
"655 1460 CURVE SMOOTH",
"367 1460 OFFCURVE",
"144 1329 OFFCURVE",
"144 1048 CURVE SMOOTH"
);
},
{
closed = 1;
nodes = (
"1122 1440 LINE",
"1122 1194 LINE",
"1292 1030 LINE",
"1308 1030 LINE",
"1308 1440 LINE"
);
},
{
closed = 1;
nodes = (
"332 0 LINE",
"332 262 LINE",
"173 440 LINE",
"146 440 LINE",
"146 0 LINE"
);
}
);
width = 1488;
}
);
leftKerningGroup = S;
rightKerningGroup = S;
unicode = 0053;
},
{
glyphname = T;
lastChange = "2020-08-20 00:38:25 +0000";
layers = (
{
hints = (
{
origin = "{0, 2}";
scale = "{1.2, 1}";
type = Corner;
name = _corner.Serif;
},
{
origin = "{0, 3}";
scale = "{-1.2, 1}";
type = Corner;
name = _corner.Serif;
options = 1;
}
);
layerId = "CA54B7DC-FBBB-40FE-ACF3-AABDD76D6A7B";
paths = (
{
closed = 1;
nodes = (
"775 1440 LINE",
"727 1440 LINE",
"727 0 LINE",
"775 0 LINE"
);
},
{
closed = 1;
nodes = (
"1395 1440 LINE",
"107 1440 LINE",
"107 1400 LINE",
"1395 1400 LINE"
);
},
{
closed = 1;
nodes = (
"1343 1400 OFFCURVE",
"1351 1372 OFFCURVE",
"1351 1260 CURVE SMOOTH",
"1351 1000 LINE",
"1395 1000 LINE",
"1395 1400 LINE",
"1231 1400 LINE"
);
},
{
closed = 1;
nodes = (
"107 1400 LINE",
"107 1000 LINE",
"151 1000 LINE",
"151 1260 LINE SMOOTH",
"151 1372 OFFCURVE",
"159 1400 OFFCURVE",
"271 1400 CURVE"
);
}
);
width = 1504;
},
{
hints = (
{
origin = "{0, 2}";
scale = "{1.4, 1}";
type = Corner;
name = _corner.Serif;
},
{
origin = "{0, 3}";
scale = "{-1.4, 1}";
type = Corner;
name = _corner.Serif;
options = 1;
}
);
layerId = "1E61A082-F045-49A7-AB52-DD1B03FD9B54";
paths = (
{
closed = 1;
nodes = (
"740 1440 LINE",
"692 1440 LINE",
"692 0 LINE",
"740 0 LINE"
);
},
{
closed = 1;
nodes = (
"1360 1440 LINE",
"72 1440 LINE",
"72 1400 LINE",
"1360 1400 LINE"
);
},
{
closed = 1;
nodes = (
"1308 1400 OFFCURVE",
"1316 1372 OFFCURVE",
"1316 1260 CURVE SMOOTH",
"1316 900 LINE",
"1360 900 LINE",
"1360 1400 LINE",
"1196 1400 LINE"
);
},
{
closed = 1;
nodes = (
"72 1400 LINE",
"72 900 LINE",
"116 900 LINE",
"116 1260 LINE SMOOTH",
"116 1372 OFFCURVE",
"124 1400 OFFCURVE",
"236 1400 CURVE"
);
}
);
width = 1430;
},
{
hints = (
{
origin = "{0, 2}";
scale = "{1.4, 1}";
type = Corner;
name = _corner.Serif;
},
{
origin = "{0, 3}";
scale = "{-1.4, 1}";
type = Corner;
name = _corner.Serif;
options = 1;
}
);
layerId = "642E5713-E15A-4A7E-A28E-9A6B75A6585C";
paths = (
{
closed = 1;
nodes = (
"900 1440 LINE",
"610 1440 LINE",
"610 0 LINE",
"900 0 LINE"
);
},
{
closed = 1;
nodes = (
"1446 1440 LINE",
"64 1440 LINE",
"64 1286 LINE",
"1446 1286 LINE"
);
},
{
closed = 1;
nodes = (
"1250 1286 OFFCURVE",
"1278 1238 OFFCURVE",
"1278 1106 CURVE SMOOTH",
"1278 902 LINE",
"1446 902 LINE",
"1446 1286 LINE",
"1118 1286 LINE"
);
},
{
closed = 1;
nodes = (
"64 1286 LINE",
"64 902 LINE",
"232 902 LINE",
"232 1106 LINE SMOOTH",
"232 1238 OFFCURVE",
"260 1286 OFFCURVE",
"392 1286 CURVE"
);
}
);
width = 1510;
},
{
hints = (
{
origin = "{0, 2}";
scale = "{1.2, 1}";
type = Corner;
name = _corner.Serif;
},
{
origin = "{0, 3}";
scale = "{-1.2, 1}";
type = Corner;
name = _corner.Serif;
options = 1;
}
);
layerId = "AF891779-7DE6-4679-9CA2-17B922C1DF84";
paths = (
{
closed = 1;
nodes = (
"926 1440 LINE",
"636 1440 LINE",
"636 0 LINE",
"926 0 LINE"
);
},
{
closed = 1;
nodes = (
"1472 1440 LINE",
"90 1440 LINE",
"90 1260 LINE",
"1472 1260 LINE"
);
},
{
closed = 1;
nodes = (
"1254 1260 OFFCURVE",
"1282 1212 OFFCURVE",
"1282 1080 CURVE SMOOTH",
"1282 982 LINE",
"1472 982 LINE",
"1472 1260 LINE",
"1122 1260 LINE"
);
},
{
closed = 1;
nodes = (
"90 1260 LINE",
"90 982 LINE",
"280 982 LINE",
"280 1080 LINE SMOOTH",
"280 1212 OFFCURVE",
"308 1260 OFFCURVE",
"440 1260 CURVE"
);
}
);
width = 1562;
}
);
leftKerningGroup = T;
rightKerningGroup = T;
unicode = 0054;
},
{
glyphname = U;
lastChange = "2020-08-19 21:31:10 +0000";
layers = (
{
hints = (
{
origin = "{0, 6}";
scale = "{0.96, 1}";
type = Corner;
name = _corner.Serif;
},
{
origin = "{0, 7}";
scale = "{-1.06, 1}";
type = Corner;
name = _corner.Serif;
options = 1;
},
{
origin = "{0, 15}";
scale = "{1.06, 1}";
type = Corner;
name = _corner.Serif;
options = 1;
},
{
origin = "{0, 16}";
scale = "{-0.96, 1}";
type = Corner;
name = _corner.Serif;
}
);
layerId = "CA54B7DC-FBBB-40FE-ACF3-AABDD76D6A7B";
paths = (
{
closed = 1;
nodes = (
"346 178 OFFCURVE",
"520 -20 OFFCURVE",
"862 -20 CURVE SMOOTH",
"1204 -20 OFFCURVE",
"1378 178 OFFCURVE",
"1378 528 CURVE SMOOTH",
"1378 1440 LINE",
"1332 1440 LINE",
"1332 528 LINE SMOOTH",
"1332 216 OFFCURVE",
"1183 20 OFFCURVE",
"863 20 CURVE SMOOTH",
"543 20 OFFCURVE",
"394 216 OFFCURVE",
"394 528 CURVE SMOOTH",
"394 1440 LINE",
"346 1440 LINE",
"346 528 LINE SMOOTH"
);
}
);
width = 1724;
},
{
hints = (
{
origin = "{0, 6}";
scale = "{0.96, 1}";
type = Corner;
name = _corner.Serif;
},
{
origin = "{0, 7}";
scale = "{-1.16, 1}";
type = Corner;
name = _corner.Serif;
options = 1;
},
{
origin = "{0, 15}";
scale = "{1.16, 1}";
type = Corner;
name = _corner.Serif;
options = 1;
},
{
origin = "{0, 16}";
scale = "{-0.96, 1}";
type = Corner;
name = _corner.Serif;
}
);
layerId = "1E61A082-F045-49A7-AB52-DD1B03FD9B54";
paths = (
{
closed = 1;
nodes = (
"309 178 OFFCURVE",
"483 -20 OFFCURVE",
"825 -20 CURVE SMOOTH",
"1167 -20 OFFCURVE",
"1341 178 OFFCURVE",
"1341 528 CURVE SMOOTH",
"1341 1440 LINE",
"1297 1440 LINE",
"1297 528 LINE SMOOTH",
"1297 216 OFFCURVE",
"1147 20 OFFCURVE",
"827 20 CURVE SMOOTH",
"507 20 OFFCURVE",
"357 216 OFFCURVE",
"357 528 CURVE SMOOTH",
"357 1440 LINE",
"309 1440 LINE",
"309 528 LINE SMOOTH"
);
}
);
width = 1650;
},
{
hints = (
{
origin = "{0, 6}";
scale = "{0.96, 0.98}";
type = Corner;
name = _corner.Serif;
},
{
origin = "{0, 7}";
scale = "{-1.16, 0.98}";
type = Corner;
name = _corner.Serif;
options = 1;
},
{
origin = "{0, 15}";
scale = "{1.16, 0.98}";
type = Corner;
name = _corner.Serif;
options = 1;
},
{
origin = "{0, 16}";
scale = "{-0.96, 0.98}";
type = Corner;
name = _corner.Serif;
}
);
layerId = "642E5713-E15A-4A7E-A28E-9A6B75A6585C";
leftMetricsKey = "=I-36";
rightMetricsKey = "=I-36";
paths = (
{
closed = 1;
nodes = (
"224 190 OFFCURVE",
"428 -20 OFFCURVE",
"818 -20 CURVE SMOOTH",
"1207 -20 OFFCURVE",
"1410 190 OFFCURVE",
"1410 562 CURVE SMOOTH",
"1410 1440 LINE",
"1238 1440 LINE",
"1238 546 LINE SMOOTH",
"1238 307 OFFCURVE",
"1123 156 OFFCURVE",
"876 156 CURVE SMOOTH",
"629 156 OFFCURVE",
"514 307 OFFCURVE",
"514 546 CURVE SMOOTH",
"514 1440 LINE",
"224 1440 LINE",
"224 562 LINE SMOOTH"
);
}
);
width = 1634;
},
{
hints = (
{
origin = "{0, 6}";
scale = "{0.96, 0.98}";
type = Corner;
name = _corner.Serif;
},
{
origin = "{0, 7}";
scale = "{-1.06, 0.98}";
type = Corner;
name = _corner.Serif;
options = 1;
},
{
origin = "{0, 15}";
scale = "{1.06, 0.98}";
type = Corner;
name = _corner.Serif;
options = 1;
},
{
origin = "{0, 16}";
scale = "{-0.96, 0.98}";
type = Corner;
name = _corner.Serif;
}
);
layerId = "AF891779-7DE6-4679-9CA2-17B922C1DF84";
leftMetricsKey = "=I-34";
rightMetricsKey = "=I-34";
paths = (
{
closed = 1;
nodes = (
"247 192 OFFCURVE",
"453 -20 OFFCURVE",
"847 -20 CURVE SMOOTH",
"1241 -20 OFFCURVE",
"1447 192 OFFCURVE",
"1447 568 CURVE SMOOTH",
"1447 1440 LINE",
"1233 1440 LINE",
"1233 548 LINE SMOOTH",
"1233 316 OFFCURVE",
"1127 170 OFFCURVE",
"885 170 CURVE SMOOTH",
"643 170 OFFCURVE",
"537 316 OFFCURVE",
"537 548 CURVE SMOOTH",
"537 1440 LINE",
"247 1440 LINE",
"247 568 LINE SMOOTH"
);
}
);
width = 1694;
}
);
leftKerningGroup = U;
leftMetricsKey = I;
rightKerningGroup = U;
rightMetricsKey = I;
unicode = 0055;
},
{
glyphname = V;
lastChange = "2020-08-19 21:14:07 +0000";
layers = (
{
hints = (
{
origin = "{0, 0}";
scale = "{-1.06, 1}";
type = Corner;
name = _corner.Serif;
options = 1;
},
{
origin = "{0, 3}";
scale = "{1.06, 1}";
type = Corner;
name = _corner.Serif;
},
{
origin = "{0, 4}";
scale = "{-0.6, 1}";
type = Corner;
name = _corner.Serif;
options = 1;
},
{
origin = "{0, 7}";
scale = "{0.6, 1}";
type = Corner;
name = _corner.Serif;
}
);
layerId = "CA54B7DC-FBBB-40FE-ACF3-AABDD76D6A7B";
paths = (
{
closed = 1;
nodes = (
"1341 1440 LINE",
"792 47 LINE",
"805 47 LINE",
"256 1440 LINE",
"204 1440 LINE",
"774 0 LINE",
"818 0 LINE",
"1388 1440 LINE"
);
}
);
width = 1592;
},
{
hints = (
{
origin = "{0, 0}";
scale = "{-1.16, 1}";
type = Corner;
name = _corner.Serif;
options = 1;
},
{
origin = "{0, 3}";
scale = "{1.16, 1}";
type = Corner;
name = _corner.Serif;
},
{
origin = "{0, 4}";
scale = "{-0.6, 1}";
type = Corner;
name = _corner.Serif;
options = 1;
},
{
origin = "{0, 7}";
scale = "{0.6, 1}";
type = Corner;
name = _corner.Serif;
}
);
layerId = "1E61A082-F045-49A7-AB52-DD1B03FD9B54";
paths = (
{
closed = 1;
nodes = (
"1324 1440 LINE",
"775 47 LINE",
"788 47 LINE",
"239 1440 LINE",
"187 1440 LINE",
"757 0 LINE",
"799 0 LINE",
"1369 1440 LINE"
);
}
);
width = 1554;
},
{
hints = (
{
origin = "{0, 0}";
scale = "{-1.46, 0.98}";
type = Corner;
name = _corner.Serif;
options = 1;
},
{
origin = "{0, 3}";
scale = "{1.46, 0.98}";
type = Corner;
name = _corner.Serif;
},
{
origin = "{0, 4}";
scale = "{-0.46, 0.98}";
type = Corner;
name = _corner.Serif;
options = 1;
},
{
origin = "{0, 7}";
scale = "{0.46, 0.98}";
type = Corner;
name = _corner.Serif;
}
);
layerId = "642E5713-E15A-4A7E-A28E-9A6B75A6585C";
paths = (
{
closed = 1;
nodes = (
"1329 1440 LINE",
"828 167 LINE",
"929 166 LINE",
"442 1440 LINE",
"130 1440 LINE",
"700 0 LINE",
"942 0 LINE",
"1512 1440 LINE"
);
}
);
width = 1640;
},
{
hints = (
{
origin = "{0, 0}";
scale = "{-1.36, 0.98}";
type = Corner;
name = _corner.Serif;
options = 1;
},
{
origin = "{0, 3}";
scale = "{1.36, 0.98}";
type = Corner;
name = _corner.Serif;
},
{
origin = "{0, 4}";
scale = "{-0.46, 0.98}";
type = Corner;
name = _corner.Serif;
options = 1;
},
{
origin = "{0, 7}";
scale = "{0.46, 0.98}";
type = Corner;
name = _corner.Serif;
}
);
layerId = "AF891779-7DE6-4679-9CA2-17B922C1DF84";
paths = (
{
closed = 1;
nodes = (
"1315 1440 LINE",
"814 167 LINE",
"926 166 LINE",
"439 1440 LINE",
"127 1440 LINE",
"697 0 LINE",
"952 0 LINE",
"1522 1440 LINE"
);
}
);
width = 1649;
}
);
leftKerningGroup = V;
leftMetricsKey = A;
rightKerningGroup = V;
rightMetricsKey = A;
unicode = 0056;
},
{
glyphname = W;
lastChange = "2020-08-19 21:14:07 +0000";
layers = (
{
hints = (
{
origin = "{0, 0}";
scale = "{-1.06, 1}";
type = Corner;
name = _corner.Serif;
options = 1;
},
{
origin = "{0, 3}";
scale = "{1.06, 1}";
type = Corner;
name = _corner.Serif;
},
{
origin = "{0, 4}";
scale = "{-0.6, 1}";
type = Corner;
name = _corner.Serif;
options = 1;
},
{
origin = "{0, 7}";
scale = "{0.6, 1}";
type = Corner;
name = _corner.Serif;
},
{
origin = "{1, 3}";
scale = "{1.06, 1}";
type = Corner;
name = _corner.Serif;
},
{
origin = "{1, 4}";
scale = "{-0.6, 1}";
type = Corner;
name = _corner.Serif;
options = 1;
}
);
layerId = "CA54B7DC-FBBB-40FE-ACF3-AABDD76D6A7B";
paths = (
{
closed = 1;
nodes = (
"1882 1440 LINE",
"1420 47 LINE",
"1437 47 LINE",
"975 1440 LINE",
"924 1440 LINE",
"1404 0 LINE",
"1448 0 LINE",
"1928 1440 LINE"
);
},
{
closed = 1;
nodes = (
"1058 1129 LINE",
"700 47 LINE",
"717 47 LINE",
"255 1440 LINE",
"204 1440 LINE",
"684 0 LINE",
"728 0 LINE",
"1079 1054 LINE"
);
}
);
width = 2132;
},
{
hints = (
{
origin = "{0, 0}";
scale = "{-1.06, 1}";
type = Corner;
name = _corner.Serif;
options = 1;
},
{
origin = "{0, 3}";
scale = "{1.06, 1}";
type = Corner;
name = _corner.Serif;
},
{
origin = "{0, 4}";
scale = "{-0.6, 1}";
type = Corner;
name = _corner.Serif;
options = 1;
},
{
origin = "{0, 7}";
scale = "{0.6, 1}";
type = Corner;
name = _corner.Serif;
},
{
origin = "{1, 3}";
scale = "{1.06, 1}";
type = Corner;
name = _corner.Serif;
},
{
origin = "{1, 4}";
scale = "{-0.6, 1}";
type = Corner;
name = _corner.Serif;
options = 1;
}
);
layerId = "1E61A082-F045-49A7-AB52-DD1B03FD9B54";
paths = (
{
closed = 1;
nodes = (
"1867 1440 LINE",
"1405 47 LINE",
"1420 47 LINE",
"958 1440 LINE",
"907 1440 LINE",
"1387 0 LINE",
"1431 0 LINE",
"1911 1440 LINE"
);
},
{
closed = 1;
nodes = (
"1044 1130 LINE",
"685 47 LINE",
"700 47 LINE",
"238 1440 LINE",
"187 1440 LINE",
"667 0 LINE",
"711 0 LINE",
"1062 1054 LINE"
);
}
);
width = 2096;
},
{
hints = (
{
origin = "{0, 0}";
scale = "{-1.46, 0.98}";
type = Corner;
name = _corner.Serif;
options = 1;
},
{
origin = "{0, 3}";
scale = "{1.46, 0.98}";
type = Corner;
name = _corner.Serif;
},
{
origin = "{0, 4}";
scale = "{-0.46, 0.98}";
type = Corner;
name = _corner.Serif;
options = 1;
},
{
origin = "{0, 7}";
scale = "{0.46, 0.98}";
type = Corner;
name = _corner.Serif;
},
{
origin = "{1, 3}";
scale = "{1.46, 0.98}";
type = Corner;
name = _corner.Serif;
},
{
origin = "{1, 4}";
scale = "{-0.46, 0.98}";
type = Corner;
name = _corner.Serif;
options = 1;
}
);
layerId = "642E5713-E15A-4A7E-A28E-9A6B75A6585C";
paths = (
{
closed = 1;
nodes = (
"1774 1440 LINE",
"1397 167 LINE",
"1512 166 LINE",
"1151 1440 LINE",
"848 1440 LINE",
"1278 0 LINE",
"1520 0 LINE",
"1950 1440 LINE"
);
},
{
closed = 1;
nodes = (
"1009 1282 LINE",
"679 167 LINE",
"794 166 LINE",
"433 1440 LINE",
"130 1440 LINE",
"560 0 LINE",
"802 0 LINE",
"1124 1077 LINE"
);
}
);
width = 2078;
},
{
hints = (
{
origin = "{0, 0}";
scale = "{-1.36, 0.98}";
type = Corner;
name = _corner.Serif;
options = 1;
},
{
origin = "{0, 3}";
scale = "{1.36, 0.98}";
type = Corner;
name = _corner.Serif;
},
{
origin = "{0, 4}";
scale = "{-0.42, 0.98}";
type = Corner;
name = _corner.Serif;
options = 1;
},
{
origin = "{0, 7}";
scale = "{0.46, 0.98}";
type = Corner;
name = _corner.Serif;
},
{
origin = "{1, 3}";
scale = "{1.36, 0.98}";
type = Corner;
name = _corner.Serif;
},
{
origin = "{1, 4}";
scale = "{-0.42, 0.98}";
type = Corner;
name = _corner.Serif;
options = 1;
}
);
layerId = "AF891779-7DE6-4679-9CA2-17B922C1DF84";
paths = (
{
closed = 1;
nodes = (
"1759 1440 LINE",
"1381 167 LINE",
"1496 166 LINE",
"1135 1440 LINE",
"832 1440 LINE",
"1262 0 LINE",
"1527 0 LINE",
"1957 1440 LINE"
);
},
{
closed = 1;
nodes = (
"1010 1317 LINE",
"669 167 LINE",
"784 166 LINE",
"423 1440 LINE",
"120 1440 LINE",
"550 0 LINE",
"815 0 LINE",
"1134 1070 LINE"
);
}
);
width = 2084;
}
);
leftKerningGroup = W;
leftMetricsKey = V;
rightKerningGroup = W;
rightMetricsKey = V;
unicode = 0057;
},
{
glyphname = X;
lastChange = "2020-08-19 21:17:21 +0000";
layers = (
{
hints = (
{
origin = "{0, 6}";
scale = "{1.06, 1}";
type = Corner;
name = _corner.Serif;
},
{
origin = "{0, 7}";
scale = "{-0.56, 1}";
type = Corner;
name = _corner.Serif;
options = 1;
},
{
origin = "{0, 2}";
scale = "{0.56, 1}";
type = Corner;
name = _corner.Serif;
},
{
origin = "{0, 3}";
scale = "{-1.06, 1}";
type = Corner;
name = _corner.Serif;
options = 1;
},
{
origin = "{1, 2}";
scale = "{0.6, 1}";
type = Corner;
name = _corner.Serif;
},
{
origin = "{1, 3}";
scale = "{-1.1, 1}";
type = Corner;
name = _corner.Serif;
options = 1;
},
{
origin = "{1, 6}";
scale = "{1.1, 1}";
type = Corner;
name = _corner.Serif;
},
{
origin = "{1, 7}";
scale = "{-0.6, 1}";
type = Corner;
name = _corner.Serif;
options = 1;
}
);
layerId = "CA54B7DC-FBBB-40FE-ACF3-AABDD76D6A7B";
paths = (
{
closed = 1;
nodes = (
"838 708 LINE",
"858 708 LINE",
"1416 1440 LINE",
"1361 1440 LINE",
"833 747 LINE",
"868 747 LINE",
"340 1440 LINE",
"280 1440 LINE"
);
},
{
closed = 1;
nodes = (
"858 764 LINE",
"838 764 LINE",
"256 0 LINE",
"311 0 LINE",
"863 725 LINE",
"828 725 LINE",
"1380 0 LINE",
"1440 0 LINE"
);
}
);
width = 1684;
},
{
hints = (
{
origin = "{0, 2}";
scale = "{0.56, 1}";
type = Corner;
name = _corner.Serif;
},
{
origin = "{0, 3}";
scale = "{-1.06, 1}";
type = Corner;
name = _corner.Serif;
options = 1;
},
{
origin = "{0, 6}";
scale = "{1.06, 1}";
type = Corner;
name = _corner.Serif;
},
{
origin = "{0, 7}";
scale = "{-0.56, 1}";
type = Corner;
name = _corner.Serif;
options = 1;
},
{
origin = "{1, 3}";
scale = "{-1.1, 1}";
type = Corner;
name = _corner.Serif;
options = 1;
},
{
origin = "{1, 6}";
scale = "{1.1, 1}";
type = Corner;
name = _corner.Serif;
},
{
origin = "{1, 7}";
scale = "{-0.6, 1}";
type = Corner;
name = _corner.Serif;
options = 1;
},
{
origin = "{1, 2}";
scale = "{0.6, 1}";
type = Corner;
name = _corner.Serif;
}
);
layerId = "1E61A082-F045-49A7-AB52-DD1B03FD9B54";
paths = (
{
closed = 1;
nodes = (
"798 708 LINE",
"819 708 LINE",
"1377 1440 LINE",
"1319 1440 LINE",
"791 747 LINE",
"828 747 LINE",
"300 1440 LINE",
"240 1440 LINE"
);
},
{
closed = 1;
nodes = (
"818 764 LINE",
"797 764 LINE",
"215 0 LINE",
"273 0 LINE",
"825 725 LINE",
"788 725 LINE",
"1340 0 LINE",
"1400 0 LINE"
);
}
);
width = 1604;
},
{
hints = (
{
origin = "{0, 2}";
scale = "{0.02, 0.98}";
type = Corner;
name = _corner.Serif;
},
{
origin = "{0, 3}";
scale = "{-1.68, 0.98}";
type = Corner;
name = _corner.Serif;
options = 1;
},
{
origin = "{0, 6}";
scale = "{1.66, 0.98}";
type = Corner;
name = _corner.Serif;
},
{
origin = "{0, 7}";
scale = "{-0.02, 0.98}";
type = Corner;
name = _corner.Serif;
options = 1;
},
{
origin = "{1, 2}";
scale = "{0.06, 1}";
type = Corner;
name = _corner.Serif;
},
{
origin = "{1, 3}";
scale = "{-1.72, 1}";
type = Corner;
name = _corner.Serif;
options = 1;
},
{
origin = "{1, 6}";
scale = "{1.7, 1}";
type = Corner;
name = _corner.Serif;
},
{
origin = "{1, 7}";
scale = "{-0.06, 1}";
type = Corner;
name = _corner.Serif;
options = 1;
}
);
layerId = "642E5713-E15A-4A7E-A28E-9A6B75A6585C";
paths = (
{
closed = 1;
nodes = (
"653 668 LINE",
"854 668 LINE",
"1474 1440 LINE",
"1256 1440 LINE",
"766 827 LINE",
"878 827 LINE",
"428 1440 LINE",
"63 1440 LINE"
);
},
{
closed = 1;
nodes = (
"918 802 LINE",
"717 802 LINE",
"73 0 LINE",
"291 0 LINE",
"805 643 LINE",
"693 643 LINE",
"1165 0 LINE",
"1531 0 LINE"
);
}
);
width = 1593;
},
{
hints = (
{
origin = "{0, 2}";
scale = "{0.02, 0.98}";
type = Corner;
name = _corner.Serif;
},
{
origin = "{0, 3}";
scale = "{-1.6, 0.98}";
type = Corner;
name = _corner.Serif;
options = 1;
},
{
origin = "{0, 6}";
scale = "{1.56, 0.98}";
type = Corner;
name = _corner.Serif;
},
{
origin = "{0, 7}";
scale = "{-0.02, 0.98}";
type = Corner;
name = _corner.Serif;
options = 1;
},
{
origin = "{1, 2}";
scale = "{0.06, 1}";
type = Corner;
name = _corner.Serif;
},
{
origin = "{1, 3}";
scale = "{-1.64, 1}";
type = Corner;
name = _corner.Serif;
options = 1;
},
{
origin = "{1, 6}";
scale = "{1.6, 1}";
type = Corner;
name = _corner.Serif;
},
{
origin = "{1, 7}";
scale = "{-0.06, 1}";
type = Corner;
name = _corner.Serif;
options = 1;
}
);
layerId = "AF891779-7DE6-4679-9CA2-17B922C1DF84";
paths = (
{
closed = 1;
nodes = (
"689 668 LINE",
"900 668 LINE",
"1520 1440 LINE",
"1277 1440 LINE",
"787 827 LINE",
"914 827 LINE",
"464 1440 LINE",
"99 1440 LINE"
);
},
{
closed = 1;
nodes = (
"954 802 LINE",
"743 802 LINE",
"99 0 LINE",
"343 0 LINE",
"856 643 LINE",
"729 643 LINE",
"1201 0 LINE",
"1567 0 LINE"
);
}
);
width = 1654;
}
);
leftKerningGroup = X;
rightKerningGroup = X;
unicode = 0058;
},
{
glyphname = Y;
lastChange = "2020-08-19 21:14:07 +0000";
layers = (
{
hints = (
{
origin = "{0, 2}";
scale = "{1.2, 1}";
type = Corner;
name = _corner.Serif;
},
{
origin = "{0, 3}";
scale = "{-1.2, 1}";
type = Corner;
name = _corner.Serif;
options = 1;
},
{
origin = "{1, 0}";
scale = "{-1.06, 1}";
type = Corner;
name = _corner.Serif;
options = 1;
},
{
origin = "{1, 3}";
scale = "{1.06, 1}";
type = Corner;
name = _corner.Serif;
},
{
origin = "{1, 4}";
scale = "{-0.5, 1}";
type = Corner;
name = _corner.Serif;
options = 1;
},
{
origin = "{1, 7}";
scale = "{0.5, 1}";
type = Corner;
name = _corner.Serif;
}
);
layerId = "CA54B7DC-FBBB-40FE-ACF3-AABDD76D6A7B";
paths = (
{
closed = 1;
nodes = (
"798 618 LINE",
"750 618 LINE",
"750 0 LINE",
"798 0 LINE"
);
},
{
closed = 1;
nodes = (
"1312 1440 LINE",
"766 613 LINE",
"786 613 LINE",
"240 1440 LINE",
"183 1440 LINE",
"753 577 LINE",
"795 577 LINE",
"1365 1440 LINE"
);
}
);
width = 1548;
},
{
hints = (
{
origin = "{0, 2}";
scale = "{1.4, 1}";
type = Corner;
name = _corner.Serif;
},
{
origin = "{0, 3}";
scale = "{-1.4, 1}";
type = Corner;
name = _corner.Serif;
options = 1;
},
{
origin = "{1, 0}";
scale = "{-1.16, 1}";
type = Corner;
name = _corner.Serif;
options = 1;
},
{
origin = "{1, 3}";
scale = "{1.16, 1}";
type = Corner;
name = _corner.Serif;
},
{
origin = "{1, 4}";
scale = "{-0.5, 1}";
type = Corner;
name = _corner.Serif;
options = 1;
},
{
origin = "{1, 7}";
scale = "{0.5, 1}";
type = Corner;
name = _corner.Serif;
}
);
layerId = "1E61A082-F045-49A7-AB52-DD1B03FD9B54";
paths = (
{
closed = 1;
nodes = (
"779 610 LINE",
"731 610 LINE",
"731 0 LINE",
"779 0 LINE"
);
},
{
closed = 1;
nodes = (
"1296 1440 LINE",
"750 613 LINE",
"767 613 LINE",
"221 1440 LINE",
"164 1440 LINE",
"734 577 LINE",
"776 577 LINE",
"1346 1440 LINE"
);
}
);
width = 1508;
},
{
hints = (
{
origin = "{0, 2}";
scale = "{1.4, 1}";
type = Corner;
name = _corner.Serif;
},
{
origin = "{0, 3}";
scale = "{-1.4, 1}";
type = Corner;
name = _corner.Serif;
options = 1;
},
{
origin = "{1, 0}";
scale = "{-1.52, 0.98}";
type = Corner;
name = _corner.Serif;
options = 1;
},
{
origin = "{1, 3}";
scale = "{1.52, 0.98}";
type = Corner;
name = _corner.Serif;
},
{
origin = "{1, 4}";
scale = "{-0.2, 0.98}";
type = Corner;
name = _corner.Serif;
options = 1;
},
{
origin = "{1, 7}";
scale = "{0.2, 0.98}";
type = Corner;
name = _corner.Serif;
}
);
layerId = "642E5713-E15A-4A7E-A28E-9A6B75A6585C";
paths = (
{
closed = 1;
nodes = (
"900 719 LINE",
"610 719 LINE",
"610 0 LINE",
"900 0 LINE"
);
},
{
closed = 1;
nodes = (
"1234 1440 LINE",
"789 714 LINE",
"852 714 LINE",
"419 1440 LINE",
"78 1440 LINE",
"628 548 LINE",
"884 548 LINE",
"1434 1440 LINE"
);
}
);
width = 1510;
},
{
hints = (
{
origin = "{0, 2}";
scale = "{1.2, 1}";
type = Corner;
name = _corner.Serif;
},
{
origin = "{0, 3}";
scale = "{-1.2, 1}";
type = Corner;
name = _corner.Serif;
options = 1;
},
{
origin = "{1, 0}";
scale = "{-1.46, 0.98}";
type = Corner;
name = _corner.Serif;
options = 1;
},
{
origin = "{1, 3}";
scale = "{1.46, 0.98}";
type = Corner;
name = _corner.Serif;
},
{
origin = "{1, 4}";
scale = "{-0.2, 0.98}";
type = Corner;
name = _corner.Serif;
options = 1;
},
{
origin = "{1, 7}";
scale = "{0.2, 0.98}";
type = Corner;
name = _corner.Serif;
}
);
layerId = "AF891779-7DE6-4679-9CA2-17B922C1DF84";
leftMetricsKey = "=V-10";
rightMetricsKey = "=V-10";
paths = (
{
closed = 1;
nodes = (
"892 719 LINE",
"602 719 LINE",
"602 0 LINE",
"892 0 LINE"
);
},
{
closed = 1;
nodes = (
"1200 1440 LINE",
"755 714 LINE",
"844 714 LINE",
"411 1440 LINE",
"70 1440 LINE",
"620 548 LINE",
"876 548 LINE",
"1426 1440 LINE"
);
}
);
width = 1496;
}
);
leftKerningGroup = Y;
leftMetricsKey = V;
rightKerningGroup = Y;
rightMetricsKey = V;
unicode = 0059;
},
{
glyphname = Z;
lastChange = "2020-08-20 00:39:00 +0000";
layers = (
{
layerId = "CA54B7DC-FBBB-40FE-ACF3-AABDD76D6A7B";
paths = (
{
closed = 1;
nodes = (
"202 1400 LINE",
"1192 1400 LINE",
"1250 1404 LINE",
"1250 1440 LINE",
"202 1440 LINE"
);
},
{
closed = 1;
nodes = (
"170 0 LINE",
"1250 0 LINE",
"1250 40 LINE",
"228 40 LINE",
"170 36 LINE"
);
},
{
closed = 1;
nodes = (
"228 40 LINE",
"1250 1404 LINE",
"1192 1400 LINE",
"170 36 LINE"
);
},
{
closed = 1;
nodes = (
"202 1400 LINE",
"202 1000 LINE",
"246 1000 LINE",
"246 1260 LINE SMOOTH",
"246 1372 OFFCURVE",
"254 1400 OFFCURVE",
"366 1400 CURVE"
);
},
{
closed = 1;
nodes = (
"1250 40 LINE",
"1250 460 LINE",
"1206 460 LINE",
"1206 180 LINE SMOOTH",
"1206 68 OFFCURVE",
"1198 40 OFFCURVE",
"1086 40 CURVE"
);
}
);
width = 1434;
},
{
layerId = "1E61A082-F045-49A7-AB52-DD1B03FD9B54";
paths = (
{
closed = 1;
nodes = (
"136 1400 LINE",
"1126 1400 LINE",
"1184 1404 LINE",
"1184 1440 LINE",
"136 1440 LINE"
);
},
{
closed = 1;
nodes = (
"104 0 LINE",
"1184 0 LINE",
"1184 40 LINE",
"162 40 LINE",
"104 36 LINE"
);
},
{
closed = 1;
nodes = (
"162 40 LINE",
"1184 1404 LINE",
"1126 1400 LINE",
"104 36 LINE"
);
},
{
closed = 1;
nodes = (
"136 1400 LINE",
"136 900 LINE",
"180 900 LINE",
"180 1260 LINE SMOOTH",
"180 1372 OFFCURVE",
"188 1400 OFFCURVE",
"300 1400 CURVE"
);
},
{
closed = 1;
nodes = (
"1184 40 LINE",
"1184 560 LINE",
"1140 560 LINE",
"1140 180 LINE SMOOTH",
"1140 68 OFFCURVE",
"1132 40 OFFCURVE",
"1020 40 CURVE"
);
}
);
width = 1297;
},
{
layerId = "642E5713-E15A-4A7E-A28E-9A6B75A6585C";
paths = (
{
closed = 1;
nodes = (
"132 1284 LINE",
"907 1284 LINE",
"1278 1308 LINE",
"1278 1440 LINE",
"132 1440 LINE"
);
},
{
closed = 1;
nodes = (
"88 0 LINE",
"1272 0 LINE",
"1272 158 LINE",
"459 158 LINE",
"88 134 LINE"
);
},
{
closed = 1;
nodes = (
"459 158 LINE",
"1278 1308 LINE",
"907 1284 LINE",
"88 134 LINE"
);
},
{
closed = 1;
nodes = (
"132 1284 LINE",
"132 902 LINE",
"300 902 LINE",
"300 1104 LINE SMOOTH",
"300 1236 OFFCURVE",
"328 1284 OFFCURVE",
"460 1284 CURVE"
);
},
{
closed = 1;
nodes = (
"1272 158 LINE",
"1272 558 LINE",
"1104 558 LINE",
"1104 338 LINE SMOOTH",
"1104 206 OFFCURVE",
"1076 158 OFFCURVE",
"944 158 CURVE"
);
}
);
width = 1374;
},
{
layerId = "AF891779-7DE6-4679-9CA2-17B922C1DF84";
paths = (
{
closed = 1;
nodes = (
"170 1260 LINE",
"946 1260 LINE",
"1322 1284 LINE",
"1322 1440 LINE",
"170 1440 LINE"
);
},
{
closed = 1;
nodes = (
"132 0 LINE",
"1322 0 LINE",
"1322 184 LINE",
"508 184 LINE",
"132 160 LINE"
);
},
{
closed = 1;
nodes = (
"508 184 LINE",
"1322 1284 LINE",
"946 1260 LINE",
"132 160 LINE"
);
},
{
closed = 1;
nodes = (
"170 1260 LINE",
"170 982 LINE",
"360 982 LINE",
"360 1080 LINE SMOOTH",
"360 1212 OFFCURVE",
"388 1260 OFFCURVE",
"520 1260 CURVE"
);
},
{
closed = 1;
nodes = (
"1322 184 LINE",
"1322 480 LINE",
"1132 480 LINE",
"1132 364 LINE SMOOTH",
"1132 232 OFFCURVE",
"1104 184 OFFCURVE",
"972 184 CURVE"
);
}
);
width = 1456;
}
);
leftKerningGroup = Z;
rightKerningGroup = Z;
unicode = 005A;
},
{
glyphname = a;
lastChange = "2020-08-20 01:17:19 +0000";
layers = (
{
layerId = "CA54B7DC-FBBB-40FE-ACF3-AABDD76D6A7B";
paths = (
{
closed = 1;
nodes = (
"196 784 OFFCURVE",
"208 742 OFFCURVE",
"242 742 CURVE SMOOTH",
"263 742 OFFCURVE",
"273 756 OFFCURVE",
"273 777 CURVE SMOOTH",
"273 812 OFFCURVE",
"255 822 OFFCURVE",
"255 882 CURVE SMOOTH",
"255 996 OFFCURVE",
"389 1076 OFFCURVE",
"586 1076 CURVE SMOOTH",
"783 1076 OFFCURVE",
"880 996 OFFCURVE",
"880 848 CURVE",
"928 830 LINE",
"928 1026 OFFCURVE",
"799 1116 OFFCURVE",
"588 1116 CURVE SMOOTH",
"372 1116 OFFCURVE",
"196 1026 OFFCURVE",
"196 844 CURVE SMOOTH"
);
},
{
closed = 1;
nodes = (
"620 568 LINE SMOOTH",
"775 606 OFFCURVE",
"845 632 OFFCURVE",
"880 706 CURVE",
"880 840 LINE",
"880 683 OFFCURVE",
"770 647 OFFCURVE",
"612 608 CURVE SMOOTH",
"458 570 LINE SMOOTH",
"249 519 OFFCURVE",
"136 436 OFFCURVE",
"136 257 CURVE SMOOTH",
"136 85 OFFCURVE",
"268 -16 OFFCURVE",
"462 -16 CURVE SMOOTH",
"722 -16 OFFCURVE",
"920 143 OFFCURVE",
"918 546 CURVE",
"880 546 LINE",
"880 166 OFFCURVE",
"692 24 OFFCURVE",
"468 24 CURVE SMOOTH",
"302 24 OFFCURVE",
"184 107 OFFCURVE",
"184 257 CURVE SMOOTH",
"184 424 OFFCURVE",
"293 487 OFFCURVE",
"474 532 CURVE SMOOTH"
);
},
{
closed = 1;
nodes = (
"880 330 LINE",
"884 330 LINE",
"884 168 LINE SMOOTH",
"884 51 OFFCURVE",
"947 -16 OFFCURVE",
"1050 -16 CURVE SMOOTH",
"1153 -16 OFFCURVE",
"1216 51 OFFCURVE",
"1216 168 CURVE SMOOTH",
"1216 260 LINE",
"1172 260 LINE",
"1172 168 LINE SMOOTH",
"1172 83 OFFCURVE",
"1131 24 OFFCURVE",
"1050 24 CURVE SMOOTH",
"969 24 OFFCURVE",
"928 83 OFFCURVE",
"928 168 CURVE SMOOTH",
"928 830 LINE",
"880 848 LINE"
);
}
);
width = 1222;
},
{
layerId = "1E61A082-F045-49A7-AB52-DD1B03FD9B54";
paths = (
{
closed = 1;
nodes = (
"154 726 OFFCURVE",
"170 674 OFFCURVE",
"205 674 CURVE SMOOTH",
"224 674 OFFCURVE",
"235 686 OFFCURVE",
"235 706 CURVE SMOOTH",
"235 740 OFFCURVE",
"209 752 OFFCURVE",
"209 818 CURVE SMOOTH",
"209 972 OFFCURVE",
"371 1056 OFFCURVE",
"550 1056 CURVE SMOOTH",
"748 1056 OFFCURVE",
"834 970 OFFCURVE",
"834 838 CURVE",
"882 820 LINE",
"882 1007 OFFCURVE",
"762 1096 OFFCURVE",
"552 1096 CURVE SMOOTH",
"344 1096 OFFCURVE",
"154 999 OFFCURVE",
"154 790 CURVE SMOOTH"
);
},
{
closed = 1;
nodes = (
"574 557 LINE SMOOTH",
"729 593 OFFCURVE",
"799 622 OFFCURVE",
"834 696 CURVE",
"834 830 LINE",
"834 672 OFFCURVE",
"724 634 OFFCURVE",
"566 597 CURVE SMOOTH",
"412 561 LINE SMOOTH",
"222 517 OFFCURVE",
"90 441 OFFCURVE",
"90 253 CURVE SMOOTH",
"90 84 OFFCURVE",
"222 -16 OFFCURVE",
"416 -16 CURVE SMOOTH",
"676 -16 OFFCURVE",
"874 140 OFFCURVE",
"872 536 CURVE",
"834 536 LINE",
"834 163 OFFCURVE",
"646 24 OFFCURVE",
"422 24 CURVE SMOOTH",
"256 24 OFFCURVE",
"138 106 OFFCURVE",
"138 253 CURVE SMOOTH",
"138 413 OFFCURVE",
"242 480 OFFCURVE",
"428 523 CURVE SMOOTH"
);
},
{
closed = 1;
nodes = (
"834 320 LINE",
"838 320 LINE",
"838 176 LINE SMOOTH",
"838 54 OFFCURVE",
"904 -16 OFFCURVE",
"1012 -16 CURVE SMOOTH",
"1120 -16 OFFCURVE",
"1186 54 OFFCURVE",
"1186 176 CURVE SMOOTH",
"1186 550 LINE",
"1142 550 LINE",
"1142 176 LINE SMOOTH",
"1142 86 OFFCURVE",
"1098 24 OFFCURVE",
"1012 24 CURVE SMOOTH",
"926 24 OFFCURVE",
"882 86 OFFCURVE",
"882 176 CURVE SMOOTH",
"882 820 LINE",
"834 838 LINE"
);
}
);
width = 1190;
},
{
layerId = "642E5713-E15A-4A7E-A28E-9A6B75A6585C";
paths = (
{
closed = 1;
nodes = (
"140 750 OFFCURVE",
"200 671 OFFCURVE",
"297 671 CURVE SMOOTH",
"382 671 OFFCURVE",
"423 714 OFFCURVE",
"423 773 CURVE SMOOTH",
"423 824 OFFCURVE",
"397 839 OFFCURVE",
"397 884 CURVE SMOOTH",
"397 960 OFFCURVE",
"476 996 OFFCURVE",
"566 996 CURVE SMOOTH",
"672 996 OFFCURVE",
"730 930 OFFCURVE",
"730 842 CURVE",
"996 817 LINE",
"998 1034 OFFCURVE",
"863 1140 OFFCURVE",
"604 1140 CURVE SMOOTH",
"358 1140 OFFCURVE",
"140 1032 OFFCURVE",
"140 834 CURVE SMOOTH"
);
},
{
closed = 1;
nodes = (
"613 538 LINE SMOOTH",
"663 556 OFFCURVE",
"704 580 OFFCURVE",
"730 611 CURVE",
"730 840 LINE",
"730 754 OFFCURVE",
"690 705 OFFCURVE",
"583 674 CURVE SMOOTH",
"458 638 LINE SMOOTH",
"302 593 OFFCURVE",
"84 531 OFFCURVE",
"84 298 CURVE SMOOTH",
"84 83 OFFCURVE",
"251 -20 OFFCURVE",
"444 -20 CURVE SMOOTH",
"682 -20 OFFCURVE",
"822 113 OFFCURVE",
"820 450 CURVE",
"730 450 LINE",
"730 248 OFFCURVE",
"640 174 OFFCURVE",
"520 174 CURVE SMOOTH",
"429 174 OFFCURVE",
"366 230 OFFCURVE",
"366 321 CURVE SMOOTH",
"366 431 OFFCURVE",
"445 478 OFFCURVE",
"565 521 CURVE SMOOTH"
);
},
{
closed = 1;
nodes = (
"730 320 LINE",
"776 320 LINE",
"776 240 LINE SMOOTH",
"776 80 OFFCURVE",
"873 -23 OFFCURVE",
"1041 -23 CURVE SMOOTH",
"1209 -23 OFFCURVE",
"1304 77 OFFCURVE",
"1304 237 CURVE SMOOTH",
"1304 557 LINE",
"1140 557 LINE",
"1140 233 LINE SMOOTH",
"1140 185 OFFCURVE",
"1117 153 OFFCURVE",
"1068 153 CURVE SMOOTH",
"1019 153 OFFCURVE",
"996 185 OFFCURVE",
"996 233 CURVE SMOOTH",
"996 817 LINE",
"730 842 LINE"
);
}
);
width = 1320;
},
{
layerId = "AF891779-7DE6-4679-9CA2-17B922C1DF84";
paths = (
{
closed = 1;
nodes = (
"169 807 OFFCURVE",
"223 741 OFFCURVE",
"322 741 CURVE SMOOTH",
"402 741 OFFCURVE",
"444 782 OFFCURVE",
"444 837 CURVE SMOOTH",
"444 865 OFFCURVE",
"438 877 OFFCURVE",
"438 904 CURVE SMOOTH",
"438 975 OFFCURVE",
"522 1008 OFFCURVE",
"613 1008 CURVE SMOOTH",
"718 1008 OFFCURVE",
"779 949 OFFCURVE",
"779 858 CURVE",
"1045 840 LINE",
"1045 1071 OFFCURVE",
"903 1180 OFFCURVE",
"625 1180 CURVE SMOOTH",
"384 1180 OFFCURVE",
"169 1073 OFFCURVE",
"169 896 CURVE SMOOTH"
);
},
{
closed = 1;
nodes = (
"657 547 LINE SMOOTH",
"714 565 OFFCURVE",
"754 590 OFFCURVE",
"779 616 CURVE",
"779 856 LINE",
"779 777 OFFCURVE",
"739 732 OFFCURVE",
"625 700 CURVE SMOOTH",
"543 677 LINE SMOOTH",
"346 622 OFFCURVE",
"109 560 OFFCURVE",
"109 316 CURVE SMOOTH",
"109 72 OFFCURVE",
"298 -20 OFFCURVE",
"505 -20 CURVE SMOOTH",
"746 -20 OFFCURVE",
"893 127 OFFCURVE",
"893 480 CURVE",
"779 480 LINE",
"779 275 OFFCURVE",
"681 194 OFFCURVE",
"553 194 CURVE SMOOTH",
"461 194 OFFCURVE",
"393 243 OFFCURVE",
"393 337 CURVE SMOOTH",
"393 439 OFFCURVE",
"469 487 OFFCURVE",
"604 530 CURVE SMOOTH"
);
},
{
closed = 1;
nodes = (
"779 340 LINE",
"823 340 LINE",
"823 254 LINE SMOOTH",
"823 80 OFFCURVE",
"919 -20 OFFCURVE",
"1080 -20 CURVE SMOOTH",
"1245 -20 OFFCURVE",
"1327 76 OFFCURVE",
"1327 234 CURVE SMOOTH",
"1327 320 LINE",
"1157 320 LINE",
"1157 250 LINE SMOOTH",
"1157 210 OFFCURVE",
"1138 184 OFFCURVE",
"1101 184 CURVE SMOOTH",
"1064 184 OFFCURVE",
"1045 210 OFFCURVE",
"1045 250 CURVE SMOOTH",
"1045 840 LINE",
"779 858 LINE"
);
}
);
width = 1331;
}
);
leftKerningGroup = a;
rightKerningGroup = a;
unicode = 0061;
},
{
glyphname = b;
lastChange = "2020-08-20 01:10:32 +0000";
layers = (
{
hints = (
{
origin = "{0, 5}";
scale = "{-0.9, 1}";
type = Corner;
name = _corner.Serif;
}
);
layerId = "CA54B7DC-FBBB-40FE-ACF3-AABDD76D6A7B";
paths = (
{
closed = 1;
nodes = (
"296 0 LINE",
"296 334 LINE",
"270 550 LINE",
"300 746 LINE",
"300 1520 LINE",
"252 1520 LINE",
"252 0 LINE"
);
},
{
closed = 1;
nodes = (
"1002 -16 OFFCURVE",
"1200 198 OFFCURVE",
"1200 550 CURVE SMOOTH",
"1200 902 OFFCURVE",
"1002 1116 OFFCURVE",
"728 1116 CURVE SMOOTH",
"434 1116 OFFCURVE",
"256 902 OFFCURVE",
"256 550 CURVE SMOOTH",
"256 198 OFFCURVE",
"434 -16 OFFCURVE",
"728 -16 CURVE SMOOTH"
);
},
{
closed = 1;
nodes = (
"476 24 OFFCURVE",
"296 220 OFFCURVE",
"296 550 CURVE SMOOTH",
"296 880 OFFCURVE",
"476 1076 OFFCURVE",
"728 1076 CURVE SMOOTH",
"976 1076 OFFCURVE",
"1152 880 OFFCURVE",
"1152 550 CURVE SMOOTH",
"1152 220 OFFCURVE",
"976 24 OFFCURVE",
"728 24 CURVE SMOOTH"
);
}
);
width = 1329;
},
{
hints = (
{
origin = "{0, 5}";
scale = "{-0.9, 1}";
type = Corner;
name = _corner.Serif;
}
);
layerId = "1E61A082-F045-49A7-AB52-DD1B03FD9B54";
paths = (
{
closed = 1;
nodes = (
"251 0 LINE",
"251 324 LINE",
"225 540 LINE",
"255 736 LINE",
"255 1480 LINE",
"207 1480 LINE",
"207 0 LINE"
);
},
{
closed = 1;
nodes = (
"957 -16 OFFCURVE",
"1155 194 OFFCURVE",
"1155 540 CURVE SMOOTH",
"1155 886 OFFCURVE",
"957 1096 OFFCURVE",
"683 1096 CURVE SMOOTH",
"389 1096 OFFCURVE",
"211 886 OFFCURVE",
"211 540 CURVE SMOOTH",
"211 194 OFFCURVE",
"389 -16 OFFCURVE",
"683 -16 CURVE SMOOTH"
);
},
{
closed = 1;
nodes = (
"431 24 OFFCURVE",
"251 216 OFFCURVE",
"251 540 CURVE SMOOTH",
"251 864 OFFCURVE",
"431 1056 OFFCURVE",
"683 1056 CURVE SMOOTH",
"931 1056 OFFCURVE",
"1107 864 OFFCURVE",
"1107 540 CURVE SMOOTH",
"1107 216 OFFCURVE",
"931 24 OFFCURVE",
"683 24 CURVE SMOOTH"
);
}
);
width = 1241;
},
{
hints = (
{
origin = "{0, 5}";
scale = "{-0.9, 0.98}";
type = Corner;
name = _corner.Serif;
}
);
layerId = "642E5713-E15A-4A7E-A28E-9A6B75A6585C";
paths = (
{
closed = 1;
nodes = (
"414 0 LINE",
"414 270 LINE",
"376 560 LINE",
"450 776 LINE",
"450 1480 LINE",
"172 1480 LINE",
"172 0 LINE"
);
},
{
closed = 1;
nodes = (
"1116 -16 OFFCURVE",
"1340 201 OFFCURVE",
"1340 560 CURVE SMOOTH",
"1340 919 OFFCURVE",
"1116 1136 OFFCURVE",
"798 1136 CURVE SMOOTH",
"482 1136 OFFCURVE",
"325 919 OFFCURVE",
"325 560 CURVE SMOOTH",
"325 201 OFFCURVE",
"482 -16 OFFCURVE",
"798 -16 CURVE SMOOTH"
);
},
{
closed = 1;
nodes = (
"557 152 OFFCURVE",
"436 300 OFFCURVE",
"436 560 CURVE SMOOTH",
"436 820 OFFCURVE",
"557 970 OFFCURVE",
"740 970 CURVE SMOOTH",
"919 970 OFFCURVE",
"1040 820 OFFCURVE",
"1040 560 CURVE SMOOTH",
"1040 300 OFFCURVE",
"919 152 OFFCURVE",
"740 152 CURVE SMOOTH"
);
}
);
width = 1416;
},
{
hints = (
{
origin = "{0, 5}";
scale = "{-0.9, 0.98}";
type = Corner;
name = _corner.Serif;
}
);
layerId = "AF891779-7DE6-4679-9CA2-17B922C1DF84";
paths = (
{
closed = 1;
nodes = (
"456 0 LINE",
"456 297 LINE",
"416 580 LINE",
"490 816 LINE",
"490 1530 LINE",
"212 1530 LINE",
"212 0 LINE"
);
},
{
closed = 1;
nodes = (
"1156 -16 OFFCURVE",
"1388 209 OFFCURVE",
"1388 580 CURVE SMOOTH",
"1388 951 OFFCURVE",
"1156 1176 OFFCURVE",
"836 1176 CURVE SMOOTH",
"513 1176 OFFCURVE",
"358 951 OFFCURVE",
"358 580 CURVE SMOOTH",
"358 209 OFFCURVE",
"513 -16 OFFCURVE",
"836 -16 CURVE SMOOTH"
);
},
{
closed = 1;
nodes = (
"595 176 OFFCURVE",
"476 319 OFFCURVE",
"476 580 CURVE SMOOTH",
"476 841 OFFCURVE",
"595 988 OFFCURVE",
"784 988 CURVE SMOOTH",
"969 988 OFFCURVE",
"1088 841 OFFCURVE",
"1088 580 CURVE SMOOTH",
"1088 319 OFFCURVE",
"969 176 OFFCURVE",
"784 176 CURVE SMOOTH"
);
}
);
width = 1492;
}
);
leftKerningGroup = b;
rightKerningGroup = o;
rightMetricsKey = o;
unicode = 0062;
},
{
glyphname = c;
lastChange = "2020-08-20 00:51:27 +0000";
layers = (
{
layerId = "CA54B7DC-FBBB-40FE-ACF3-AABDD76D6A7B";
paths = (
{
closed = 1;
nodes = (
"637 1076 LINE",
"880 1076 OFFCURVE",
"986 932 OFFCURVE",
"986 811 CURVE SMOOTH",
"986 759 OFFCURVE",
"972 738 OFFCURVE",
"972 713 CURVE SMOOTH",
"972 692 OFFCURVE",
"985 679 OFFCURVE",
"1003 679 CURVE SMOOTH",
"1036 679 OFFCURVE",
"1044 725 OFFCURVE",
"1044 771 CURVE SMOOTH",
"1044 955 OFFCURVE",
"905 1116 OFFCURVE",
"637 1116 CURVE"
);
},
{
closed = 1;
nodes = (
"1009 333 LINE",
"985 212 OFFCURVE",
"884 24 OFFCURVE",
"633 24 CURVE SMOOTH",
"360 24 OFFCURVE",
"179 222 OFFCURVE",
"179 550 CURVE SMOOTH",
"179 878 OFFCURVE",
"361 1076 OFFCURVE",
"637 1076 CURVE",
"637 1116 LINE",
"335 1116 OFFCURVE",
"129 910 OFFCURVE",
"129 550 CURVE SMOOTH",
"129 190 OFFCURVE",
"335 -16 OFFCURVE",
"633 -16 CURVE SMOOTH",
"906 -16 OFFCURVE",
"1023 177 OFFCURVE",
"1051 323 CURVE"
);
}
);
width = 1172;
},
{
layerId = "1E61A082-F045-49A7-AB52-DD1B03FD9B54";
paths = (
{
closed = 1;
nodes = (
"586 1056 LINE",
"846 1056 OFFCURVE",
"941 897 OFFCURVE",
"941 778 CURVE SMOOTH",
"941 707 OFFCURVE",
"911 681 OFFCURVE",
"911 648 CURVE SMOOTH",
"911 630 OFFCURVE",
"921 618 OFFCURVE",
"941 618 CURVE SMOOTH",
"976 618 OFFCURVE",
"994 687 OFFCURVE",
"994 750 CURVE SMOOTH",
"994 929 OFFCURVE",
"868 1096 OFFCURVE",
"586 1096 CURVE"
);
},
{
closed = 1;
nodes = (
"967 366 LINE",
"937 217 OFFCURVE",
"828 24 OFFCURVE",
"582 24 CURVE SMOOTH",
"310 24 OFFCURVE",
"136 218 OFFCURVE",
"136 540 CURVE SMOOTH",
"136 862 OFFCURVE",
"312 1056 OFFCURVE",
"586 1056 CURVE",
"586 1096 LINE",
"286 1096 OFFCURVE",
"86 894 OFFCURVE",
"86 540 CURVE SMOOTH",
"86 186 OFFCURVE",
"285 -16 OFFCURVE",
"582 -16 CURVE SMOOTH",
"852 -16 OFFCURVE",
"973 182 OFFCURVE",
"1008 356 CURVE"
);
}
);
width = 1090;
},
{
layerId = "642E5713-E15A-4A7E-A28E-9A6B75A6585C";
rightMetricsKey = "=o-4";
paths = (
{
closed = 1;
nodes = (
"636 988 LINE",
"761 990 OFFCURVE",
"811 923 OFFCURVE",
"811 845 CURVE SMOOTH",
"811 812 OFFCURVE",
"808 793 OFFCURVE",
"808 763 CURVE SMOOTH",
"808 673 OFFCURVE",
"856 613 OFFCURVE",
"949 613 CURVE SMOOTH",
"1050 613 OFFCURVE",
"1102 685 OFFCURVE",
"1102 789 CURVE SMOOTH",
"1102 977 OFFCURVE",
"926 1140 OFFCURVE",
"630 1140 CURVE"
);
},
{
closed = 1;
nodes = (
"959 466 LINE",
"929 337 OFFCURVE",
"848 218 OFFCURVE",
"658 218 CURVE SMOOTH",
"455 218 OFFCURVE",
"326 374 OFFCURVE",
"326 616 CURVE SMOOTH",
"326 838 OFFCURVE",
"442 990 OFFCURVE",
"636 988 CURVE",
"630 1140 LINE",
"307 1140 OFFCURVE",
"76 936 OFFCURVE",
"76 560 CURVE SMOOTH",
"76 184 OFFCURVE",
"306 -20 OFFCURVE",
"618 -20 CURVE SMOOTH",
"936 -20 OFFCURVE",
"1075 200 OFFCURVE",
"1106 434 CURVE"
);
}
);
width = 1178;
},
{
layerId = "AF891779-7DE6-4679-9CA2-17B922C1DF84";
rightMetricsKey = "=o-6";
paths = (
{
closed = 1;
nodes = (
"670 1004 LINE",
"792 1004 OFFCURVE",
"857 945 OFFCURVE",
"857 851 CURVE SMOOTH",
"857 826 OFFCURVE",
"855 815 OFFCURVE",
"855 791 CURVE SMOOTH",
"855 717 OFFCURVE",
"901 649 OFFCURVE",
"1001 649 CURVE SMOOTH",
"1100 649 OFFCURVE",
"1154 713 OFFCURVE",
"1154 821 CURVE SMOOTH",
"1154 1026 OFFCURVE",
"965 1180 OFFCURVE",
"662 1180 CURVE"
);
},
{
closed = 1;
nodes = (
"981 422 LINE",
"958 338 OFFCURVE",
"872 234 OFFCURVE",
"692 234 CURVE SMOOTH",
"496 234 OFFCURVE",
"364 393 OFFCURVE",
"364 624 CURVE SMOOTH",
"364 852 OFFCURVE",
"482 1004 OFFCURVE",
"670 1004 CURVE",
"662 1180 LINE",
"334 1180 OFFCURVE",
"104 970 OFFCURVE",
"104 580 CURVE SMOOTH",
"104 190 OFFCURVE",
"334 -20 OFFCURVE",
"656 -20 CURVE SMOOTH",
"979 -20 OFFCURVE",
"1124 173 OFFCURVE",
"1160 374 CURVE"
);
}
);
width = 1258;
}
);
leftKerningGroup = o;
leftMetricsKey = o;
rightKerningGroup = o;
unicode = 0063;
},
{
glyphname = d;
lastChange = "2020-08-20 01:10:32 +0000";
layers = (
{
hints = (
{
origin = "{0, 1}";
scale = "{-0.9, 1}";
type = Corner;
name = _corner.Serif;
},
{
origin = "{0, 6}";
scale = "{-0.9, 1}";
type = Corner;
name = _corner.Serif;
}
);
layerId = "CA54B7DC-FBBB-40FE-ACF3-AABDD76D6A7B";
paths = (
{
closed = 1;
nodes = (
"1077 1520 LINE",
"1029 1520 LINE",
"1029 746 LINE",
"1059 550 LINE",
"1033 334 LINE",
"1033 0 LINE",
"1077 0 LINE"
);
},
{
closed = 1;
nodes = (
"895 -16 OFFCURVE",
"1073 198 OFFCURVE",
"1073 550 CURVE SMOOTH",
"1073 902 OFFCURVE",
"895 1116 OFFCURVE",
"601 1116 CURVE SMOOTH",
"327 1116 OFFCURVE",
"129 902 OFFCURVE",
"129 550 CURVE SMOOTH",
"129 198 OFFCURVE",
"327 -16 OFFCURVE",
"601 -16 CURVE SMOOTH"
);
},
{
closed = 1;
nodes = (
"353 24 OFFCURVE",
"177 220 OFFCURVE",
"177 550 CURVE SMOOTH",
"177 880 OFFCURVE",
"353 1076 OFFCURVE",
"601 1076 CURVE SMOOTH",
"853 1076 OFFCURVE",
"1033 880 OFFCURVE",
"1033 550 CURVE SMOOTH",
"1033 220 OFFCURVE",
"853 24 OFFCURVE",
"601 24 CURVE SMOOTH"
);
}
);
width = 1370;
},
{
hints = (
{
origin = "{0, 6}";
scale = "{-0.9, 1}";
type = Corner;
name = _corner.Serif;
},
{
origin = "{0, 1}";
scale = "{-0.9, 1}";
type = Corner;
name = _corner.Serif;
}
);
layerId = "1E61A082-F045-49A7-AB52-DD1B03FD9B54";
paths = (
{
closed = 1;
nodes = (
"1034 1480 LINE",
"986 1480 LINE",
"986 736 LINE",
"1016 540 LINE",
"990 324 LINE",
"990 0 LINE",
"1034 0 LINE"
);
},
{
closed = 1;
nodes = (
"852 -16 OFFCURVE",
"1030 194 OFFCURVE",
"1030 540 CURVE SMOOTH",
"1030 886 OFFCURVE",
"852 1096 OFFCURVE",
"558 1096 CURVE SMOOTH",
"284 1096 OFFCURVE",
"86 886 OFFCURVE",
"86 540 CURVE SMOOTH",
"86 194 OFFCURVE",
"284 -16 OFFCURVE",
"558 -16 CURVE SMOOTH"
);
},
{
closed = 1;
nodes = (
"310 24 OFFCURVE",
"134 216 OFFCURVE",
"134 540 CURVE SMOOTH",
"134 864 OFFCURVE",
"310 1056 OFFCURVE",
"558 1056 CURVE SMOOTH",
"810 1056 OFFCURVE",
"990 864 OFFCURVE",
"990 540 CURVE SMOOTH",
"990 216 OFFCURVE",
"810 24 OFFCURVE",
"558 24 CURVE SMOOTH"
);
}
);
width = 1302;
},
{
hints = (
{
origin = "{0, 6}";
scale = "{-0.9, 1}";
type = Corner;
name = _corner.Serif;
},
{
origin = "{0, 1}";
scale = "{-0.9, 0.98}";
type = Corner;
name = _corner.Serif;
}
);
layerId = "642E5713-E15A-4A7E-A28E-9A6B75A6585C";
paths = (
{
closed = 1;
nodes = (
"1244 1480 LINE",
"966 1480 LINE",
"966 776 LINE",
"1040 560 LINE",
"1008 319 LINE",
"1008 0 LINE",
"1244 0 LINE"
);
},
{
closed = 1;
nodes = (
"934 -16 OFFCURVE",
"1091 201 OFFCURVE",
"1091 560 CURVE SMOOTH",
"1091 919 OFFCURVE",
"934 1136 OFFCURVE",
"618 1136 CURVE SMOOTH",
"300 1136 OFFCURVE",
"76 919 OFFCURVE",
"76 560 CURVE SMOOTH",
"76 201 OFFCURVE",
"300 -16 OFFCURVE",
"618 -16 CURVE SMOOTH"
);
},
{
closed = 1;
nodes = (
"497 152 OFFCURVE",
"376 300 OFFCURVE",
"376 560 CURVE SMOOTH",
"376 820 OFFCURVE",
"497 970 OFFCURVE",
"676 970 CURVE SMOOTH",
"859 970 OFFCURVE",
"980 820 OFFCURVE",
"980 560 CURVE SMOOTH",
"980 300 OFFCURVE",
"859 152 OFFCURVE",
"676 152 CURVE SMOOTH"
);
}
);
width = 1468;
},
{
hints = (
{
origin = "{0, 1}";
scale = "{-0.9, 0.98}";
type = Corner;
name = _corner.Serif;
},
{
origin = "{0, 6}";
scale = "{-0.9, 1}";
type = Corner;
name = _corner.Serif;
}
);
layerId = "AF891779-7DE6-4679-9CA2-17B922C1DF84";
paths = (
{
closed = 1;
nodes = (
"1280 1530 LINE",
"1002 1530 LINE",
"1002 816 LINE",
"1076 580 LINE",
"1044 309 LINE",
"1044 0 LINE",
"1280 0 LINE"
);
},
{
closed = 1;
nodes = (
"979 -16 OFFCURVE",
"1134 209 OFFCURVE",
"1134 580 CURVE SMOOTH",
"1134 951 OFFCURVE",
"979 1176 OFFCURVE",
"656 1176 CURVE SMOOTH",
"336 1176 OFFCURVE",
"104 951 OFFCURVE",
"104 580 CURVE SMOOTH",
"104 209 OFFCURVE",
"336 -16 OFFCURVE",
"656 -16 CURVE SMOOTH"
);
},
{
closed = 1;
nodes = (
"523 176 OFFCURVE",
"404 319 OFFCURVE",
"404 580 CURVE SMOOTH",
"404 841 OFFCURVE",
"523 988 OFFCURVE",
"708 988 CURVE SMOOTH",
"897 988 OFFCURVE",
"1016 841 OFFCURVE",
"1016 580 CURVE SMOOTH",
"1016 319 OFFCURVE",
"897 176 OFFCURVE",
"708 176 CURVE SMOOTH"
);
}
);
width = 1524;
}
);
leftKerningGroup = o;
leftMetricsKey = o;
rightKerningGroup = l;
rightMetricsKey = l;
unicode = 0064;
},
{
glyphname = e;
lastChange = "2020-08-20 00:49:43 +0000";
layers = (
{
layerId = "CA54B7DC-FBBB-40FE-ACF3-AABDD76D6A7B";
paths = (
{
closed = 1;
nodes = (
"1019 324 LINE",
"988 205 OFFCURVE",
"880 26 OFFCURVE",
"623 26 CURVE SMOOTH",
"357 26 OFFCURVE",
"179 222 OFFCURVE",
"179 550 CURVE SMOOTH",
"179 878 OFFCURVE",
"359 1076 OFFCURVE",
"625 1076 CURVE",
"625 1116 LINE",
"335 1116 OFFCURVE",
"129 910 OFFCURVE",
"129 550 CURVE SMOOTH",
"129 190 OFFCURVE",
"333 -16 OFFCURVE",
"623 -16 CURVE SMOOTH",
"905 -16 OFFCURVE",
"1030 177 OFFCURVE",
"1061 314 CURVE"
);
},
{
closed = 1;
nodes = (
"1079 612 LINE",
"1079 908 OFFCURVE",
"913 1116 OFFCURVE",
"625 1116 CURVE",
"625 1076 LINE",
"889 1076 OFFCURVE",
"1023 880 OFFCURVE",
"1035 636 CURVE"
);
},
{
closed = 1;
nodes = (
"163 596 LINE",
"1079 596 LINE",
"1079 612 LINE",
"1035 636 LINE",
"163 636 LINE"
);
}
);
width = 1208;
},
{
layerId = "1E61A082-F045-49A7-AB52-DD1B03FD9B54";
paths = (
{
closed = 1;
nodes = (
"982 380 LINE",
"950 238 OFFCURVE",
"847 26 OFFCURVE",
"580 26 CURVE SMOOTH",
"316 26 OFFCURVE",
"136 218 OFFCURVE",
"136 540 CURVE SMOOTH",
"136 862 OFFCURVE",
"316 1056 OFFCURVE",
"580 1056 CURVE",
"580 1096 LINE",
"292 1096 OFFCURVE",
"86 894 OFFCURVE",
"86 540 CURVE SMOOTH",
"86 186 OFFCURVE",
"292 -16 OFFCURVE",
"580 -16 CURVE SMOOTH",
"871 -16 OFFCURVE",
"992 210 OFFCURVE",
"1024 370 CURVE"
);
},
{
closed = 1;
nodes = (
"1030 600 LINE",
"1030 892 OFFCURVE",
"866 1096 OFFCURVE",
"580 1096 CURVE",
"580 1056 LINE",
"842 1056 OFFCURVE",
"974 863 OFFCURVE",
"986 624 CURVE"
);
},
{
closed = 1;
nodes = (
"120 584 LINE",
"1030 584 LINE",
"1030 600 LINE",
"986 624 LINE",
"120 624 LINE"
);
}
);
width = 1116;
},
{
layerId = "642E5713-E15A-4A7E-A28E-9A6B75A6585C";
paths = (
{
closed = 1;
nodes = (
"973 431 LINE",
"944 334 OFFCURVE",
"870 220 OFFCURVE",
"674 220 CURVE SMOOTH",
"458 220 OFFCURVE",
"332 382 OFFCURVE",
"332 626 CURVE SMOOTH",
"332 853 OFFCURVE",
"425 988 OFFCURVE",
"612 988 CURVE",
"620 1140 LINE",
"303 1140 OFFCURVE",
"76 930 OFFCURVE",
"76 560 CURVE SMOOTH",
"76 190 OFFCURVE",
"303 -20 OFFCURVE",
"620 -20 CURVE SMOOTH",
"946 -20 OFFCURVE",
"1095 201 OFFCURVE",
"1123 399 CURVE"
);
},
{
closed = 1;
nodes = (
"1140 626 LINE",
"1140 930 OFFCURVE",
"949 1140 OFFCURVE",
"620 1140 CURVE",
"612 988 LINE",
"781 987 OFFCURVE",
"856 862 OFFCURVE",
"858 714 CURVE"
);
},
{
closed = 1;
nodes = (
"176 556 LINE",
"1140 556 LINE",
"1140 626 LINE",
"858 714 LINE",
"176 714 LINE"
);
}
);
width = 1216;
},
{
layerId = "AF891779-7DE6-4679-9CA2-17B922C1DF84";
paths = (
{
closed = 1;
nodes = (
"997 395 LINE",
"969 323 OFFCURVE",
"895 226 OFFCURVE",
"710 226 CURVE SMOOTH",
"494 226 OFFCURVE",
"364 385 OFFCURVE",
"364 626 CURVE SMOOTH",
"364 860 OFFCURVE",
"464 1004 OFFCURVE",
"660 1004 CURVE",
"660 1180 LINE",
"332 1180 OFFCURVE",
"104 963 OFFCURVE",
"104 580 CURVE SMOOTH",
"104 197 OFFCURVE",
"332 -20 OFFCURVE",
"660 -20 CURVE SMOOTH",
"995 -20 OFFCURVE",
"1125 172 OFFCURVE",
"1170 325 CURVE"
);
},
{
closed = 1;
nodes = (
"1190 636 LINE",
"1190 960 OFFCURVE",
"998 1180 OFFCURVE",
"660 1180 CURVE",
"660 1004 LINE",
"829 1003 OFFCURVE",
"910 880 OFFCURVE",
"910 742 CURVE"
);
},
{
closed = 1;
nodes = (
"220 562 LINE",
"1190 562 LINE",
"1190 636 LINE",
"910 742 LINE",
"220 742 LINE"
);
}
);
width = 1294;
}
);
leftKerningGroup = o;
leftMetricsKey = o;
rightKerningGroup = o;
rightMetricsKey = o;
unicode = 0065;
},
{
glyphname = f;
lastChange = "2020-08-20 00:20:37 +0000";
layers = (
{
hints = (
{
origin = "{1, 0}";
type = Corner;
name = _corner.Serif;
},
{
origin = "{1, 1}";
scale = "{-1.2, 1}";
type = Corner;
name = _corner.Serif;
options = 1;
}
);
layerId = "CA54B7DC-FBBB-40FE-ACF3-AABDD76D6A7B";
paths = (
{
closed = 1;
nodes = (
"92 1060 LINE",
"820 1060 LINE",
"820 1100 LINE",
"92 1100 LINE"
);
},
{
closed = 1;
nodes = (
"392 0 LINE",
"440 0 LINE",
"440 1170 LINE",
"392 1166 LINE"
);
},
{
closed = 1;
nodes = (
"519 1580 OFFCURVE",
"392 1439 OFFCURVE",
"392 1166 CURVE",
"440 1170 LINE",
"440 1419 OFFCURVE",
"549 1540 OFFCURVE",
"746 1540 CURVE SMOOTH",
"877 1540 OFFCURVE",
"945 1482 OFFCURVE",
"939 1369 CURVE SMOOTH",
"937 1332 OFFCURVE",
"943 1310 OFFCURVE",
"968 1310 CURVE SMOOTH",
"998 1310 OFFCURVE",
"1002 1333 OFFCURVE",
"1002 1378 CURVE SMOOTH",
"1002 1511 OFFCURVE",
"892 1580 OFFCURVE",
"746 1580 CURVE SMOOTH"
);
}
);
width = 845;
},
{
hints = (
{
origin = "{1, 0}";
type = Corner;
name = _corner.Serif;
},
{
origin = "{1, 1}";
scale = "{-1.4, 1}";
type = Corner;
name = _corner.Serif;
options = 1;
}
);
layerId = "1E61A082-F045-49A7-AB52-DD1B03FD9B54";
paths = (
{
closed = 1;
nodes = (
"61 1040 LINE",
"789 1040 LINE",
"789 1080 LINE",
"61 1080 LINE"
);
},
{
closed = 1;
nodes = (
"361 0 LINE",
"409 0 LINE",
"409 1140 LINE",
"361 1136 LINE"
);
},
{
closed = 1;
nodes = (
"482 1540 OFFCURVE",
"361 1402 OFFCURVE",
"361 1136 CURVE",
"409 1140 LINE",
"409 1382 OFFCURVE",
"512 1500 OFFCURVE",
"699 1500 CURVE SMOOTH",
"812 1500 OFFCURVE",
"880 1442 OFFCURVE",
"870 1339 CURVE SMOOTH",
"866 1297 OFFCURVE",
"875 1274 OFFCURVE",
"901 1274 CURVE SMOOTH",
"926 1274 OFFCURVE",
"935 1298 OFFCURVE",
"935 1346 CURVE SMOOTH",
"935 1478 OFFCURVE",
"837 1540 OFFCURVE",
"699 1540 CURVE SMOOTH"
);
}
);
width = 849;
},
{
hints = (
{
origin = "{1, 0}";
type = Corner;
name = _corner.Serif;
},
{
origin = "{1, 1}";
scale = "{-1.4, 1}";
type = Corner;
name = _corner.Serif;
}
);
layerId = "642E5713-E15A-4A7E-A28E-9A6B75A6585C";
paths = (
{
closed = 1;
nodes = (
"44 962 LINE",
"922 962 LINE",
"922 1120 LINE",
"44 1120 LINE"
);
},
{
closed = 1;
nodes = (
"294 0 LINE",
"574 0 LINE",
"574 1240 LINE",
"294 1130 LINE"
);
},
{
closed = 1;
nodes = (
"454 1580 OFFCURVE",
"294 1427 OFFCURVE",
"294 1130 CURVE",
"574 1240 LINE",
"574 1381 OFFCURVE",
"630 1440 OFFCURVE",
"698 1440 CURVE SMOOTH",
"757 1440 OFFCURVE",
"778 1407 OFFCURVE",
"800 1346 CURVE SMOOTH",
"824 1280 OFFCURVE",
"864 1253 OFFCURVE",
"932 1253 CURVE SMOOTH",
"1004 1253 OFFCURVE",
"1054 1302 OFFCURVE",
"1054 1378 CURVE SMOOTH",
"1054 1502 OFFCURVE",
"926 1580 OFFCURVE",
"738 1580 CURVE SMOOTH"
);
}
);
width = 984;
},
{
hints = (
{
origin = "{1, 0}";
type = Corner;
name = _corner.Serif;
},
{
origin = "{1, 1}";
scale = "{-1.2, 1}";
type = Corner;
name = _corner.Serif;
}
);
layerId = "AF891779-7DE6-4679-9CA2-17B922C1DF84";
paths = (
{
closed = 1;
nodes = (
"66 980 LINE",
"924 980 LINE",
"924 1160 LINE",
"66 1160 LINE"
);
},
{
closed = 1;
nodes = (
"316 0 LINE",
"596 0 LINE",
"596 1270 LINE",
"316 1170 LINE"
);
},
{
closed = 1;
nodes = (
"479 1630 OFFCURVE",
"316 1474 OFFCURVE",
"316 1170 CURVE",
"596 1270 LINE",
"596 1411 OFFCURVE",
"655 1470 OFFCURVE",
"730 1470 CURVE SMOOTH",
"784 1470 OFFCURVE",
"811 1446 OFFCURVE",
"844 1404 CURVE SMOOTH",
"891 1345 OFFCURVE",
"922 1309 OFFCURVE",
"994 1309 CURVE SMOOTH",
"1071 1309 OFFCURVE",
"1116 1352 OFFCURVE",
"1116 1432 CURVE SMOOTH",
"1116 1556 OFFCURVE",
"965 1630 OFFCURVE",
"770 1630 CURVE SMOOTH"
);
}
);
width = 1012;
}
);
leftKerningGroup = f;
rightKerningGroup = f;
unicode = 0066;
},
{
glyphname = g;
lastChange = "2020-08-20 00:51:10 +0000";
layers = (
{
layerId = "CA54B7DC-FBBB-40FE-ACF3-AABDD76D6A7B";
paths = (
{
closed = 1;
nodes = (
"827 368 OFFCURVE",
"991 514 OFFCURVE",
"991 738 CURVE SMOOTH",
"991 918 OFFCURVE",
"889 1026 OFFCURVE",
"765 1068 CURVE",
"607 1108 LINE",
"363 1108 OFFCURVE",
"199 962 OFFCURVE",
"199 738 CURVE SMOOTH",
"199 514 OFFCURVE",
"363 368 OFFCURVE",
"595 368 CURVE SMOOTH"
);
},
{
closed = 1;
nodes = (
"393 408 OFFCURVE",
"247 538 OFFCURVE",
"247 738 CURVE SMOOTH",
"247 938 OFFCURVE",
"393 1068 OFFCURVE",
"595 1068 CURVE SMOOTH",
"797 1068 OFFCURVE",
"943 938 OFFCURVE",
"943 738 CURVE SMOOTH",
"943 538 OFFCURVE",
"797 408 OFFCURVE",
"595 408 CURVE SMOOTH"
);
},
{
closed = 1;
nodes = (
"765 1068 LINE",
"1159 1068 LINE",
"1159 1108 LINE",
"607 1108 LINE"
);
},
{
closed = 1;
nodes = (
"189 514 OFFCURVE",
"79 442 OFFCURVE",
"79 306 CURVE SMOOTH",
"79 182 OFFCURVE",
"177 100 OFFCURVE",
"325 100 CURVE SMOOTH",
"895 100 LINE SMOOTH",
"1037 100 OFFCURVE",
"1097 32 OFFCURVE",
"1097 -90 CURVE SMOOTH",
"1097 -213 OFFCURVE",
"1014 -340 OFFCURVE",
"781 -340 CURVE SMOOTH",
"487 -340 LINE SMOOTH",
"282 -340 OFFCURVE",
"193 -252 OFFCURVE",
"193 -114 CURVE SMOOTH",
"193 7 OFFCURVE",
"281 75 OFFCURVE",
"331 100 CURVE",
"311 131 LINE",
"237 94 OFFCURVE",
"145 17 OFFCURVE",
"145 -114 CURVE SMOOTH",
"145 -280 OFFCURVE",
"255 -380 OFFCURVE",
"487 -380 CURVE SMOOTH",
"781 -380 LINE SMOOTH",
"1044 -380 OFFCURVE",
"1143 -232 OFFCURVE",
"1143 -88 CURVE SMOOTH",
"1143 55 OFFCURVE",
"1065 140 OFFCURVE",
"897 140 CURVE SMOOTH",
"329 140 LINE SMOOTH",
"207 140 OFFCURVE",
"127 210 OFFCURVE",
"127 306 CURVE SMOOTH",
"127 414 OFFCURVE",
"201 468 OFFCURVE",
"301 478 CURVE",
"297 518 LINE"
);
}
);
width = 1236;
},
{
layerId = "1E61A082-F045-49A7-AB52-DD1B03FD9B54";
paths = (
{
closed = 1;
nodes = (
"786 360 OFFCURVE",
"950 503 OFFCURVE",
"950 724 CURVE SMOOTH",
"950 901 OFFCURVE",
"851 1007 OFFCURVE",
"730 1048 CURVE",
"566 1088 LINE",
"322 1088 OFFCURVE",
"158 945 OFFCURVE",
"158 724 CURVE SMOOTH",
"158 503 OFFCURVE",
"322 360 OFFCURVE",
"554 360 CURVE SMOOTH"
);
},
{
closed = 1;
nodes = (
"352 400 OFFCURVE",
"206 527 OFFCURVE",
"206 724 CURVE SMOOTH",
"206 921 OFFCURVE",
"352 1048 OFFCURVE",
"554 1048 CURVE SMOOTH",
"756 1048 OFFCURVE",
"902 921 OFFCURVE",
"902 724 CURVE SMOOTH",
"902 527 OFFCURVE",
"756 400 OFFCURVE",
"554 400 CURVE SMOOTH"
);
},
{
closed = 1;
nodes = (
"730 1048 LINE",
"1118 1048 LINE",
"1118 1088 LINE",
"566 1088 LINE"
);
},
{
closed = 1;
nodes = (
"153 510 OFFCURVE",
"38 438 OFFCURVE",
"38 303 CURVE SMOOTH",
"38 181 OFFCURVE",
"136 100 OFFCURVE",
"284 100 CURVE SMOOTH",
"854 100 LINE SMOOTH",
"996 100 OFFCURVE",
"1056 32 OFFCURVE",
"1056 -90 CURVE SMOOTH",
"1056 -213 OFFCURVE",
"973 -340 OFFCURVE",
"740 -340 CURVE SMOOTH",
"446 -340 LINE SMOOTH",
"241 -340 OFFCURVE",
"152 -252 OFFCURVE",
"152 -114 CURVE SMOOTH",
"152 7 OFFCURVE",
"240 75 OFFCURVE",
"290 100 CURVE",
"270 131 LINE",
"196 94 OFFCURVE",
"104 17 OFFCURVE",
"104 -114 CURVE SMOOTH",
"104 -280 OFFCURVE",
"214 -380 OFFCURVE",
"446 -380 CURVE SMOOTH",
"740 -380 LINE SMOOTH",
"1003 -380 OFFCURVE",
"1102 -232 OFFCURVE",
"1102 -88 CURVE SMOOTH",
"1102 55 OFFCURVE",
"1024 140 OFFCURVE",
"856 140 CURVE SMOOTH",
"288 140 LINE SMOOTH",
"166 140 OFFCURVE",
"86 209 OFFCURVE",
"86 303 CURVE SMOOTH",
"86 410 OFFCURVE",
"164 464 OFFCURVE",
"270 474 CURVE",
"266 514 LINE"
);
}
);
width = 1164;
},
{
layerId = "642E5713-E15A-4A7E-A28E-9A6B75A6585C";
paths = (
{
closed = 1;
nodes = (
"938 394 OFFCURVE",
"1129 528 OFFCURVE",
"1129 742 CURVE SMOOTH",
"1129 867 OFFCURVE",
"1057 943 OFFCURVE",
"966 977 CURVE",
"644 1130 LINE",
"346 1130 OFFCURVE",
"152 986 OFFCURVE",
"152 762 CURVE SMOOTH",
"152 538 OFFCURVE",
"346 394 OFFCURVE",
"642 394 CURVE SMOOTH"
);
},
{
closed = 1;
nodes = (
"523 540 OFFCURVE",
"444 630 OFFCURVE",
"444 764 CURVE SMOOTH",
"444 898 OFFCURVE",
"523 988 OFFCURVE",
"642 988 CURVE SMOOTH",
"761 988 OFFCURVE",
"840 898 OFFCURVE",
"840 764 CURVE SMOOTH",
"840 630 OFFCURVE",
"761 540 OFFCURVE",
"642 540 CURVE SMOOTH"
);
},
{
closed = 1;
nodes = (
"966 977 LINE",
"1266 977 LINE",
"1266 1130 LINE",
"644 1130 LINE"
);
},
{
closed = 1;
nodes = (
"228 592 OFFCURVE",
"68 512 OFFCURVE",
"68 317 CURVE SMOOTH",
"68 139 OFFCURVE",
"218 26 OFFCURVE",
"414 26 CURVE SMOOTH",
"898 26 LINE SMOOTH",
"977 26 OFFCURVE",
"1010 -11 OFFCURVE",
"1010 -70 CURVE SMOOTH",
"1010 -152 OFFCURVE",
"937 -222 OFFCURVE",
"775 -222 CURVE SMOOTH",
"543 -222 LINE SMOOTH",
"393 -222 OFFCURVE",
"347 -155 OFFCURVE",
"347 -63 CURVE SMOOTH",
"347 -9 OFFCURVE",
"364 24 OFFCURVE",
"397 68 CURVE",
"381 92 LINE",
"263 56 OFFCURVE",
"135 7 OFFCURVE",
"135 -148 CURVE SMOOTH",
"135 -295 OFFCURVE",
"274 -380 OFFCURVE",
"515 -380 CURVE SMOOTH",
"767 -380 LINE SMOOTH",
"1082 -380 OFFCURVE",
"1264 -247 OFFCURVE",
"1264 -18 CURVE SMOOTH",
"1264 156 OFFCURVE",
"1153 270 OFFCURVE",
"918 270 CURVE SMOOTH",
"408 270 LINE SMOOTH",
"330 270 OFFCURVE",
"276 309 OFFCURVE",
"276 382 CURVE SMOOTH",
"276 455 OFFCURVE",
"330 494 OFFCURVE",
"408 494 CURVE",
"414 592 LINE"
);
}
);
width = 1320;
},
{
layerId = "AF891779-7DE6-4679-9CA2-17B922C1DF84";
paths = (
{
closed = 1;
nodes = (
"966 410 OFFCURVE",
"1155 550 OFFCURVE",
"1155 770 CURVE SMOOTH",
"1155 890 OFFCURVE",
"1093 961 OFFCURVE",
"1020 997 CURVE",
"676 1170 LINE",
"382 1170 OFFCURVE",
"190 1020 OFFCURVE",
"190 790 CURVE SMOOTH",
"190 560 OFFCURVE",
"382 410 OFFCURVE",
"674 410 CURVE SMOOTH"
);
},
{
closed = 1;
nodes = (
"557 574 OFFCURVE",
"480 662 OFFCURVE",
"480 792 CURVE SMOOTH",
"480 922 OFFCURVE",
"557 1010 OFFCURVE",
"674 1010 CURVE SMOOTH",
"791 1010 OFFCURVE",
"868 922 OFFCURVE",
"868 792 CURVE SMOOTH",
"868 662 OFFCURVE",
"791 574 OFFCURVE",
"674 574 CURVE SMOOTH"
);
},
{
closed = 1;
nodes = (
"1020 997 LINE",
"1288 997 LINE",
"1288 1170 LINE",
"676 1170 LINE"
);
},
{
closed = 1;
nodes = (
"260 602 OFFCURVE",
"100 515 OFFCURVE",
"100 316 CURVE SMOOTH",
"100 150 OFFCURVE",
"230 32 OFFCURVE",
"426 32 CURVE SMOOTH",
"960 32 LINE SMOOTH",
"1039 32 OFFCURVE",
"1072 -4 OFFCURVE",
"1072 -62 CURVE SMOOTH",
"1072 -138 OFFCURVE",
"999 -202 OFFCURVE",
"837 -202 CURVE SMOOTH",
"575 -202 LINE SMOOTH",
"425 -202 OFFCURVE",
"379 -139 OFFCURVE",
"379 -53 CURVE SMOOTH",
"379 -3 OFFCURVE",
"396 27 OFFCURVE",
"429 68 CURVE",
"393 112 LINE",
"301 77 OFFCURVE",
"167 28 OFFCURVE",
"167 -124 CURVE SMOOTH",
"167 -286 OFFCURVE",
"306 -380 OFFCURVE",
"547 -380 CURVE SMOOTH",
"829 -380 LINE SMOOTH",
"1144 -380 OFFCURVE",
"1326 -249 OFFCURVE",
"1326 -24 CURVE SMOOTH",
"1326 158 OFFCURVE",
"1215 278 OFFCURVE",
"980 278 CURVE SMOOTH",
"440 278 LINE SMOOTH",
"362 278 OFFCURVE",
"308 315 OFFCURVE",
"308 384 CURVE SMOOTH",
"308 453 OFFCURVE",
"362 490 OFFCURVE",
"440 490 CURVE",
"446 602 LINE"
);
}
);
width = 1398;
}
);
leftKerningGroup = g;
rightKerningGroup = g;
unicode = 0067;
},
{
glyphname = h;
lastChange = "2020-08-20 00:24:18 +0000";
layers = (
{
hints = (
{
origin = "{0, 3}";
scale = "{-0.9, 1}";
type = Corner;
name = _corner.Serif;
},
{
origin = "{0, 0}";
type = Corner;
name = _corner.Serif;
options = 1;
},
{
origin = "{0, 1}";
scale = "{-1, 1}";
type = Corner;
name = _corner.Serif;
},
{
origin = "{1, 7}";
type = Corner;
name = _corner.Serif;
},
{
origin = "{1, 8}";
scale = "{-0.86, 1}";
type = Corner;
name = _corner.Serif;
options = 1;
}
);
layerId = "CA54B7DC-FBBB-40FE-ACF3-AABDD76D6A7B";
paths = (
{
closed = 1;
nodes = (
"305 0 LINE",
"353 0 LINE",
"353 1520 LINE",
"305 1520 LINE"
);
},
{
closed = 1;
nodes = (
"353 552 LINE",
"353 914 OFFCURVE",
"557 1076 OFFCURVE",
"775 1076 CURVE SMOOTH",
"937 1076 OFFCURVE",
"1037 1002 OFFCURVE",
"1037 824 CURVE SMOOTH",
"1037 0 LINE",
"1085 0 LINE",
"1085 824 LINE SMOOTH",
"1085 1034 OFFCURVE",
"957 1116 OFFCURVE",
"777 1116 CURVE SMOOTH",
"539 1116 OFFCURVE",
"315 954 OFFCURVE",
"315 552 CURVE"
);
}
);
width = 1363;
},
{
hints = (
{
origin = "{0, 3}";
scale = "{-0.9, 1}";
type = Corner;
name = _corner.Serif;
},
{
origin = "{0, 0}";
type = Corner;
name = _corner.Serif;
options = 1;
},
{
origin = "{0, 1}";
scale = "{-1, 1}";
type = Corner;
name = _corner.Serif;
},
{
origin = "{1, 7}";
type = Corner;
name = _corner.Serif;
},
{
origin = "{1, 8}";
scale = "{-0.86, 1}";
type = Corner;
name = _corner.Serif;
options = 1;
}
);
layerId = "1E61A082-F045-49A7-AB52-DD1B03FD9B54";
paths = (
{
closed = 1;
nodes = (
"285 0 LINE",
"333 0 LINE",
"333 1480 LINE",
"285 1480 LINE"
);
},
{
closed = 1;
nodes = (
"333 552 LINE",
"333 900 OFFCURVE",
"537 1056 OFFCURVE",
"755 1056 CURVE SMOOTH",
"917 1056 OFFCURVE",
"1017 985 OFFCURVE",
"1017 814 CURVE SMOOTH",
"1017 0 LINE",
"1065 0 LINE",
"1065 814 LINE SMOOTH",
"1065 1017 OFFCURVE",
"937 1096 OFFCURVE",
"757 1096 CURVE SMOOTH",
"519 1096 OFFCURVE",
"295 940 OFFCURVE",
"295 552 CURVE"
);
}
);
width = 1322;
},
{
hints = (
{
origin = "{0, 0}";
type = Corner;
name = _corner.Serif;
},
{
origin = "{0, 1}";
scale = "{-0.76, 1}";
type = Corner;
name = _corner.Serif;
options = 1;
},
{
origin = "{1, 7}";
scale = "{0.76, 1}";
type = Corner;
name = _corner.Serif;
options = 1;
},
{
origin = "{1, 8}";
scale = "{-0.8, 1}";
type = Corner;
name = _corner.Serif;
},
{
origin = "{0, 3}";
scale = "{-0.9, 0.98}";
type = Corner;
name = _corner.Serif;
}
);
layerId = "642E5713-E15A-4A7E-A28E-9A6B75A6585C";
paths = (
{
closed = 1;
nodes = (
"242 0 LINE",
"520 0 LINE",
"520 1480 LINE",
"242 1480 LINE"
);
},
{
closed = 1;
nodes = (
"520 654 LINE",
"520 883 OFFCURVE",
"644 946 OFFCURVE",
"756 946 CURVE SMOOTH",
"856 946 OFFCURVE",
"912 894 OFFCURVE",
"912 796 CURVE SMOOTH",
"912 0 LINE",
"1190 0 LINE",
"1190 802 LINE SMOOTH",
"1190 1039 OFFCURVE",
"1046 1140 OFFCURVE",
"840 1140 CURVE SMOOTH",
"598 1140 OFFCURVE",
"458 1008 OFFCURVE",
"458 654 CURVE"
);
}
);
width = 1396;
},
{
hints = (
{
origin = "{0, 0}";
type = Corner;
name = _corner.Serif;
},
{
origin = "{0, 1}";
scale = "{-0.7, 1}";
type = Corner;
name = _corner.Serif;
options = 1;
},
{
origin = "{1, 7}";
scale = "{0.7, 1}";
type = Corner;
name = _corner.Serif;
options = 1;
},
{
origin = "{1, 8}";
scale = "{-0.8, 1}";
type = Corner;
name = _corner.Serif;
},
{
origin = "{0, 3}";
scale = "{-0.9, 0.98}";
type = Corner;
name = _corner.Serif;
}
);
layerId = "AF891779-7DE6-4679-9CA2-17B922C1DF84";
paths = (
{
closed = 1;
nodes = (
"256 0 LINE",
"534 0 LINE",
"534 1530 LINE",
"256 1530 LINE"
);
},
{
closed = 1;
nodes = (
"534 694 LINE",
"534 904 OFFCURVE",
"652 974 OFFCURVE",
"782 974 CURVE SMOOTH",
"885 974 OFFCURVE",
"946 926 OFFCURVE",
"946 832 CURVE SMOOTH",
"946 0 LINE",
"1224 0 LINE",
"1224 854 LINE SMOOTH",
"1224 1083 OFFCURVE",
"1077 1180 OFFCURVE",
"866 1180 CURVE SMOOTH",
"583 1180 OFFCURVE",
"452 1010 OFFCURVE",
"452 694 CURVE"
);
}
);
width = 1444;
}
);
leftKerningGroup = l;
leftMetricsKey = l;
rightKerningGroup = n;
rightMetricsKey = n;
unicode = 0068;
},
{
glyphname = idotless;
lastChange = "2020-08-19 23:54:52 +0000";
layers = (
{
anchors = (
{
name = top;
position = "{325, 1100}";
}
);
hints = (
{
origin = "{0, 3}";
scale = "{-0.9, 1}";
type = Corner;
name = _corner.Serif;
},
{
origin = "{0, 0}";
type = Corner;
name = _corner.Serif;
options = 1;
},
{
origin = "{0, 1}";
scale = "{-0.9, 1}";
type = Corner;
name = _corner.Serif;
}
);
layerId = "CA54B7DC-FBBB-40FE-ACF3-AABDD76D6A7B";
paths = (
{
closed = 1;
nodes = (
"305 0 LINE",
"353 0 LINE",
"353 1100 LINE",
"305 1100 LINE"
);
}
);
width = 646;
},
{
anchors = (
{
name = top;
position = "{305, 1080}";
}
);
hints = (
{
origin = "{0, 3}";
scale = "{-0.9, 1}";
type = Corner;
name = _corner.Serif;
},
{
origin = "{0, 0}";
type = Corner;
name = _corner.Serif;
options = 1;
},
{
origin = "{0, 1}";
scale = "{-0.9, 1}";
type = Corner;
name = _corner.Serif;
}
);
layerId = "1E61A082-F045-49A7-AB52-DD1B03FD9B54";
paths = (
{
closed = 1;
nodes = (
"285 0 LINE",
"333 0 LINE",
"333 1080 LINE",
"285 1080 LINE"
);
}
);
width = 601;
},
{
anchors = (
{
name = top;
position = "{376, 1120}";
}
);
hints = (
{
origin = "{0, 3}";
scale = "{-0.9, 0.98}";
type = Corner;
name = _corner.Serif;
},
{
origin = "{0, 0}";
type = Corner;
name = _corner.Serif;
options = 1;
},
{
origin = "{0, 1}";
scale = "{-0.9, 1}";
type = Corner;
name = _corner.Serif;
}
);
layerId = "642E5713-E15A-4A7E-A28E-9A6B75A6585C";
paths = (
{
closed = 1;
nodes = (
"242 0 LINE",
"520 0 LINE",
"520 1120 LINE",
"242 1120 LINE"
);
}
);
width = 744;
},
{
anchors = (
{
name = top;
position = "{390, 1160}";
}
);
hints = (
{
origin = "{0, 3}";
scale = "{-0.9, 0.98}";
type = Corner;
name = _corner.Serif;
},
{
origin = "{0, 0}";
type = Corner;
name = _corner.Serif;
options = 1;
},
{
origin = "{0, 1}";
scale = "{-0.9, 1}";
type = Corner;
name = _corner.Serif;
}
);
layerId = "AF891779-7DE6-4679-9CA2-17B922C1DF84";
paths = (
{
closed = 1;
nodes = (
"256 0 LINE",
"534 0 LINE",
"534 1160 LINE",
"256 1160 LINE"
);
}
);
width = 778;
}
);
leftKerningGroup = n;
leftMetricsKey = l;
rightKerningGroup = l;
rightMetricsKey = l;
unicode = 0131;
},
{
glyphname = jdotless;
lastChange = "2020-08-20 00:22:27 +0000";
layers = (
{
anchors = (
{
name = top;
position = "{221, 1100}";
}
);
hints = (
{
origin = "{0, 3}";
scale = "{-0.9, 1}";
type = Corner;
name = _corner.Serif;
}
);
layerId = "CA54B7DC-FBBB-40FE-ACF3-AABDD76D6A7B";
paths = (
{
closed = 1;
nodes = (
"201 -110 LINE",
"249 -106 LINE",
"249 1100 LINE",
"201 1100 LINE"
);
},
{
closed = 1;
nodes = (
"163 -400 OFFCURVE",
"249 -300 OFFCURVE",
"249 -106 CURVE",
"201 -110 LINE",
"201 -278 OFFCURVE",
"133 -360 OFFCURVE",
"11 -360 CURVE SMOOTH",
"-97 -360 OFFCURVE",
"-151 -306 OFFCURVE",
"-149 -203 CURVE SMOOTH",
"-148 -164 OFFCURVE",
"-154 -144 OFFCURVE",
"-178 -144 CURVE SMOOTH",
"-203 -144 OFFCURVE",
"-213 -164 OFFCURVE",
"-213 -204 CURVE SMOOTH",
"-213 -334 OFFCURVE",
"-113 -400 OFFCURVE",
"10 -400 CURVE SMOOTH"
);
}
);
width = 495;
},
{
anchors = (
{
name = top;
position = "{285, 1080}";
}
);
hints = (
{
origin = "{0, 3}";
scale = "{-0.9, 1}";
type = Corner;
name = _corner.Serif;
}
);
layerId = "1E61A082-F045-49A7-AB52-DD1B03FD9B54";
paths = (
{
closed = 1;
nodes = (
"265 -110 LINE",
"313 -106 LINE",
"313 1080 LINE",
"265 1080 LINE"
);
},
{
closed = 1;
nodes = (
"227 -400 OFFCURVE",
"313 -300 OFFCURVE",
"313 -106 CURVE",
"265 -110 LINE",
"265 -278 OFFCURVE",
"197 -360 OFFCURVE",
"75 -360 CURVE SMOOTH",
"-33 -360 OFFCURVE",
"-92 -306 OFFCURVE",
"-85 -203 CURVE SMOOTH",
"-82 -164 OFFCURVE",
"-88 -144 OFFCURVE",
"-112 -144 CURVE SMOOTH",
"-137 -144 OFFCURVE",
"-149 -166 OFFCURVE",
"-149 -210 CURVE SMOOTH",
"-149 -336 OFFCURVE",
"-49 -400 OFFCURVE",
"74 -400 CURVE SMOOTH"
);
}
);
width = 472;
},
{
anchors = (
{
name = top;
position = "{358, 1120}";
}
);
hints = (
{
origin = "{0, 3}";
scale = "{-0.9, 0.98}";
type = Corner;
name = _corner.Serif;
}
);
layerId = "642E5713-E15A-4A7E-A28E-9A6B75A6585C";
paths = (
{
closed = 1;
nodes = (
"222 -125 LINE",
"502 -18 LINE",
"502 1120 LINE",
"222 1120 LINE"
);
},
{
closed = 1;
nodes = (
"367 -400 OFFCURVE",
"502 -270 OFFCURVE",
"502 -18 CURVE",
"222 -125 LINE",
"222 -220 OFFCURVE",
"188 -254 OFFCURVE",
"139 -254 CURVE SMOOTH",
"92 -254 OFFCURVE",
"75 -235 OFFCURVE",
"47 -188 CURVE SMOOTH",
"12 -130 OFFCURVE",
"-19 -100 OFFCURVE",
"-82 -100 CURVE SMOOTH",
"-143 -100 OFFCURVE",
"-192 -137 OFFCURVE",
"-192 -208 CURVE SMOOTH",
"-192 -327 OFFCURVE",
"-78 -400 OFFCURVE",
"128 -400 CURVE SMOOTH"
);
}
);
width = 632;
},
{
anchors = (
{
name = top;
position = "{388, 1160}";
}
);
hints = (
{
origin = "{0, 3}";
scale = "{-0.9, 0.98}";
type = Corner;
name = _corner.Serif;
}
);
layerId = "AF891779-7DE6-4679-9CA2-17B922C1DF84";
paths = (
{
closed = 1;
nodes = (
"252 -105 LINE",
"532 -18 LINE",
"532 1160 LINE",
"252 1160 LINE"
);
},
{
closed = 1;
nodes = (
"397 -400 OFFCURVE",
"532 -270 OFFCURVE",
"532 -18 CURVE",
"252 -105 LINE",
"252 -200 OFFCURVE",
"218 -234 OFFCURVE",
"169 -234 CURVE SMOOTH",
"124 -234 OFFCURVE",
"102 -218 OFFCURVE",
"69 -183 CURVE SMOOTH",
"25 -136 OFFCURVE",
"-4 -100 OFFCURVE",
"-64 -100 CURVE SMOOTH",
"-123 -100 OFFCURVE",
"-170 -139 OFFCURVE",
"-170 -208 CURVE SMOOTH",
"-170 -327 OFFCURVE",
"-40 -400 OFFCURVE",
"158 -400 CURVE SMOOTH"
);
}
);
width = 727;
}
);
leftKerningGroup = p;
rightKerningGroup = q;
unicode = 0237;
},
{
glyphname = k;
lastChange = "2020-08-20 01:16:39 +0000";
layers = (
{
hints = (
{
origin = "{0, 0}";
type = Corner;
name = _corner.Serif;
options = 1;
},
{
origin = "{0, 1}";
scale = "{-0.9, 1}";
type = Corner;
name = _corner.Serif;
},
{
origin = "{0, 3}";
scale = "{-0.9, 1}";
type = Corner;
name = _corner.Serif;
},
{
origin = "{1, 0}";
scale = "{-1.16, 1}";
type = Corner;
name = _corner.Serif;
options = 1;
},
{
origin = "{1, 3}";
scale = "{0.46, 1}";
type = Corner;
name = _corner.Serif;
},
{
origin = "{2, 2}";
scale = "{1.2, 1}";
type = Corner;
name = _corner.Serif;
},
{
origin = "{2, 3}";
scale = "{-0.5, 1}";
type = Corner;
name = _corner.Serif;
options = 1;
}
);
layerId = "CA54B7DC-FBBB-40FE-ACF3-AABDD76D6A7B";
paths = (
{
closed = 1;
nodes = (
"305 0 LINE",
"353 0 LINE",
"353 1520 LINE",
"305 1520 LINE"
);
},
{
closed = 1;
nodes = (
"1042 1100 LINE",
"319 436 LINE",
"344 402 LINE",
"1107 1100 LINE"
);
},
{
closed = 1;
nodes = (
"592 646 LINE",
"559 614 LINE",
"1081 0 LINE",
"1144 0 LINE"
);
}
);
width = 1336;
},
{
hints = (
{
origin = "{0, 0}";
type = Corner;
name = _corner.Serif;
options = 1;
},
{
origin = "{0, 1}";
scale = "{-0.9, 1}";
type = Corner;
name = _corner.Serif;
},
{
origin = "{0, 3}";
scale = "{-0.9, 1}";
type = Corner;
name = _corner.Serif;
},
{
origin = "{1, 0}";
scale = "{-1.16, 1}";
type = Corner;
name = _corner.Serif;
options = 1;
},
{
origin = "{1, 3}";
scale = "{0.46, 1}";
type = Corner;
name = _corner.Serif;
},
{
origin = "{2, 2}";
scale = "{1.2, 1}";
type = Corner;
name = _corner.Serif;
},
{
origin = "{2, 3}";
scale = "{-0.5, 1}";
type = Corner;
name = _corner.Serif;
options = 1;
}
);
layerId = "1E61A082-F045-49A7-AB52-DD1B03FD9B54";
paths = (
{
closed = 1;
nodes = (
"285 0 LINE",
"333 0 LINE",
"333 1520 LINE",
"285 1520 LINE"
);
},
{
closed = 1;
nodes = (
"1024 1080 LINE",
"299 426 LINE",
"321 392 LINE",
"1087 1080 LINE"
);
},
{
closed = 1;
nodes = (
"572 646 LINE",
"539 614 LINE",
"1061 0 LINE",
"1124 0 LINE"
);
}
);
width = 1279;
},
{
hints = (
{
origin = "{0, 0}";
type = Corner;
name = _corner.Serif;
options = 1;
},
{
origin = "{0, 1}";
scale = "{-0.74, 1}";
type = Corner;
name = _corner.Serif;
},
{
origin = "{0, 3}";
scale = "{-0.9, 0.98}";
type = Corner;
name = _corner.Serif;
},
{
origin = "{1, 0}";
scale = "{-1.93, 0.98}";
type = Corner;
name = _corner.Serif;
options = 1;
},
{
origin = "{1, 3}";
scale = "{0.02, 0.98}";
type = Corner;
name = _corner.Serif;
},
{
origin = "{2, 2}";
scale = "{1.34, 1}";
type = Corner;
name = _corner.Serif;
},
{
origin = "{2, 3}";
scale = "{-0.02, 1}";
type = Corner;
name = _corner.Serif;
options = 1;
}
);
layerId = "642E5713-E15A-4A7E-A28E-9A6B75A6585C";
paths = (
{
closed = 1;
nodes = (
"242 0 LINE",
"520 0 LINE",
"520 1480 LINE",
"242 1480 LINE"
);
},
{
closed = 1;
nodes = (
"1086 1120 LINE",
"390 415 LINE",
"501 298 LINE",
"1317 1120 LINE"
);
},
{
closed = 1;
nodes = (
"810 739 LINE",
"624 564 LINE",
"1026 0 LINE",
"1347 0 LINE"
);
}
);
width = 1387;
},
{
hints = (
{
origin = "{0, 0}";
type = Corner;
name = _corner.Serif;
options = 1;
},
{
origin = "{0, 1}";
scale = "{-0.7, 1}";
type = Corner;
name = _corner.Serif;
},
{
origin = "{0, 3}";
scale = "{-0.9, 0.98}";
type = Corner;
name = _corner.Serif;
},
{
origin = "{1, 0}";
scale = "{-2.1, 0.98}";
type = Corner;
name = _corner.Serif;
options = 1;
},
{
origin = "{1, 3}";
scale = "{0.02, 0.98}";
type = Corner;
name = _corner.Serif;
},
{
origin = "{2, 2}";
scale = "{1.46, 1}";
type = Corner;
name = _corner.Serif;
},
{
origin = "{2, 3}";
scale = "{-0.02, 1}";
type = Corner;
name = _corner.Serif;
options = 1;
}
);
layerId = "AF891779-7DE6-4679-9CA2-17B922C1DF84";
paths = (
{
closed = 1;
nodes = (
"256 0 LINE",
"534 0 LINE",
"534 1530 LINE",
"256 1530 LINE"
);
},
{
closed = 1;
nodes = (
"1097 1160 LINE",
"401 442 LINE",
"519 318 LINE",
"1345 1160 LINE"
);
},
{
closed = 1;
nodes = (
"826 762 LINE",
"642 584 LINE",
"1060 0 LINE",
"1381 0 LINE"
);
}
);
width = 1451;
}
);
leftKerningGroup = l;
leftMetricsKey = l;
rightKerningGroup = k;
rightMetricsKey = x;
unicode = 006B;
},
{
glyphname = l;
lastChange = "2020-08-19 23:53:59 +0000";
layers = (
{
hints = (
{
origin = "{0, 3}";
scale = "{-0.9, 1}";
type = Corner;
name = _corner.Serif;
},
{
origin = "{0, 0}";
type = Corner;
name = _corner.Serif;
options = 1;
},
{
origin = "{0, 1}";
scale = "{-0.9, 1}";
type = Corner;
name = _corner.Serif;
}
);
layerId = "CA54B7DC-FBBB-40FE-ACF3-AABDD76D6A7B";
paths = (
{
closed = 1;
nodes = (
"305 0 LINE",
"353 0 LINE",
"353 1520 LINE",
"305 1520 LINE"
);
}
);
width = 646;
},
{
hints = (
{
origin = "{0, 0}";
type = Corner;
name = _corner.Serif;
},
{
origin = "{0, 1}";
scale = "{-0.9, 1}";
type = Corner;
name = _corner.Serif;
options = 1;
},
{
origin = "{0, 3}";
scale = "{-0.9, 1}";
type = Corner;
name = _corner.Serif;
}
);
layerId = "1E61A082-F045-49A7-AB52-DD1B03FD9B54";
paths = (
{
closed = 1;
nodes = (
"285 0 LINE",
"333 0 LINE",
"333 1480 LINE",
"285 1480 LINE"
);
}
);
width = 601;
},
{
hints = (
{
origin = "{0, 3}";
scale = "{-0.9, 0.98}";
type = Corner;
name = _corner.Serif;
},
{
origin = "{0, 0}";
type = Corner;
name = _corner.Serif;
options = 1;
},
{
origin = "{0, 1}";
scale = "{-0.9, 1}";
type = Corner;
name = _corner.Serif;
}
);
layerId = "642E5713-E15A-4A7E-A28E-9A6B75A6585C";
paths = (
{
closed = 1;
nodes = (
"242 0 LINE",
"522 0 LINE",
"522 1480 LINE",
"242 1480 LINE"
);
}
);
width = 746;
},
{
hints = (
{
origin = "{0, 3}";
scale = "{-0.9, 0.98}";
type = Corner;
name = _corner.Serif;
},
{
origin = "{0, 0}";
type = Corner;
name = _corner.Serif;
options = 1;
},
{
origin = "{0, 1}";
scale = "{-0.9, 1}";
type = Corner;
name = _corner.Serif;
}
);
layerId = "AF891779-7DE6-4679-9CA2-17B922C1DF84";
paths = (
{
closed = 1;
nodes = (
"256 0 LINE",
"536 0 LINE",
"536 1530 LINE",
"256 1530 LINE"
);
}
);
width = 780;
}
);
leftKerningGroup = l;
rightKerningGroup = l;
unicode = 006C;
},
{
glyphname = m;
lastChange = "2020-08-20 00:18:57 +0000";
layers = (
{
hints = (
{
origin = "{0, 5}";
scale = "{-0.9, 1}";
type = Corner;
name = _corner.Serif;
},
{
origin = "{0, 0}";
type = Corner;
name = _corner.Serif;
options = 1;
},
{
origin = "{0, 1}";
scale = "{-0.86, 1}";
type = Corner;
name = _corner.Serif;
},
{
origin = "{1, 7}";
scale = "{0.86, 1}";
type = Corner;
name = _corner.Serif;
},
{
origin = "{1, 8}";
scale = "{-0.86, 1}";
type = Corner;
name = _corner.Serif;
options = 1;
},
{
origin = "{2, 7}";
scale = "{0.86, 1}";
type = Corner;
name = _corner.Serif;
options = 1;
},
{
origin = "{2, 8}";
scale = "{-0.86, 1}";
type = Corner;
name = _corner.Serif;
}
);
layerId = "CA54B7DC-FBBB-40FE-ACF3-AABDD76D6A7B";
paths = (
{
closed = 1;
nodes = (
"333 0 LINE",
"381 0 LINE",
"381 734 LINE",
"377 734 LINE",
"377 1100 LINE",
"333 1100 LINE"
);
},
{
closed = 1;
nodes = (
"381 674 LINE",
"381 952 OFFCURVE",
"535 1076 OFFCURVE",
"697 1076 CURVE SMOOTH",
"813 1076 OFFCURVE",
"883 1022 OFFCURVE",
"883 892 CURVE SMOOTH",
"883 0 LINE",
"931 0 LINE",
"931 892 LINE SMOOTH",
"931 1054 OFFCURVE",
"833 1116 OFFCURVE",
"699 1116 CURVE SMOOTH",
"511 1116 OFFCURVE",
"345 982 OFFCURVE",
"345 674 CURVE"
);
},
{
closed = 1;
nodes = (
"931 674 LINE",
"931 952 OFFCURVE",
"1085 1076 OFFCURVE",
"1247 1076 CURVE SMOOTH",
"1363 1076 OFFCURVE",
"1433 1022 OFFCURVE",
"1433 892 CURVE SMOOTH",
"1433 0 LINE",
"1481 0 LINE",
"1481 892 LINE SMOOTH",
"1481 1054 OFFCURVE",
"1385 1116 OFFCURVE",
"1249 1116 CURVE SMOOTH",
"1061 1116 OFFCURVE",
"895 982 OFFCURVE",
"895 674 CURVE"
);
}
);
width = 1759;
},
{
hints = (
{
origin = "{0, 5}";
scale = "{-0.9, 1}";
type = Corner;
name = _corner.Serif;
},
{
origin = "{0, 0}";
type = Corner;
name = _corner.Serif;
options = 1;
},
{
origin = "{0, 1}";
scale = "{-0.86, 1}";
type = Corner;
name = _corner.Serif;
},
{
origin = "{1, 7}";
scale = "{0.86, 1}";
type = Corner;
name = _corner.Serif;
},
{
origin = "{1, 8}";
scale = "{-0.86, 1}";
type = Corner;
name = _corner.Serif;
options = 1;
},
{
origin = "{2, 7}";
scale = "{0.86, 1}";
type = Corner;
name = _corner.Serif;
options = 1;
},
{
origin = "{2, 8}";
scale = "{-0.86, 1}";
type = Corner;
name = _corner.Serif;
}
);
layerId = "1E61A082-F045-49A7-AB52-DD1B03FD9B54";
paths = (
{
closed = 1;
nodes = (
"308 0 LINE",
"356 0 LINE",
"356 724 LINE",
"352 724 LINE",
"352 1080 LINE",
"308 1080 LINE"
);
},
{
closed = 1;
nodes = (
"356 664 LINE",
"356 935 OFFCURVE",
"510 1056 OFFCURVE",
"672 1056 CURVE SMOOTH",
"788 1056 OFFCURVE",
"858 1005 OFFCURVE",
"858 882 CURVE SMOOTH",
"858 0 LINE",
"906 0 LINE",
"906 882 LINE SMOOTH",
"906 1037 OFFCURVE",
"808 1096 OFFCURVE",
"674 1096 CURVE SMOOTH",
"486 1096 OFFCURVE",
"320 965 OFFCURVE",
"320 664 CURVE"
);
},
{
closed = 1;
nodes = (
"906 664 LINE",
"906 935 OFFCURVE",
"1060 1056 OFFCURVE",
"1222 1056 CURVE SMOOTH",
"1338 1056 OFFCURVE",
"1408 1005 OFFCURVE",
"1408 882 CURVE SMOOTH",
"1408 0 LINE",
"1456 0 LINE",
"1456 882 LINE SMOOTH",
"1456 1037 OFFCURVE",
"1360 1096 OFFCURVE",
"1224 1096 CURVE SMOOTH",
"1036 1096 OFFCURVE",
"870 965 OFFCURVE",
"870 664 CURVE"
);
}
);
width = 1713;
},
{
hints = (
{
origin = "{0, 5}";
scale = "{-0.9, 0.98}";
type = Corner;
name = _corner.Serif;
},
{
origin = "{0, 0}";
type = Corner;
name = _corner.Serif;
options = 1;
},
{
origin = "{0, 1}";
scale = "{-0.58, 1}";
type = Corner;
name = _corner.Serif;
},
{
origin = "{1, 7}";
scale = "{0.58, 1}";
type = Corner;
name = _corner.Serif;
},
{
origin = "{1, 8}";
scale = "{-0.58, 1}";
type = Corner;
name = _corner.Serif;
options = 1;
},
{
origin = "{2, 7}";
scale = "{0.58, 1}";
type = Corner;
name = _corner.Serif;
options = 1;
},
{
origin = "{2, 8}";
scale = "{-0.8, 1}";
type = Corner;
name = _corner.Serif;
}
);
layerId = "642E5713-E15A-4A7E-A28E-9A6B75A6585C";
paths = (
{
closed = 1;
nodes = (
"260 0 LINE",
"532 0 LINE",
"532 740 LINE",
"482 740 LINE",
"482 1120 LINE",
"260 1120 LINE"
);
},
{
closed = 1;
nodes = (
"532 716 LINE",
"532 886 OFFCURVE",
"632 946 OFFCURVE",
"724 946 CURVE SMOOTH",
"806 946 OFFCURVE",
"850 902 OFFCURVE",
"850 826 CURVE SMOOTH",
"850 0 LINE",
"1122 0 LINE",
"1122 822 LINE SMOOTH",
"1122 1031 OFFCURVE",
"997 1140 OFFCURVE",
"806 1140 CURVE SMOOTH",
"562 1140 OFFCURVE",
"450 989 OFFCURVE",
"450 716 CURVE"
);
},
{
closed = 1;
nodes = (
"1122 716 LINE",
"1122 886 OFFCURVE",
"1222 946 OFFCURVE",
"1314 946 CURVE SMOOTH",
"1396 946 OFFCURVE",
"1440 902 OFFCURVE",
"1440 826 CURVE SMOOTH",
"1440 0 LINE",
"1712 0 LINE",
"1712 834 LINE SMOOTH",
"1712 1035 OFFCURVE",
"1587 1140 OFFCURVE",
"1396 1140 CURVE SMOOTH",
"1159 1140 OFFCURVE",
"1052 989 OFFCURVE",
"1052 716 CURVE"
);
}
);
width = 1918;
},
{
hints = (
{
origin = "{0, 5}";
scale = "{-0.9, 0.98}";
type = Corner;
name = _corner.Serif;
},
{
origin = "{0, 0}";
type = Corner;
name = _corner.Serif;
options = 1;
},
{
origin = "{0, 1}";
scale = "{-0.54, 1}";
type = Corner;
name = _corner.Serif;
},
{
origin = "{1, 7}";
scale = "{0.54, 1}";
type = Corner;
name = _corner.Serif;
},
{
origin = "{1, 8}";
scale = "{-0.54, 1}";
type = Corner;
name = _corner.Serif;
options = 1;
},
{
origin = "{2, 7}";
scale = "{0.54, 1}";
type = Corner;
name = _corner.Serif;
options = 1;
},
{
origin = "{2, 8}";
scale = "{-0.8, 1}";
type = Corner;
name = _corner.Serif;
}
);
layerId = "AF891779-7DE6-4679-9CA2-17B922C1DF84";
paths = (
{
closed = 1;
nodes = (
"280 0 LINE",
"552 0 LINE",
"552 810 LINE",
"504 810 LINE",
"504 1160 LINE",
"280 1160 LINE"
);
},
{
closed = 1;
nodes = (
"552 742 LINE",
"552 909 OFFCURVE",
"655 976 OFFCURVE",
"758 976 CURVE SMOOTH",
"840 976 OFFCURVE",
"888 935 OFFCURVE",
"888 854 CURVE SMOOTH",
"888 0 LINE",
"1160 0 LINE",
"1160 862 LINE SMOOTH",
"1160 1081 OFFCURVE",
"1041 1180 OFFCURVE",
"842 1180 CURVE SMOOTH",
"586 1180 OFFCURVE",
"460 1026 OFFCURVE",
"460 742 CURVE"
);
},
{
closed = 1;
nodes = (
"1160 742 LINE",
"1160 909 OFFCURVE",
"1263 976 OFFCURVE",
"1366 976 CURVE SMOOTH",
"1448 976 OFFCURVE",
"1496 935 OFFCURVE",
"1496 854 CURVE SMOOTH",
"1496 0 LINE",
"1768 0 LINE",
"1768 862 LINE SMOOTH",
"1768 1081 OFFCURVE",
"1649 1180 OFFCURVE",
"1450 1180 CURVE SMOOTH",
"1200 1180 OFFCURVE",
"1080 1026 OFFCURVE",
"1078 742 CURVE"
);
}
);
width = 1988;
}
);
leftKerningGroup = n;
leftMetricsKey = n;
rightKerningGroup = n;
rightMetricsKey = n;
unicode = 006D;
},
{
glyphname = n;
lastChange = "2020-08-20 00:24:08 +0000";
layers = (
{
hints = (
{
origin = "{0, 0}";
type = Corner;
name = _corner.Serif;
},
{
origin = "{0, 1}";
scale = "{-1, 1}";
type = Corner;
name = _corner.Serif;
options = 1;
},
{
origin = "{1, 7}";
type = Corner;
name = _corner.Serif;
options = 1;
},
{
origin = "{1, 8}";
scale = "{-0.86, 1}";
type = Corner;
name = _corner.Serif;
},
{
origin = "{0, 5}";
scale = "{-0.9, 1}";
type = Corner;
name = _corner.Serif;
}
);
layerId = "CA54B7DC-FBBB-40FE-ACF3-AABDD76D6A7B";
paths = (
{
closed = 1;
nodes = (
"333 0 LINE",
"381 0 LINE",
"381 710 LINE",
"377 710 LINE",
"377 1100 LINE",
"333 1100 LINE"
);
},
{
closed = 1;
nodes = (
"381 552 LINE",
"381 914 OFFCURVE",
"585 1076 OFFCURVE",
"803 1076 CURVE SMOOTH",
"965 1076 OFFCURVE",
"1065 1002 OFFCURVE",
"1065 824 CURVE SMOOTH",
"1065 0 LINE",
"1113 0 LINE",
"1113 824 LINE SMOOTH",
"1113 1034 OFFCURVE",
"985 1116 OFFCURVE",
"805 1116 CURVE SMOOTH",
"565 1116 OFFCURVE",
"343 954 OFFCURVE",
"343 552 CURVE"
);
}
);
width = 1391;
},
{
hints = (
{
origin = "{0, 0}";
type = Corner;
name = _corner.Serif;
},
{
origin = "{0, 1}";
scale = "{-1, 1}";
type = Corner;
name = _corner.Serif;
},
{
origin = "{1, 7}";
type = Corner;
name = _corner.Serif;
},
{
origin = "{1, 8}";
scale = "{-0.86, 1}";
type = Corner;
name = _corner.Serif;
},
{
origin = "{0, 5}";
scale = "{-0.9, 1}";
type = Corner;
name = _corner.Serif;
}
);
layerId = "1E61A082-F045-49A7-AB52-DD1B03FD9B54";
paths = (
{
closed = 1;
nodes = (
"308 0 LINE",
"356 0 LINE",
"356 700 LINE",
"352 700 LINE",
"352 1080 LINE",
"308 1080 LINE"
);
},
{
closed = 1;
nodes = (
"356 542 LINE",
"356 897 OFFCURVE",
"560 1056 OFFCURVE",
"778 1056 CURVE SMOOTH",
"940 1056 OFFCURVE",
"1040 985 OFFCURVE",
"1040 814 CURVE SMOOTH",
"1040 0 LINE",
"1088 0 LINE",
"1088 814 LINE SMOOTH",
"1088 1017 OFFCURVE",
"960 1096 OFFCURVE",
"780 1096 CURVE SMOOTH",
"540 1096 OFFCURVE",
"318 937 OFFCURVE",
"318 542 CURVE"
);
}
);
width = 1345;
},
{
hints = (
{
origin = "{0, 0}";
type = Corner;
name = _corner.Serif;
},
{
origin = "{0, 1}";
scale = "{-0.76, 1}";
type = Corner;
name = _corner.Serif;
options = 1;
},
{
origin = "{1, 7}";
scale = "{0.76, 1}";
type = Corner;
name = _corner.Serif;
options = 1;
},
{
origin = "{1, 8}";
scale = "{-0.8, 1}";
type = Corner;
name = _corner.Serif;
},
{
origin = "{0, 5}";
scale = "{-0.9, 0.98}";
type = Corner;
name = _corner.Serif;
}
);
layerId = "642E5713-E15A-4A7E-A28E-9A6B75A6585C";
paths = (
{
closed = 1;
nodes = (
"260 0 LINE",
"538 0 LINE",
"538 732 LINE",
"488 732 LINE",
"488 1120 LINE",
"260 1119 LINE"
);
},
{
closed = 1;
nodes = (
"538 654 LINE",
"538 864 OFFCURVE",
"662 946 OFFCURVE",
"774 946 CURVE SMOOTH",
"874 946 OFFCURVE",
"930 894 OFFCURVE",
"930 796 CURVE SMOOTH",
"930 0 LINE",
"1208 0 LINE",
"1208 802 LINE SMOOTH",
"1208 1039 OFFCURVE",
"1058 1140 OFFCURVE",
"846 1140 CURVE SMOOTH",
"603 1140 OFFCURVE",
"460 1016 OFFCURVE",
"460 654 CURVE"
);
}
);
width = 1414;
},
{
hints = (
{
origin = "{0, 0}";
type = Corner;
name = _corner.Serif;
},
{
origin = "{0, 1}";
scale = "{-0.7, 1}";
type = Corner;
name = _corner.Serif;
options = 1;
},
{
origin = "{1, 7}";
scale = "{0.7, 1}";
type = Corner;
name = _corner.Serif;
options = 1;
},
{
origin = "{1, 8}";
scale = "{-0.8, 1}";
type = Corner;
name = _corner.Serif;
},
{
origin = "{0, 5}";
scale = "{-0.9, 0.98}";
type = Corner;
name = _corner.Serif;
}
);
layerId = "AF891779-7DE6-4679-9CA2-17B922C1DF84";
paths = (
{
closed = 1;
nodes = (
"280 0 LINE",
"558 0 LINE",
"558 770 LINE",
"510 770 LINE",
"510 1160 LINE",
"280 1159 LINE"
);
},
{
closed = 1;
nodes = (
"558 684 LINE",
"558 902 OFFCURVE",
"676 974 OFFCURVE",
"806 974 CURVE SMOOTH",
"909 974 OFFCURVE",
"970 923 OFFCURVE",
"970 822 CURVE SMOOTH",
"970 0 LINE",
"1248 0 LINE",
"1248 844 LINE SMOOTH",
"1248 1080 OFFCURVE",
"1096 1180 OFFCURVE",
"884 1180 CURVE SMOOTH",
"590 1180 OFFCURVE",
"452 1007 OFFCURVE",
"452 684 CURVE"
);
}
);
width = 1468;
}
);
leftKerningGroup = n;
rightKerningGroup = n;
unicode = 006E;
},
{
glyphname = o;
lastChange = "2020-08-20 00:18:50 +0000";
layers = (
{
layerId = "CA54B7DC-FBBB-40FE-ACF3-AABDD76D6A7B";
paths = (
{
closed = 1;
nodes = (
"937 -16 OFFCURVE",
"1149 190 OFFCURVE",
"1149 550 CURVE SMOOTH",
"1149 910 OFFCURVE",
"937 1116 OFFCURVE",
"639 1116 CURVE SMOOTH",
"341 1116 OFFCURVE",
"129 910 OFFCURVE",
"129 550 CURVE SMOOTH",
"129 190 OFFCURVE",
"341 -16 OFFCURVE",
"639 -16 CURVE SMOOTH"
);
},
{
closed = 1;
nodes = (
"367 24 OFFCURVE",
"179 222 OFFCURVE",
"179 550 CURVE SMOOTH",
"179 878 OFFCURVE",
"367 1076 OFFCURVE",
"639 1076 CURVE SMOOTH",
"911 1076 OFFCURVE",
"1099 878 OFFCURVE",
"1099 550 CURVE SMOOTH",
"1099 222 OFFCURVE",
"911 24 OFFCURVE",
"639 24 CURVE SMOOTH"
);
}
);
width = 1278;
},
{
layerId = "1E61A082-F045-49A7-AB52-DD1B03FD9B54";
paths = (
{
closed = 1;
nodes = (
"894 -16 OFFCURVE",
"1106 186 OFFCURVE",
"1106 540 CURVE SMOOTH",
"1106 894 OFFCURVE",
"894 1096 OFFCURVE",
"596 1096 CURVE SMOOTH",
"298 1096 OFFCURVE",
"86 894 OFFCURVE",
"86 540 CURVE SMOOTH",
"86 186 OFFCURVE",
"298 -16 OFFCURVE",
"596 -16 CURVE SMOOTH"
);
},
{
closed = 1;
nodes = (
"324 24 OFFCURVE",
"136 218 OFFCURVE",
"136 540 CURVE SMOOTH",
"136 862 OFFCURVE",
"324 1056 OFFCURVE",
"596 1056 CURVE SMOOTH",
"868 1056 OFFCURVE",
"1056 862 OFFCURVE",
"1056 540 CURVE SMOOTH",
"1056 218 OFFCURVE",
"868 24 OFFCURVE",
"596 24 CURVE SMOOTH"
);
}
);
width = 1192;
},
{
layerId = "642E5713-E15A-4A7E-A28E-9A6B75A6585C";
paths = (
{
closed = 1;
nodes = (
"1054 -20 OFFCURVE",
"1304 190 OFFCURVE",
"1304 560 CURVE SMOOTH",
"1304 930 OFFCURVE",
"1054 1140 OFFCURVE",
"690 1140 CURVE SMOOTH",
"326 1140 OFFCURVE",
"76 930 OFFCURVE",
"76 560 CURVE SMOOTH",
"76 190 OFFCURVE",
"326 -20 OFFCURVE",
"690 -20 CURVE SMOOTH"
);
},
{
closed = 1;
nodes = (
"497 138 OFFCURVE",
"376 287 OFFCURVE",
"376 550 CURVE SMOOTH",
"376 825 OFFCURVE",
"497 986 OFFCURVE",
"690 986 CURVE SMOOTH",
"883 986 OFFCURVE",
"1004 829 OFFCURVE",
"1004 560 CURVE SMOOTH",
"1004 291 OFFCURVE",
"883 138 OFFCURVE",
"690 138 CURVE SMOOTH"
);
}
);
width = 1380;
},
{
layerId = "AF891779-7DE6-4679-9CA2-17B922C1DF84";
paths = (
{
closed = 1;
nodes = (
"1086 -20 OFFCURVE",
"1344 197 OFFCURVE",
"1344 580 CURVE SMOOTH",
"1344 963 OFFCURVE",
"1086 1180 OFFCURVE",
"724 1180 CURVE SMOOTH",
"362 1180 OFFCURVE",
"104 963 OFFCURVE",
"104 580 CURVE SMOOTH",
"104 197 OFFCURVE",
"362 -20 OFFCURVE",
"724 -20 CURVE SMOOTH"
);
},
{
closed = 1;
nodes = (
"529 164 OFFCURVE",
"404 315 OFFCURVE",
"404 570 CURVE SMOOTH",
"404 837 OFFCURVE",
"529 1000 OFFCURVE",
"724 1000 CURVE SMOOTH",
"919 1000 OFFCURVE",
"1044 841 OFFCURVE",
"1044 580 CURVE SMOOTH",
"1044 319 OFFCURVE",
"919 164 OFFCURVE",
"724 164 CURVE SMOOTH"
);
}
);
width = 1448;
}
);
leftKerningGroup = o;
rightKerningGroup = o;
unicode = 006F;
},
{
glyphname = p;
lastChange = "2020-08-20 01:10:55 +0000";
layers = (
{
hints = (
{
origin = "{0, 4}";
scale = "{-0.9, 1}";
type = Corner;
name = _corner.Serif;
},
{
origin = "{0, 5}";
type = Corner;
name = _corner.Serif;
options = 1;
},
{
origin = "{0, 6}";
scale = "{-1.2, 1}";
type = Corner;
name = _corner.Serif;
}
);
layerId = "CA54B7DC-FBBB-40FE-ACF3-AABDD76D6A7B";
paths = (
{
closed = 1;
nodes = (
"353 334 LINE",
"323 550 LINE",
"349 746 LINE",
"349 1100 LINE",
"305 1100 LINE",
"305 -380 LINE",
"353 -380 LINE"
);
},
{
closed = 1;
nodes = (
"1055 -16 OFFCURVE",
"1253 198 OFFCURVE",
"1253 550 CURVE SMOOTH",
"1253 902 OFFCURVE",
"1055 1116 OFFCURVE",
"781 1116 CURVE SMOOTH",
"487 1116 OFFCURVE",
"309 902 OFFCURVE",
"309 550 CURVE SMOOTH",
"309 198 OFFCURVE",
"487 -16 OFFCURVE",
"781 -16 CURVE SMOOTH"
);
},
{
closed = 1;
nodes = (
"529 24 OFFCURVE",
"349 220 OFFCURVE",
"349 550 CURVE SMOOTH",
"349 880 OFFCURVE",
"529 1076 OFFCURVE",
"781 1076 CURVE SMOOTH",
"1029 1076 OFFCURVE",
"1205 880 OFFCURVE",
"1205 550 CURVE SMOOTH",
"1205 220 OFFCURVE",
"1029 24 OFFCURVE",
"781 24 CURVE SMOOTH"
);
}
);
width = 1382;
},
{
hints = (
{
origin = "{0, 4}";
scale = "{-0.9, 1}";
type = Corner;
name = _corner.Serif;
options = 1;
},
{
origin = "{0, 5}";
type = Corner;
name = _corner.Serif;
},
{
origin = "{0, 6}";
scale = "{-1.4, 1}";
type = Corner;
name = _corner.Serif;
options = 1;
}
);
layerId = "1E61A082-F045-49A7-AB52-DD1B03FD9B54";
paths = (
{
closed = 1;
nodes = (
"333 324 LINE",
"303 540 LINE",
"329 736 LINE",
"329 1080 LINE",
"285 1080 LINE",
"285 -380 LINE",
"333 -380 LINE"
);
},
{
closed = 1;
nodes = (
"1035 -16 OFFCURVE",
"1233 194 OFFCURVE",
"1233 540 CURVE SMOOTH",
"1233 886 OFFCURVE",
"1035 1096 OFFCURVE",
"761 1096 CURVE SMOOTH",
"467 1096 OFFCURVE",
"289 886 OFFCURVE",
"289 540 CURVE SMOOTH",
"289 194 OFFCURVE",
"467 -16 OFFCURVE",
"761 -16 CURVE SMOOTH"
);
},
{
closed = 1;
nodes = (
"509 24 OFFCURVE",
"329 216 OFFCURVE",
"329 540 CURVE SMOOTH",
"329 864 OFFCURVE",
"509 1056 OFFCURVE",
"761 1056 CURVE SMOOTH",
"1009 1056 OFFCURVE",
"1185 864 OFFCURVE",
"1185 540 CURVE SMOOTH",
"1185 216 OFFCURVE",
"1009 24 OFFCURVE",
"761 24 CURVE SMOOTH"
);
}
);
width = 1319;
},
{
hints = (
{
origin = "{0, 4}";
scale = "{-0.9, 0.98}";
type = Corner;
name = _corner.Serif;
},
{
origin = "{0, 5}";
type = Corner;
name = _corner.Serif;
options = 1;
},
{
origin = "{0, 6}";
scale = "{-1.4, 1}";
type = Corner;
name = _corner.Serif;
}
);
layerId = "642E5713-E15A-4A7E-A28E-9A6B75A6585C";
paths = (
{
closed = 1;
nodes = (
"520 344 LINE",
"478 344 LINE",
"478 756 LINE",
"478 1120 LINE",
"242 1120 LINE",
"242 -380 LINE",
"520 -380 LINE"
);
},
{
closed = 1;
nodes = (
"1186 -16 OFFCURVE",
"1410 201 OFFCURVE",
"1410 560 CURVE SMOOTH",
"1410 919 OFFCURVE",
"1186 1136 OFFCURVE",
"868 1136 CURVE SMOOTH",
"552 1136 OFFCURVE",
"395 919 OFFCURVE",
"395 560 CURVE SMOOTH",
"395 201 OFFCURVE",
"552 -16 OFFCURVE",
"868 -16 CURVE SMOOTH"
);
},
{
closed = 1;
nodes = (
"627 152 OFFCURVE",
"506 300 OFFCURVE",
"506 560 CURVE SMOOTH",
"506 820 OFFCURVE",
"627 970 OFFCURVE",
"810 970 CURVE SMOOTH",
"989 970 OFFCURVE",
"1110 820 OFFCURVE",
"1110 560 CURVE SMOOTH",
"1110 300 OFFCURVE",
"989 152 OFFCURVE",
"810 152 CURVE SMOOTH"
);
}
);
width = 1486;
},
{
hints = (
{
origin = "{0, 4}";
scale = "{-0.9, 0.98}";
type = Corner;
name = _corner.Serif;
},
{
origin = "{0, 5}";
type = Corner;
name = _corner.Serif;
options = 1;
},
{
origin = "{0, 6}";
scale = "{-1.2, 1}";
type = Corner;
name = _corner.Serif;
}
);
layerId = "AF891779-7DE6-4679-9CA2-17B922C1DF84";
paths = (
{
closed = 1;
nodes = (
"534 344 LINE",
"460 580 LINE",
"492 756 LINE",
"492 1160 LINE",
"256 1160 LINE",
"256 -380 LINE",
"534 -380 LINE"
);
},
{
closed = 1;
nodes = (
"1200 -16 OFFCURVE",
"1432 209 OFFCURVE",
"1432 580 CURVE SMOOTH",
"1432 951 OFFCURVE",
"1200 1176 OFFCURVE",
"880 1176 CURVE SMOOTH",
"557 1176 OFFCURVE",
"402 951 OFFCURVE",
"402 580 CURVE SMOOTH",
"402 209 OFFCURVE",
"557 -16 OFFCURVE",
"880 -16 CURVE SMOOTH"
);
},
{
closed = 1;
nodes = (
"639 176 OFFCURVE",
"520 319 OFFCURVE",
"520 580 CURVE SMOOTH",
"520 841 OFFCURVE",
"639 988 OFFCURVE",
"828 988 CURVE SMOOTH",
"1013 988 OFFCURVE",
"1132 841 OFFCURVE",
"1132 580 CURVE SMOOTH",
"1132 319 OFFCURVE",
"1013 176 OFFCURVE",
"828 176 CURVE SMOOTH"
);
}
);
width = 1536;
}
);
leftKerningGroup = p;
leftMetricsKey = l;
rightKerningGroup = o;
rightMetricsKey = o;
unicode = 0070;
},
{
glyphname = q;
lastChange = "2020-08-20 01:10:55 +0000";
layers = (
{
hints = (
{
origin = "{0, 6}";
scale = "{1.2, 1}";
type = Corner;
name = _corner.Serif;
},
{
origin = "{0, 0}";
scale = "{-0.9, 1}";
type = Corner;
name = _corner.Serif;
options = 1;
}
);
layerId = "CA54B7DC-FBBB-40FE-ACF3-AABDD76D6A7B";
paths = (
{
closed = 1;
nodes = (
"1077 -380 LINE",
"1077 1100 LINE",
"1033 1100 LINE",
"1033 750 LINE",
"1059 550 LINE",
"1029 334 LINE",
"1029 -380 LINE"
);
},
{
closed = 1;
nodes = (
"895 -16 OFFCURVE",
"1073 198 OFFCURVE",
"1073 550 CURVE SMOOTH",
"1073 902 OFFCURVE",
"895 1116 OFFCURVE",
"601 1116 CURVE SMOOTH",
"327 1116 OFFCURVE",
"129 902 OFFCURVE",
"129 550 CURVE SMOOTH",
"129 198 OFFCURVE",
"327 -16 OFFCURVE",
"601 -16 CURVE SMOOTH"
);
},
{
closed = 1;
nodes = (
"353 24 OFFCURVE",
"177 220 OFFCURVE",
"177 550 CURVE SMOOTH",
"177 880 OFFCURVE",
"353 1076 OFFCURVE",
"601 1076 CURVE SMOOTH",
"853 1076 OFFCURVE",
"1033 880 OFFCURVE",
"1033 550 CURVE SMOOTH",
"1033 220 OFFCURVE",
"853 24 OFFCURVE",
"601 24 CURVE SMOOTH"
);
}
);
width = 1307;
},
{
hints = (
{
origin = "{0, 6}";
scale = "{1.4, 1}";
type = Corner;
name = _corner.Serif;
},
{
origin = "{0, 0}";
scale = "{-0.9, 1}";
type = Corner;
name = _corner.Serif;
options = 1;
}
);
layerId = "1E61A082-F045-49A7-AB52-DD1B03FD9B54";
paths = (
{
closed = 1;
nodes = (
"1034 -380 LINE",
"1034 1080 LINE",
"990 1080 LINE",
"990 740 LINE",
"1016 540 LINE",
"986 324 LINE",
"986 -380 LINE"
);
},
{
closed = 1;
nodes = (
"852 -16 OFFCURVE",
"1030 194 OFFCURVE",
"1030 540 CURVE SMOOTH",
"1030 886 OFFCURVE",
"852 1096 OFFCURVE",
"558 1096 CURVE SMOOTH",
"284 1096 OFFCURVE",
"86 886 OFFCURVE",
"86 540 CURVE SMOOTH",
"86 194 OFFCURVE",
"284 -16 OFFCURVE",
"558 -16 CURVE SMOOTH"
);
},
{
closed = 1;
nodes = (
"310 24 OFFCURVE",
"134 216 OFFCURVE",
"134 540 CURVE SMOOTH",
"134 864 OFFCURVE",
"310 1056 OFFCURVE",
"558 1056 CURVE SMOOTH",
"810 1056 OFFCURVE",
"990 864 OFFCURVE",
"990 540 CURVE SMOOTH",
"990 216 OFFCURVE",
"810 24 OFFCURVE",
"558 24 CURVE SMOOTH"
);
}
);
width = 1242;
},
{
hints = (
{
origin = "{0, 6}";
scale = "{1.4, 1}";
type = Corner;
name = _corner.Serif;
},
{
origin = "{0, 0}";
scale = "{-0.9, 1}";
type = Corner;
name = _corner.Serif;
options = 1;
}
);
layerId = "642E5713-E15A-4A7E-A28E-9A6B75A6585C";
paths = (
{
closed = 1;
nodes = (
"1244 -380 LINE",
"1244 1120 LINE",
"1002 1120 LINE",
"1002 756 LINE",
"1040 560 LINE",
"966 344 LINE",
"966 -380 LINE"
);
},
{
closed = 1;
nodes = (
"934 -16 OFFCURVE",
"1091 201 OFFCURVE",
"1091 560 CURVE SMOOTH",
"1091 919 OFFCURVE",
"934 1136 OFFCURVE",
"618 1136 CURVE SMOOTH",
"300 1136 OFFCURVE",
"76 919 OFFCURVE",
"76 560 CURVE SMOOTH",
"76 201 OFFCURVE",
"300 -16 OFFCURVE",
"618 -16 CURVE SMOOTH"
);
},
{
closed = 1;
nodes = (
"497 152 OFFCURVE",
"376 300 OFFCURVE",
"376 560 CURVE SMOOTH",
"376 820 OFFCURVE",
"497 970 OFFCURVE",
"676 970 CURVE SMOOTH",
"859 970 OFFCURVE",
"980 820 OFFCURVE",
"980 560 CURVE SMOOTH",
"980 300 OFFCURVE",
"859 152 OFFCURVE",
"676 152 CURVE SMOOTH"
);
}
);
width = 1412;
},
{
hints = (
{
origin = "{0, 6}";
scale = "{1.2, 1}";
type = Corner;
name = _corner.Serif;
},
{
origin = "{0, 0}";
scale = "{-0.9, 1}";
type = Corner;
name = _corner.Serif;
options = 1;
}
);
layerId = "AF891779-7DE6-4679-9CA2-17B922C1DF84";
paths = (
{
closed = 1;
nodes = (
"1280 -380 LINE",
"1280 1160 LINE",
"1036 1160 LINE",
"1036 756 LINE",
"1076 580 LINE",
"1002 344 LINE",
"1002 -380 LINE"
);
},
{
closed = 1;
nodes = (
"979 -16 OFFCURVE",
"1134 209 OFFCURVE",
"1134 580 CURVE SMOOTH",
"1134 951 OFFCURVE",
"979 1176 OFFCURVE",
"656 1176 CURVE SMOOTH",
"336 1176 OFFCURVE",
"104 951 OFFCURVE",
"104 580 CURVE SMOOTH",
"104 209 OFFCURVE",
"336 -16 OFFCURVE",
"656 -16 CURVE SMOOTH"
);
},
{
closed = 1;
nodes = (
"523 176 OFFCURVE",
"404 319 OFFCURVE",
"404 580 CURVE SMOOTH",
"404 841 OFFCURVE",
"523 988 OFFCURVE",
"708 988 CURVE SMOOTH",
"897 988 OFFCURVE",
"1016 841 OFFCURVE",
"1016 580 CURVE SMOOTH",
"1016 319 OFFCURVE",
"897 176 OFFCURVE",
"708 176 CURVE SMOOTH"
);
}
);
width = 1474;
}
);
leftKerningGroup = o;
leftMetricsKey = o;
rightKerningGroup = q;
unicode = 0071;
},
{
glyphname = r;
lastChange = "2020-08-20 00:18:57 +0000";
layers = (
{
hints = (
{
origin = "{0, 5}";
scale = "{-0.9, 1}";
type = Corner;
name = _corner.Serif;
},
{
origin = "{0, 0}";
type = Corner;
name = _corner.Serif;
},
{
origin = "{0, 1}";
scale = "{-1.2, 1}";
type = Corner;
name = _corner.Serif;
options = 1;
}
);
layerId = "CA54B7DC-FBBB-40FE-ACF3-AABDD76D6A7B";
paths = (
{
closed = 1;
nodes = (
"333 0 LINE",
"381 0 LINE",
"381 730 LINE",
"373 730 LINE",
"373 1100 LINE",
"333 1100 LINE"
);
},
{
closed = 1;
nodes = (
"491 1114 OFFCURVE",
"347 940 OFFCURVE",
"347 644 CURVE",
"381 644 LINE",
"381 915 OFFCURVE",
"512 1074 OFFCURVE",
"723 1074 CURVE SMOOTH",
"851 1074 OFFCURVE",
"916 1012 OFFCURVE",
"910 899 CURVE SMOOTH",
"908 862 OFFCURVE",
"914 840 OFFCURVE",
"939 840 CURVE SMOOTH",
"969 840 OFFCURVE",
"973 863 OFFCURVE",
"973 908 CURVE SMOOTH",
"973 1041 OFFCURVE",
"869 1114 OFFCURVE",
"723 1114 CURVE SMOOTH"
);
}
);
width = 1045;
},
{
hints = (
{
origin = "{0, 5}";
scale = "{-0.9, 1}";
type = Corner;
name = _corner.Serif;
},
{
origin = "{0, 0}";
type = Corner;
name = _corner.Serif;
},
{
origin = "{0, 1}";
scale = "{-1.4, 1}";
type = Corner;
name = _corner.Serif;
options = 1;
}
);
layerId = "1E61A082-F045-49A7-AB52-DD1B03FD9B54";
paths = (
{
closed = 1;
nodes = (
"308 0 LINE",
"356 0 LINE",
"356 740 LINE",
"348 740 LINE",
"348 1080 LINE",
"308 1080 LINE"
);
},
{
closed = 1;
nodes = (
"453 1094 OFFCURVE",
"322 928 OFFCURVE",
"322 644 CURVE",
"356 644 LINE",
"356 907 OFFCURVE",
"481 1054 OFFCURVE",
"675 1054 CURVE SMOOTH",
"796 1054 OFFCURVE",
"865 988 OFFCURVE",
"857 875 CURVE SMOOTH",
"854 833 OFFCURVE",
"860 810 OFFCURVE",
"886 810 CURVE SMOOTH",
"911 810 OFFCURVE",
"921 835 OFFCURVE",
"921 882 CURVE SMOOTH",
"921 1025 OFFCURVE",
"819 1094 OFFCURVE",
"675 1094 CURVE SMOOTH"
);
}
);
width = 968;
},
{
hints = (
{
origin = "{0, 0}";
type = Corner;
name = _corner.Serif;
},
{
origin = "{0, 1}";
scale = "{-1.4, 1}";
type = Corner;
name = _corner.Serif;
options = 1;
},
{
origin = "{0, 5}";
scale = "{-0.9, 0.98}";
type = Corner;
name = _corner.Serif;
}
);
layerId = "642E5713-E15A-4A7E-A28E-9A6B75A6585C";
paths = (
{
closed = 1;
nodes = (
"260 0 LINE",
"538 0 LINE",
"538 800 LINE",
"488 800 LINE",
"488 1120 LINE",
"260 1119 LINE"
);
},
{
closed = 1;
nodes = (
"586 1139 OFFCURVE",
"458 1009 OFFCURVE",
"458 752 CURVE",
"538 752 LINE",
"538 887 OFFCURVE",
"589 962 OFFCURVE",
"676 963 CURVE SMOOTH",
"736 964 OFFCURVE",
"754 933 OFFCURVE",
"774 893 CURVE SMOOTH",
"796 849 OFFCURVE",
"828 813 OFFCURVE",
"895 813 CURVE SMOOTH",
"983 813 OFFCURVE",
"1040 880 OFFCURVE",
"1040 965 CURVE SMOOTH",
"1040 1069 OFFCURVE",
"951 1141 OFFCURVE",
"814 1140 CURVE SMOOTH"
);
}
);
width = 1066;
},
{
hints = (
{
origin = "{0, 0}";
type = Corner;
name = _corner.Serif;
},
{
origin = "{0, 1}";
scale = "{-1.2, 1}";
type = Corner;
name = _corner.Serif;
options = 1;
},
{
origin = "{0, 5}";
scale = "{-0.9, 0.98}";
type = Corner;
name = _corner.Serif;
}
);
layerId = "AF891779-7DE6-4679-9CA2-17B922C1DF84";
paths = (
{
closed = 1;
nodes = (
"280 0 LINE",
"558 0 LINE",
"558 840 LINE",
"510 840 LINE",
"510 1160 LINE",
"280 1159 LINE"
);
},
{
closed = 1;
nodes = (
"585 1180 OFFCURVE",
"468 1032 OFFCURVE",
"468 756 CURVE",
"558 756 LINE",
"558 911 OFFCURVE",
"618 994 OFFCURVE",
"699 994 CURVE SMOOTH",
"746 994 OFFCURVE",
"774 968 OFFCURVE",
"800 941 CURVE SMOOTH",
"833 906 OFFCURVE",
"872 881 OFFCURVE",
"928 881 CURVE SMOOTH",
"998 881 OFFCURVE",
"1056 923 OFFCURVE",
"1056 1015 CURVE SMOOTH",
"1056 1117 OFFCURVE",
"958 1180 OFFCURVE",
"818 1180 CURVE SMOOTH"
);
}
);
width = 1113;
}
);
leftKerningGroup = n;
leftMetricsKey = n;
rightKerningGroup = r;
unicode = 0072;
},
{
glyphname = s;
lastChange = "2020-08-20 00:53:45 +0000";
layers = (
{
layerId = "CA54B7DC-FBBB-40FE-ACF3-AABDD76D6A7B";
paths = (
{
closed = 1;
nodes = (
"173 663 OFFCURVE",
"329 598 OFFCURVE",
"503 556 CURVE SMOOTH",
"645 522 LINE SMOOTH",
"797 486 OFFCURVE",
"941 427 OFFCURVE",
"941 268 CURVE SMOOTH",
"941 112 OFFCURVE",
"827 24 OFFCURVE",
"637 24 CURVE SMOOTH",
"453 24 OFFCURVE",
"287 101 OFFCURVE",
"217 320 CURVE",
"181 320 LINE",
"243 75 OFFCURVE",
"429 -16 OFFCURVE",
"641 -16 CURVE SMOOTH",
"851 -16 OFFCURVE",
"989 88 OFFCURVE",
"989 268 CURVE SMOOTH",
"989 458 OFFCURVE",
"820 524 OFFCURVE",
"653 565 CURVE SMOOTH",
"513 599 LINE SMOOTH",
"354 638 OFFCURVE",
"221 688 OFFCURVE",
"221 848 CURVE SMOOTH",
"221 998 OFFCURVE",
"333 1076 OFFCURVE",
"505 1076 CURVE SMOOTH",
"667 1076 OFFCURVE",
"845 1000 OFFCURVE",
"905 790 CURVE",
"941 790 LINE",
"887 1024 OFFCURVE",
"703 1116 OFFCURVE",
"505 1116 CURVE SMOOTH",
"305 1116 OFFCURVE",
"173 1018 OFFCURVE",
"173 848 CURVE SMOOTH"
);
},
{
closed = 1;
nodes = (
"905 1100 LINE",
"905 848 LINE",
"941 790 LINE",
"949 790 LINE",
"949 1100 LINE"
);
},
{
closed = 1;
nodes = (
"217 0 LINE",
"217 250 LINE",
"181 320 LINE",
"173 320 LINE",
"173 0 LINE"
);
}
);
width = 1144;
},
{
layerId = "1E61A082-F045-49A7-AB52-DD1B03FD9B54";
paths = (
{
closed = 1;
nodes = (
"109 661 OFFCURVE",
"248 590 OFFCURVE",
"439 546 CURVE SMOOTH",
"585 512 LINE SMOOTH",
"737 477 OFFCURVE",
"881 419 OFFCURVE",
"881 263 CURVE SMOOTH",
"881 110 OFFCURVE",
"769 24 OFFCURVE",
"577 24 CURVE SMOOTH",
"391 24 OFFCURVE",
"223 121 OFFCURVE",
"153 390 CURVE",
"117 390 LINE",
"176 95 OFFCURVE",
"367 -16 OFFCURVE",
"581 -16 CURVE SMOOTH",
"793 -16 OFFCURVE",
"929 86 OFFCURVE",
"929 263 CURVE SMOOTH",
"929 446 OFFCURVE",
"768 514 OFFCURVE",
"593 555 CURVE SMOOTH",
"449 589 LINE SMOOTH",
"305 623 OFFCURVE",
"157 669 OFFCURVE",
"157 833 CURVE SMOOTH",
"157 979 OFFCURVE",
"267 1056 OFFCURVE",
"441 1056 CURVE SMOOTH",
"605 1056 OFFCURVE",
"785 963 OFFCURVE",
"845 710 CURVE",
"881 710 LINE",
"827 986 OFFCURVE",
"641 1096 OFFCURVE",
"441 1096 CURVE SMOOTH",
"239 1096 OFFCURVE",
"109 1000 OFFCURVE",
"109 833 CURVE SMOOTH"
);
},
{
closed = 1;
nodes = (
"845 1080 LINE",
"845 768 LINE",
"881 710 LINE",
"889 710 LINE",
"889 1080 LINE"
);
},
{
closed = 1;
nodes = (
"153 0 LINE",
"153 320 LINE",
"117 390 LINE",
"109 390 LINE",
"109 0 LINE"
);
}
);
width = 1024;
},
{
layerId = "642E5713-E15A-4A7E-A28E-9A6B75A6585C";
paths = (
{
closed = 1;
nodes = (
"110 610 OFFCURVE",
"261 500 OFFCURVE",
"484 453 CURVE SMOOTH",
"636 421 LINE SMOOTH",
"741 399 OFFCURVE",
"812 365 OFFCURVE",
"812 273 CURVE SMOOTH",
"812 181 OFFCURVE",
"744 132 OFFCURVE",
"638 132 CURVE SMOOTH",
"520 132 OFFCURVE",
"357 217 OFFCURVE",
"286 440 CURVE",
"174 440 LINE",
"219 126 OFFCURVE",
"408 -20 OFFCURVE",
"658 -20 CURVE SMOOTH",
"886 -20 OFFCURVE",
"1042 112 OFFCURVE",
"1042 332 CURVE SMOOTH",
"1042 552 OFFCURVE",
"879 650 OFFCURVE",
"660 696 CURVE SMOOTH",
"508 728 LINE SMOOTH",
"403 750 OFFCURVE",
"338 784 OFFCURVE",
"338 868 CURVE SMOOTH",
"338 952 OFFCURVE",
"400 988 OFFCURVE",
"494 988 CURVE SMOOTH",
"598 988 OFFCURVE",
"755 917 OFFCURVE",
"828 716 CURVE",
"940 716 LINE",
"879 1025 OFFCURVE",
"688 1140 OFFCURVE",
"474 1140 CURVE SMOOTH",
"266 1140 OFFCURVE",
"110 1034 OFFCURVE",
"110 820 CURVE SMOOTH"
);
},
{
closed = 1;
nodes = (
"832 1120 LINE",
"832 824 LINE",
"940 716 LINE",
"990 716 LINE",
"990 1120 LINE"
);
},
{
closed = 1;
nodes = (
"282 0 LINE",
"282 300 LINE",
"174 440 LINE",
"124 440 LINE",
"124 0 LINE"
);
}
);
width = 1138;
},
{
layerId = "AF891779-7DE6-4679-9CA2-17B922C1DF84";
paths = (
{
closed = 1;
nodes = (
"142 625 OFFCURVE",
"318 520 OFFCURVE",
"581 456 CURVE SMOOTH",
"663 436 LINE SMOOTH",
"774 409 OFFCURVE",
"839 374 OFFCURVE",
"839 290 CURVE SMOOTH",
"839 206 OFFCURVE",
"776 152 OFFCURVE",
"658 152 CURVE SMOOTH",
"538 152 OFFCURVE",
"423 211 OFFCURVE",
"348 380 CURVE",
"214 380 LINE",
"285 103 OFFCURVE",
"456 -20 OFFCURVE",
"691 -20 CURVE SMOOTH",
"920 -20 OFFCURVE",
"1091 105 OFFCURVE",
"1091 341 CURVE SMOOTH",
"1091 574 OFFCURVE",
"899 663 OFFCURVE",
"645 726 CURVE SMOOTH",
"564 746 LINE SMOOTH",
"455 773 OFFCURVE",
"394 810 OFFCURVE",
"394 890 CURVE SMOOTH",
"394 970 OFFCURVE",
"457 1008 OFFCURVE",
"555 1008 CURVE SMOOTH",
"657 1008 OFFCURVE",
"781 964 OFFCURVE",
"847 815 CURVE",
"981 815 LINE",
"898 1082 OFFCURVE",
"740 1180 OFFCURVE",
"524 1180 CURVE SMOOTH",
"308 1180 OFFCURVE",
"142 1079 OFFCURVE",
"142 850 CURVE SMOOTH"
);
},
{
closed = 1;
nodes = (
"851 1159 LINE",
"851 923 LINE",
"981 815 LINE",
"1031 815 LINE",
"1031 1159 LINE"
);
},
{
closed = 1;
nodes = (
"344 0 LINE",
"344 240 LINE",
"214 380 LINE",
"164 380 LINE",
"164 0 LINE"
);
}
);
width = 1215;
}
);
leftKerningGroup = s;
rightKerningGroup = s;
unicode = 0073;
},
{
glyphname = t;
lastChange = "2020-08-20 01:17:32 +0000";
layers = (
{
layerId = "CA54B7DC-FBBB-40FE-ACF3-AABDD76D6A7B";
paths = (
{
closed = 1;
nodes = (
"363 1240 LINE SMOOTH",
"363 1128 OFFCURVE",
"355 1100 OFFCURVE",
"243 1100 CURVE SMOOTH",
"29 1100 LINE",
"29 1060 LINE",
"359 1060 LINE",
"359 298 LINE SMOOTH",
"359 87 OFFCURVE",
"452 -20 OFFCURVE",
"627 -20 CURVE SMOOTH",
"802 -20 OFFCURVE",
"895 89 OFFCURVE",
"895 298 CURVE SMOOTH",
"895 340 LINE",
"851 340 LINE",
"851 298 LINE SMOOTH",
"851 121 OFFCURVE",
"778 24 OFFCURVE",
"629 24 CURVE SMOOTH",
"480 24 OFFCURVE",
"407 119 OFFCURVE",
"407 298 CURVE SMOOTH",
"407 1400 LINE",
"363 1400 LINE"
);
},
{
closed = 1;
nodes = (
"407 1060 LINE",
"989 1060 LINE",
"989 1100 LINE",
"407 1100 LINE"
);
}
);
width = 1078;
},
{
layerId = "1E61A082-F045-49A7-AB52-DD1B03FD9B54";
paths = (
{
closed = 1;
nodes = (
"354 1220 LINE SMOOTH",
"354 1108 OFFCURVE",
"346 1080 OFFCURVE",
"234 1080 CURVE SMOOTH",
"10 1080 LINE",
"10 1040 LINE",
"350 1040 LINE",
"350 312 LINE SMOOTH",
"350 92 OFFCURVE",
"448 -20 OFFCURVE",
"632 -20 CURVE SMOOTH",
"816 -20 OFFCURVE",
"914 94 OFFCURVE",
"914 312 CURVE SMOOTH",
"914 560 LINE",
"870 560 LINE",
"870 312 LINE SMOOTH",
"870 126 OFFCURVE",
"792 24 OFFCURVE",
"634 24 CURVE SMOOTH",
"476 24 OFFCURVE",
"398 124 OFFCURVE",
"398 312 CURVE SMOOTH",
"398 1380 LINE",
"354 1380 LINE"
);
},
{
closed = 1;
nodes = (
"398 1040 LINE",
"994 1040 LINE",
"994 1080 LINE",
"398 1080 LINE"
);
}
);
width = 1051;
},
{
layerId = "642E5713-E15A-4A7E-A28E-9A6B75A6585C";
paths = (
{
closed = 1;
nodes = (
"416 1374 LINE SMOOTH",
"416 1185 OFFCURVE",
"338 1114 OFFCURVE",
"106 1114 CURVE SMOOTH",
"6 1114 LINE",
"6 962 LINE",
"306 962 LINE",
"306 320 LINE SMOOTH",
"306 102 OFFCURVE",
"427 -20 OFFCURVE",
"650 -20 CURVE SMOOTH",
"869 -20 OFFCURVE",
"986 104 OFFCURVE",
"986 320 CURVE SMOOTH",
"986 560 LINE",
"822 560 LINE",
"822 336 LINE SMOOTH",
"822 247 OFFCURVE",
"786 192 OFFCURVE",
"704 192 CURVE SMOOTH",
"622 192 OFFCURVE",
"586 246 OFFCURVE",
"586 336 CURVE SMOOTH",
"586 1400 LINE",
"416 1400 LINE"
);
},
{
closed = 1;
nodes = (
"586 962 LINE",
"1056 962 LINE",
"1056 1120 LINE",
"586 1120 LINE"
);
}
);
width = 1088;
},
{
layerId = "AF891779-7DE6-4679-9CA2-17B922C1DF84";
paths = (
{
closed = 1;
nodes = (
"372 1414 LINE SMOOTH",
"372 1225 OFFCURVE",
"302 1150 OFFCURVE",
"72 1150 CURVE SMOOTH",
"12 1150 LINE",
"12 980 LINE",
"288 980 LINE",
"288 334 LINE SMOOTH",
"288 112 OFFCURVE",
"404 -20 OFFCURVE",
"636 -20 CURVE SMOOTH",
"866 -20 OFFCURVE",
"982 114 OFFCURVE",
"982 334 CURVE SMOOTH",
"982 400 LINE",
"800 400 LINE",
"800 340 LINE SMOOTH",
"800 252 OFFCURVE",
"764 202 OFFCURVE",
"684 202 CURVE SMOOTH",
"604 202 OFFCURVE",
"568 252 OFFCURVE",
"568 340 CURVE SMOOTH",
"568 1440 LINE",
"372 1440 LINE"
);
},
{
closed = 1;
nodes = (
"568 980 LINE",
"1034 980 LINE",
"1034 1160 LINE",
"568 1160 LINE"
);
}
);
width = 1098;
}
);
leftKerningGroup = t;
rightKerningGroup = t;
unicode = 0074;
},
{
glyphname = u;
lastChange = "2020-08-20 00:24:31 +0000";
layers = (
{
hints = (
{
origin = "{1, 8}";
scale = "{-0.86, 1}";
type = Corner;
name = _corner.Serif;
},
{
origin = "{0, 1}";
scale = "{-0.9, 1}";
type = Corner;
name = _corner.Serif;
},
{
origin = "{0, 5}";
scale = "{-0.9, 1}";
type = Corner;
name = _corner.Serif;
}
);
layerId = "CA54B7DC-FBBB-40FE-ACF3-AABDD76D6A7B";
paths = (
{
closed = 1;
nodes = (
"1062 1100 LINE",
"1014 1100 LINE",
"1014 390 LINE",
"1022 390 LINE",
"1022 0 LINE",
"1062 0 LINE"
);
},
{
closed = 1;
nodes = (
"1014 548 LINE",
"1014 186 OFFCURVE",
"810 22 OFFCURVE",
"588 24 CURVE SMOOTH",
"418 26 OFFCURVE",
"318 100 OFFCURVE",
"318 278 CURVE",
"318 1102 LINE",
"270 1102 LINE",
"270 278 LINE",
"270 68 OFFCURVE",
"398 -14 OFFCURVE",
"586 -16 CURVE SMOOTH",
"830 -18 OFFCURVE",
"1052 146 OFFCURVE",
"1052 548 CURVE"
);
}
);
width = 1355;
},
{
hints = (
{
origin = "{0, 5}";
scale = "{-0.9, 1}";
type = Corner;
name = _corner.Serif;
},
{
origin = "{0, 1}";
scale = "{-0.9, 1}";
type = Corner;
name = _corner.Serif;
},
{
origin = "{1, 8}";
scale = "{-0.86, 1}";
type = Corner;
name = _corner.Serif;
}
);
layerId = "1E61A082-F045-49A7-AB52-DD1B03FD9B54";
paths = (
{
closed = 1;
nodes = (
"1043 1080 LINE",
"995 1080 LINE",
"995 380 LINE",
"1003 380 LINE",
"1003 0 LINE",
"1043 0 LINE"
);
},
{
closed = 1;
nodes = (
"995 538 LINE",
"995 183 OFFCURVE",
"791 22 OFFCURVE",
"569 24 CURVE SMOOTH",
"399 26 OFFCURVE",
"299 97 OFFCURVE",
"299 268 CURVE",
"299 1082 LINE",
"251 1082 LINE",
"251 268 LINE",
"251 65 OFFCURVE",
"379 -14 OFFCURVE",
"567 -16 CURVE SMOOTH",
"811 -18 OFFCURVE",
"1033 143 OFFCURVE",
"1033 538 CURVE"
);
}
);
width = 1311;
},
{
hints = (
{
origin = "{0, 1}";
scale = "{-0.9, 0.98}";
type = Corner;
name = _corner.Serif;
},
{
origin = "{1, 8}";
scale = "{-0.86, 0.98}";
type = Corner;
name = _corner.Serif;
},
{
origin = "{0, 5}";
scale = "{-0.9, 1}";
type = Corner;
name = _corner.Serif;
}
);
layerId = "642E5713-E15A-4A7E-A28E-9A6B75A6585C";
paths = (
{
closed = 1;
nodes = (
"1160 1120 LINE",
"882 1120 LINE",
"882 378 LINE",
"932 388 LINE",
"932 0 LINE",
"1160 0 LINE"
);
},
{
closed = 1;
nodes = (
"882 466 LINE",
"882 237 OFFCURVE",
"756 174 OFFCURVE",
"644 174 CURVE SMOOTH",
"544 174 OFFCURVE",
"486 226 OFFCURVE",
"486 324 CURVE SMOOTH",
"486 1120 LINE",
"208 1120 LINE",
"208 318 LINE SMOOTH",
"208 81 OFFCURVE",
"360 -20 OFFCURVE",
"568 -20 CURVE SMOOTH",
"813 -20 OFFCURVE",
"964 112 OFFCURVE",
"964 466 CURVE"
);
}
);
width = 1384;
},
{
hints = (
{
origin = "{0, 5}";
scale = "{-0.9, 1}";
type = Corner;
name = _corner.Serif;
},
{
origin = "{0, 1}";
scale = "{-0.9, 0.98}";
type = Corner;
name = _corner.Serif;
},
{
origin = "{1, 8}";
scale = "{-0.86, 0.98}";
type = Corner;
name = _corner.Serif;
}
);
layerId = "AF891779-7DE6-4679-9CA2-17B922C1DF84";
paths = (
{
closed = 1;
nodes = (
"1198 1160 LINE",
"920 1160 LINE",
"920 390 LINE",
"968 390 LINE",
"968 0 LINE",
"1198 0 LINE"
);
},
{
closed = 1;
nodes = (
"920 476 LINE",
"920 259 OFFCURVE",
"794 186 OFFCURVE",
"670 186 CURVE SMOOTH",
"567 186 OFFCURVE",
"504 237 OFFCURVE",
"504 338 CURVE SMOOTH",
"504 1160 LINE",
"226 1160 LINE",
"226 316 LINE SMOOTH",
"226 80 OFFCURVE",
"380 -20 OFFCURVE",
"592 -20 CURVE SMOOTH",
"884 -20 OFFCURVE",
"1024 153 OFFCURVE",
"1024 476 CURVE"
);
}
);
width = 1442;
}
);
leftKerningGroup = u;
rightKerningGroup = u;
rightMetricsKey = l;
unicode = 0075;
},
{
glyphname = v;
lastChange = "2020-08-20 00:45:48 +0000";
layers = (
{
hints = (
{
origin = "{0, 2}";
scale = "{0.6, 1}";
type = Corner;
name = _corner.Serif;
},
{
origin = "{0, 3}";
scale = "{-1.1, 1}";
type = Corner;
name = _corner.Serif;
options = 1;
},
{
origin = "{0, 6}";
scale = "{1.1, 1}";
type = Corner;
name = _corner.Serif;
},
{
origin = "{0, 7}";
scale = "{-0.6, 1}";
type = Corner;
name = _corner.Serif;
options = 1;
}
);
layerId = "CA54B7DC-FBBB-40FE-ACF3-AABDD76D6A7B";
paths = (
{
closed = 1;
nodes = (
"596 0 LINE",
"640 0 LINE",
"1055 1100 LINE",
"1008 1100 LINE",
"612 45 LINE",
"628 45 LINE",
"232 1100 LINE",
"181 1100 LINE"
);
}
);
width = 1239;
},
{
hints = (
{
origin = "{0, 2}";
scale = "{0.6, 1}";
type = Corner;
name = _corner.Serif;
},
{
origin = "{0, 3}";
scale = "{-1.1, 1}";
type = Corner;
name = _corner.Serif;
options = 1;
},
{
origin = "{0, 6}";
scale = "{1.1, 1}";
type = Corner;
name = _corner.Serif;
},
{
origin = "{0, 7}";
scale = "{-0.6, 1}";
type = Corner;
name = _corner.Serif;
options = 1;
}
);
layerId = "1E61A082-F045-49A7-AB52-DD1B03FD9B54";
paths = (
{
closed = 1;
nodes = (
"570 0 LINE",
"612 0 LINE",
"1027 1080 LINE",
"982 1080 LINE",
"586 45 LINE",
"602 45 LINE",
"206 1080 LINE",
"155 1080 LINE"
);
}
);
width = 1183;
},
{
hints = (
{
origin = "{0, 2}";
scale = "{0.4, 0.98}";
type = Corner;
name = _corner.Serif;
},
{
origin = "{0, 3}";
scale = "{-1.25, 0.98}";
type = Corner;
name = _corner.Serif;
options = 1;
},
{
origin = "{0, 6}";
scale = "{1.25, 0.98}";
type = Corner;
name = _corner.Serif;
},
{
origin = "{0, 7}";
scale = "{-0.4, 0.98}";
type = Corner;
name = _corner.Serif;
options = 1;
}
);
layerId = "642E5713-E15A-4A7E-A28E-9A6B75A6585C";
paths = (
{
closed = 1;
nodes = (
"520 0 LINE",
"744 0 LINE",
"1168 1120 LINE",
"984 1120 LINE",
"636 193 LINE",
"726 192 LINE",
"396 1120 LINE",
"96 1120 LINE"
);
}
);
width = 1264;
},
{
hints = (
{
origin = "{0, 2}";
scale = "{0.4, 0.98}";
type = Corner;
name = _corner.Serif;
},
{
origin = "{0, 3}";
scale = "{-1.24, 0.98}";
type = Corner;
name = _corner.Serif;
options = 1;
},
{
origin = "{0, 6}";
scale = "{1.24, 0.98}";
type = Corner;
name = _corner.Serif;
},
{
origin = "{0, 7}";
scale = "{-0.4, 0.98}";
type = Corner;
name = _corner.Serif;
options = 1;
}
);
layerId = "AF891779-7DE6-4679-9CA2-17B922C1DF84";
paths = (
{
closed = 1;
nodes = (
"550 0 LINE",
"778 0 LINE",
"1212 1160 LINE",
"1009 1160 LINE",
"650 193 LINE",
"757 192 LINE",
"413 1160 LINE",
"116 1160 LINE"
);
}
);
width = 1328;
}
);
leftKerningGroup = v;
rightKerningGroup = v;
unicode = 0076;
},
{
glyphname = w;
lastChange = "2020-08-20 01:01:40 +0000";
layers = (
{
hints = (
{
origin = "{0, 2}";
scale = "{0.6, 1}";
type = Corner;
name = _corner.Serif;
},
{
origin = "{0, 3}";
scale = "{-1.1, 1}";
type = Corner;
name = _corner.Serif;
options = 1;
},
{
origin = "{0, 6}";
scale = "{1.1, 1}";
type = Corner;
name = _corner.Serif;
},
{
origin = "{0, 7}";
scale = "{-0.6, 1}";
type = Corner;
name = _corner.Serif;
options = 1;
},
{
origin = "{1, 6}";
scale = "{1.1, 1}";
type = Corner;
name = _corner.Serif;
},
{
origin = "{1, 7}";
scale = "{-0.6, 1}";
type = Corner;
name = _corner.Serif;
options = 1;
}
);
layerId = "CA54B7DC-FBBB-40FE-ACF3-AABDD76D6A7B";
paths = (
{
closed = 1;
nodes = (
"1073 0 LINE",
"1117 0 LINE",
"1449 1100 LINE",
"1403 1100 LINE",
"1088 49 LINE",
"1106 49 LINE",
"791 1100 LINE",
"741 1100 LINE"
);
},
{
closed = 1;
nodes = (
"513 0 LINE",
"557 0 LINE",
"830 904 LINE",
"802 962 LINE",
"528 49 LINE",
"546 49 LINE",
"231 1100 LINE",
"181 1100 LINE"
);
}
);
width = 1633;
},
{
hints = (
{
origin = "{0, 2}";
scale = "{0.6, 1}";
type = Corner;
name = _corner.Serif;
},
{
origin = "{0, 3}";
scale = "{-1.1, 1}";
type = Corner;
name = _corner.Serif;
options = 1;
},
{
origin = "{0, 6}";
scale = "{1.1, 1}";
type = Corner;
name = _corner.Serif;
},
{
origin = "{0, 7}";
scale = "{-0.6, 1}";
type = Corner;
name = _corner.Serif;
options = 1;
},
{
origin = "{1, 6}";
scale = "{1.1, 1}";
type = Corner;
name = _corner.Serif;
},
{
origin = "{1, 7}";
scale = "{-0.6, 1}";
type = Corner;
name = _corner.Serif;
options = 1;
}
);
layerId = "1E61A082-F045-49A7-AB52-DD1B03FD9B54";
paths = (
{
closed = 1;
nodes = (
"1047 0 LINE",
"1091 0 LINE",
"1423 1080 LINE",
"1379 1080 LINE",
"1064 49 LINE",
"1080 49 LINE",
"765 1080 LINE",
"715 1080 LINE"
);
},
{
closed = 1;
nodes = (
"487 0 LINE",
"531 0 LINE",
"806 895 LINE",
"783 961 LINE",
"504 49 LINE",
"520 49 LINE",
"205 1080 LINE",
"155 1080 LINE"
);
}
);
width = 1579;
},
{
hints = (
{
origin = "{0, 2}";
scale = "{0.4, 0.98}";
type = Corner;
name = _corner.Serif;
},
{
origin = "{0, 3}";
scale = "{-1.04, 0.98}";
type = Corner;
name = _corner.Serif;
options = 1;
},
{
origin = "{0, 6}";
scale = "{1.04, 0.98}";
type = Corner;
name = _corner.Serif;
},
{
origin = "{0, 7}";
scale = "{-0.39, 0.98}";
type = Corner;
name = _corner.Serif;
options = 1;
},
{
origin = "{1, 6}";
scale = "{0.9, 0.98}";
type = Corner;
name = _corner.Serif;
},
{
origin = "{1, 7}";
scale = "{-0.4, 0.98}";
type = Corner;
name = _corner.Serif;
options = 1;
}
);
layerId = "642E5713-E15A-4A7E-A28E-9A6B75A6585C";
paths = (
{
closed = 1;
nodes = (
"1103 0 LINE",
"1315 0 LINE",
"1686 1120 LINE",
"1511 1120 LINE",
"1207 193 LINE",
"1299 191 LINE",
"1004 1120 LINE",
"732 1120 LINE"
);
},
{
closed = 1;
nodes = (
"467 0 LINE",
"681 0 LINE",
"945 797 LINE",
"848 1019 LINE",
"577 193 LINE",
"675 191 LINE",
"381 1120 LINE",
"96 1120 LINE"
);
}
);
width = 1782;
},
{
hints = (
{
origin = "{0, 2}";
scale = "{0.4, 0.98}";
type = Corner;
name = _corner.Serif;
},
{
origin = "{0, 3}";
scale = "{-0.98, 0.98}";
type = Corner;
name = _corner.Serif;
options = 1;
},
{
origin = "{0, 6}";
scale = "{0.98, 0.98}";
type = Corner;
name = _corner.Serif;
},
{
origin = "{0, 7}";
scale = "{-0.22, 0.98}";
type = Corner;
name = _corner.Serif;
options = 1;
},
{
origin = "{1, 6}";
scale = "{0.88, 0.98}";
type = Corner;
name = _corner.Serif;
},
{
origin = "{1, 7}";
scale = "{-0.34, 0.98}";
type = Corner;
name = _corner.Serif;
options = 1;
}
);
layerId = "AF891779-7DE6-4679-9CA2-17B922C1DF84";
paths = (
{
closed = 1;
nodes = (
"1111 0 LINE",
"1324 0 LINE",
"1705 1160 LINE",
"1511 1160 LINE",
"1199 193 LINE",
"1295 191 LINE",
"1000 1160 LINE",
"730 1160 LINE"
);
},
{
closed = 1;
nodes = (
"486 0 LINE",
"705 0 LINE",
"977 830 LINE",
"860 1050 LINE",
"584 193 LINE",
"686 191 LINE",
"391 1160 LINE",
"105 1160 LINE"
);
}
);
width = 1821;
}
);
leftKerningGroup = w;
leftMetricsKey = v;
rightKerningGroup = w;
rightMetricsKey = v;
unicode = 0077;
},
{
glyphname = x;
lastChange = "2020-08-20 01:12:21 +0000";
layers = (
{
hints = (
{
origin = "{0, 2}";
scale = "{0.54, 1}";
type = Corner;
name = _corner.Serif;
},
{
origin = "{0, 3}";
scale = "{-1.06, 1}";
type = Corner;
name = _corner.Serif;
options = 1;
},
{
origin = "{0, 6}";
scale = "{1.06, 1}";
type = Corner;
name = _corner.Serif;
},
{
origin = "{0, 7}";
scale = "{-0.54, 1}";
type = Corner;
name = _corner.Serif;
options = 1;
},
{
origin = "{1, 6}";
scale = "{1.1, 1}";
type = Corner;
name = _corner.Serif;
},
{
origin = "{1, 3}";
scale = "{-1.1, 1}";
type = Corner;
name = _corner.Serif;
options = 1;
},
{
origin = "{1, 2}";
scale = "{0.6, 1}";
type = Corner;
name = _corner.Serif;
},
{
origin = "{1, 7}";
scale = "{-0.6, 1}";
type = Corner;
name = _corner.Serif;
options = 1;
}
);
layerId = "CA54B7DC-FBBB-40FE-ACF3-AABDD76D6A7B";
paths = (
{
closed = 1;
nodes = (
"642 542 LINE",
"674 542 LINE",
"1089 1100 LINE",
"1034 1100 LINE",
"641 567 LINE",
"680 567 LINE",
"287 1100 LINE",
"227 1100 LINE"
);
},
{
closed = 1;
nodes = (
"679 578 LINE",
"643 578 LINE",
"213 0 LINE",
"268 0 LINE",
"676 553 LINE",
"641 553 LINE",
"1049 0 LINE",
"1109 0 LINE"
);
}
);
width = 1322;
},
{
hints = (
{
origin = "{0, 2}";
scale = "{0.54, 1}";
type = Corner;
name = _corner.Serif;
},
{
origin = "{0, 3}";
scale = "{-1.06, 1}";
type = Corner;
name = _corner.Serif;
options = 1;
},
{
origin = "{0, 6}";
scale = "{1.06, 1}";
type = Corner;
name = _corner.Serif;
},
{
origin = "{0, 7}";
scale = "{-0.54, 1}";
type = Corner;
name = _corner.Serif;
options = 1;
},
{
origin = "{1, 2}";
scale = "{0.6, 1}";
type = Corner;
name = _corner.Serif;
},
{
origin = "{1, 3}";
scale = "{-1.1, 1}";
type = Corner;
name = _corner.Serif;
options = 1;
},
{
origin = "{1, 6}";
scale = "{1.1, 1}";
type = Corner;
name = _corner.Serif;
},
{
origin = "{1, 7}";
scale = "{-0.6, 1}";
type = Corner;
name = _corner.Serif;
options = 1;
}
);
layerId = "1E61A082-F045-49A7-AB52-DD1B03FD9B54";
paths = (
{
closed = 1;
nodes = (
"605 532 LINE",
"636 532 LINE",
"1047 1080 LINE",
"994 1080 LINE",
"605 557 LINE",
"643 557 LINE",
"254 1080 LINE",
"194 1080 LINE"
);
},
{
closed = 1;
nodes = (
"642 568 LINE",
"607 568 LINE",
"182 0 LINE",
"235 0 LINE",
"638 543 LINE",
"604 543 LINE",
"1007 0 LINE",
"1067 0 LINE"
);
}
);
width = 1245;
},
{
hints = (
{
origin = "{0, 2}";
scale = "{0.02, 1}";
type = Corner;
name = _corner.Serif;
},
{
origin = "{0, 3}";
scale = "{-1.28, 1}";
type = Corner;
name = _corner.Serif;
options = 1;
},
{
origin = "{0, 6}";
scale = "{1.27, 1}";
type = Corner;
name = _corner.Serif;
},
{
origin = "{0, 7}";
scale = "{-0.02, 1}";
type = Corner;
name = _corner.Serif;
options = 1;
},
{
origin = "{1, 2}";
scale = "{0.06, 1}";
type = Corner;
name = _corner.Serif;
},
{
origin = "{1, 3}";
scale = "{-1.34, 1}";
type = Corner;
name = _corner.Serif;
options = 1;
},
{
origin = "{1, 6}";
scale = "{1.33, 1}";
type = Corner;
name = _corner.Serif;
},
{
origin = "{1, 7}";
scale = "{-0.06, 1}";
type = Corner;
name = _corner.Serif;
options = 1;
}
);
layerId = "642E5713-E15A-4A7E-A28E-9A6B75A6585C";
paths = (
{
closed = 1;
nodes = (
"493 512 LINE",
"718 512 LINE",
"1192 1120 LINE",
"984 1120 LINE",
"611 637 LINE",
"722 637 LINE",
"377 1120 LINE",
"44 1120 LINE"
);
},
{
closed = 1;
nodes = (
"759 624 LINE",
"540 624 LINE",
"54 0 LINE",
"262 0 LINE",
"648 499 LINE",
"530 499 LINE",
"887 0 LINE",
"1220 0 LINE"
);
}
);
width = 1268;
},
{
hints = (
{
origin = "{0, 2}";
scale = "{0.02, 0.98}";
type = Corner;
name = _corner.Serif;
},
{
origin = "{0, 3}";
scale = "{-1.31, 0.98}";
type = Corner;
name = _corner.Serif;
options = 1;
},
{
origin = "{0, 6}";
scale = "{1.3, 0.98}";
type = Corner;
name = _corner.Serif;
},
{
origin = "{0, 7}";
scale = "{-0.02, 0.98}";
type = Corner;
name = _corner.Serif;
options = 1;
},
{
origin = "{1, 2}";
scale = "{0.04, 1}";
type = Corner;
name = _corner.Serif;
},
{
origin = "{1, 3}";
scale = "{-1.36, 1}";
type = Corner;
name = _corner.Serif;
options = 1;
},
{
origin = "{1, 6}";
scale = "{1.37, 1}";
type = Corner;
name = _corner.Serif;
},
{
origin = "{1, 7}";
scale = "{-0.04, 1}";
type = Corner;
name = _corner.Serif;
options = 1;
}
);
layerId = "AF891779-7DE6-4679-9CA2-17B922C1DF84";
paths = (
{
closed = 1;
nodes = (
"531 532 LINE",
"772 532 LINE",
"1235 1160 LINE",
"1014 1160 LINE",
"646 657 LINE",
"750 657 LINE",
"397 1160 LINE",
"76 1160 LINE"
);
},
{
closed = 1;
nodes = (
"801 644 LINE",
"560 644 LINE",
"85 0 LINE",
"306 0 LINE",
"686 519 LINE",
"582 519 LINE",
"946 0 LINE",
"1267 0 LINE"
);
}
);
width = 1340;
}
);
leftKerningGroup = x;
rightKerningGroup = x;
unicode = 0078;
},
